<svg width="81" height="93" viewBox="0 0 81 93" fill="none" xmlns="http://www.w3.org/2000/svg">
<path d="M42.3835 23.274L62.7796 35.2453C63.4095 35.615 64.1909 35.6119 64.8179 35.2372L65.9284 34.5736C67.2271 33.7975 67.2271 31.9161 65.9284 31.14L41.8034 16.7227C41.1842 16.3526 40.4135 16.3447 39.7868 16.7021L14.2105 31.2853C13.5864 31.6411 13.2012 32.3043 13.2012 33.0227V42.096C13.2012 42.7915 13.5625 43.437 14.1553 43.8007L39.7689 59.5144C40.4034 59.9036 41.2017 59.9083 41.8407 59.5264L60.7752 48.211C62.1083 47.4143 63.8012 48.3747 63.8012 49.9278V56.7693C63.8012 57.5011 63.4015 58.1745 62.7591 58.525L41.7946 69.9641C41.1782 70.3005 40.4306 70.2889 39.8249 69.9337L20.3894 58.536C19.7772 58.177 19.4012 57.5204 19.4012 56.8107V53.9852C19.4012 53.3507 19.1001 52.7538 18.5898 52.3767L16.3898 50.751C15.0696 49.7754 13.2012 50.7179 13.2012 52.3594V59.8251C13.2012 60.5206 13.5625 61.1661 14.1553 61.5298L39.7628 77.2397C40.4005 77.631 41.2033 77.6335 41.8436 77.2464L67.8361 61.5281C68.4351 61.1658 68.8012 60.5167 68.8012 59.8166V40.4796C68.8012 38.9455 67.1452 37.9826 65.8119 38.7414L41.8214 52.3956C41.1915 52.7542 40.4169 52.7438 39.7968 52.3686L20.3658 40.6118C19.767 40.2495 19.4012 39.6005 19.4012 38.9006V36.029C19.4012 35.3009 19.7968 34.6303 20.4342 34.2783L40.4041 23.2481C41.0222 22.9067 41.7745 22.9166 42.3835 23.274Z" fill="#CD5954"/>
<path d="M0.400391 25.2872L40.2004 0.984375L80.2004 24.8888V68.9127L41.4004 92.8171L0.400391 68.9127H10.0004L41.4004 85.845L74.8004 65.327V28.2752L40.2004 7.75727L6.40039 28.2752L0.400391 25.2872Z" fill="#CD5954"/>
<path d="M6.44209 28.1016L0.400391 25.2871V69.1119H10.4004L6.44209 65.8954V28.1016Z" fill="#CD5954"/>
</svg>
