<svg width="270" height="100" viewBox="0 0 270 100" fill="none" xmlns="http://www.w3.org/2000/svg">
<g clip-path="url(#clip0_83_25)">
<path d="M115.376 63.252C113.528 63.252 111.872 62.952 110.408 62.352C108.944 61.752 107.768 60.864 106.88 59.688C106.016 58.512 105.56 57.096 105.512 55.44H112.064C112.16 56.376 112.484 57.096 113.036 57.6C113.588 58.08 114.308 58.32 115.196 58.32C116.108 58.32 116.828 58.116 117.356 57.708C117.884 57.276 118.148 56.688 118.148 55.944C118.148 55.32 117.932 54.804 117.5 54.396C117.092 53.988 116.576 53.652 115.952 53.388C115.352 53.124 114.488 52.824 113.36 52.488C111.728 51.984 110.396 51.48 109.364 50.976C108.332 50.472 107.444 49.728 106.7 48.744C105.956 47.76 105.584 46.476 105.584 44.892C105.584 42.54 106.436 40.704 108.14 39.384C109.844 38.04 112.064 37.368 114.8 37.368C117.584 37.368 119.828 38.04 121.532 39.384C123.236 40.704 124.148 42.552 124.268 44.928H117.608C117.56 44.112 117.26 43.476 116.708 43.02C116.156 42.54 115.448 42.3 114.584 42.3C113.84 42.3 113.24 42.504 112.784 42.912C112.328 43.296 112.1 43.86 112.1 44.604C112.1 45.42 112.484 46.056 113.252 46.512C114.02 46.968 115.22 47.46 116.852 47.988C118.484 48.54 119.804 49.068 120.812 49.572C121.844 50.076 122.732 50.808 123.476 51.768C124.22 52.728 124.592 53.964 124.592 55.476C124.592 56.916 124.22 58.224 123.476 59.4C122.756 60.576 121.7 61.512 120.308 62.208C118.916 62.904 117.272 63.252 115.376 63.252ZM147.316 52.632C147.316 53.208 147.28 53.808 147.208 54.432H133.276C133.372 55.68 133.768 56.64 134.464 57.312C135.184 57.96 136.06 58.284 137.092 58.284C138.628 58.284 139.696 57.636 140.296 56.34H146.848C146.512 57.66 145.9 58.848 145.012 59.904C144.148 60.96 143.056 61.788 141.736 62.388C140.416 62.988 138.94 63.288 137.308 63.288C135.34 63.288 133.588 62.868 132.052 62.028C130.516 61.188 129.316 59.988 128.452 58.428C127.588 56.868 127.156 55.044 127.156 52.956C127.156 50.868 127.576 49.044 128.416 47.484C129.28 45.924 130.48 44.724 132.016 43.884C133.552 43.044 135.316 42.624 137.308 42.624C139.252 42.624 140.98 43.032 142.492 43.848C144.004 44.664 145.18 45.828 146.02 47.34C146.884 48.852 147.316 50.616 147.316 52.632ZM141.016 51.012C141.016 49.956 140.656 49.116 139.936 48.492C139.216 47.868 138.316 47.556 137.236 47.556C136.204 47.556 135.328 47.856 134.608 48.456C133.912 49.056 133.48 49.908 133.312 51.012H141.016ZM156.72 46.26C157.44 45.156 158.34 44.292 159.42 43.668C160.5 43.02 161.7 42.696 163.02 42.696V49.212H161.328C159.792 49.212 158.64 49.548 157.872 50.22C157.104 50.868 156.72 52.02 156.72 53.676V63H150.564V42.912H156.72V46.26ZM174.998 57.24L179.354 42.912H185.906L178.778 63H171.182L164.054 42.912H170.642L174.998 57.24ZM207.434 52.632C207.434 53.208 207.398 53.808 207.326 54.432H193.394C193.49 55.68 193.886 56.64 194.582 57.312C195.302 57.96 196.178 58.284 197.21 58.284C198.746 58.284 199.814 57.636 200.414 56.34H206.966C206.63 57.66 206.018 58.848 205.13 59.904C204.266 60.96 203.174 61.788 201.854 62.388C200.534 62.988 199.058 63.288 197.426 63.288C195.458 63.288 193.706 62.868 192.17 62.028C190.634 61.188 189.434 59.988 188.57 58.428C187.706 56.868 187.274 55.044 187.274 52.956C187.274 50.868 187.694 49.044 188.534 47.484C189.398 45.924 190.598 44.724 192.134 43.884C193.67 43.044 195.434 42.624 197.426 42.624C199.37 42.624 201.098 43.032 202.61 43.848C204.122 44.664 205.298 45.828 206.138 47.34C207.002 48.852 207.434 50.616 207.434 52.632ZM201.134 51.012C201.134 49.956 200.774 49.116 200.054 48.492C199.334 47.868 198.434 47.556 197.354 47.556C196.322 47.556 195.446 47.856 194.726 48.456C194.03 49.056 193.598 49.908 193.43 51.012H201.134ZM216.837 46.26C217.557 45.156 218.457 44.292 219.537 43.668C220.617 43.02 221.817 42.696 223.137 42.696V49.212H221.445C219.909 49.212 218.757 49.548 217.989 50.22C217.221 50.868 216.837 52.02 216.837 53.676V63H210.681V42.912H216.837V46.26ZM235.224 63.288C233.256 63.288 231.48 62.868 229.896 62.028C228.336 61.188 227.1 59.988 226.188 58.428C225.3 56.868 224.856 55.044 224.856 52.956C224.856 50.892 225.312 49.08 226.224 47.52C227.136 45.936 228.384 44.724 229.968 43.884C231.552 43.044 233.328 42.624 235.296 42.624C237.264 42.624 239.04 43.044 240.624 43.884C242.208 44.724 243.456 45.936 244.368 47.52C245.28 49.08 245.736 50.892 245.736 52.956C245.736 55.02 245.268 56.844 244.332 58.428C243.42 59.988 242.16 61.188 240.552 62.028C238.968 62.868 237.192 63.288 235.224 63.288ZM235.224 57.96C236.4 57.96 237.396 57.528 238.212 56.664C239.052 55.8 239.472 54.564 239.472 52.956C239.472 51.348 239.064 50.112 238.248 49.248C237.456 48.384 236.472 47.952 235.296 47.952C234.096 47.952 233.1 48.384 232.308 49.248C231.516 50.088 231.12 51.324 231.12 52.956C231.12 54.564 231.504 55.8 232.272 56.664C233.064 57.528 234.048 57.96 235.224 57.96ZM258.146 63.288C256.178 63.288 254.402 62.868 252.818 62.028C251.258 61.188 250.022 59.988 249.11 58.428C248.222 56.868 247.778 55.044 247.778 52.956C247.778 50.892 248.234 49.08 249.146 47.52C250.058 45.936 251.306 44.724 252.89 43.884C254.474 43.044 256.25 42.624 258.218 42.624C260.186 42.624 261.962 43.044 263.546 43.884C265.13 44.724 266.378 45.936 267.29 47.52C268.202 49.08 268.658 50.892 268.658 52.956C268.658 55.02 268.19 56.844 267.254 58.428C266.342 59.988 265.082 61.188 263.474 62.028C261.89 62.868 260.114 63.288 258.146 63.288ZM258.146 57.96C259.322 57.96 260.318 57.528 261.134 56.664C261.974 55.8 262.394 54.564 262.394 52.956C262.394 51.348 261.986 50.112 261.17 49.248C260.378 48.384 259.394 47.952 258.218 47.952C257.018 47.952 256.022 48.384 255.23 49.248C254.438 50.088 254.042 51.324 254.042 52.956C254.042 54.564 254.426 55.8 255.194 56.664C255.986 57.528 256.97 57.96 258.146 57.96Z" fill="#CD5954"/>
<path d="M46.3823 26.2738L66.7784 38.2451C67.4083 38.6148 68.1897 38.6117 68.8167 38.237L69.9272 37.5734C71.2259 36.7973 71.2259 34.9159 69.9272 34.1398L45.8022 19.7225C45.183 19.3524 44.4123 19.3445 43.7856 19.7019L18.2093 34.2851C17.5852 34.6409 17.2 35.3041 17.2 36.0225V45.0958C17.2 45.7913 17.5613 46.4368 18.1541 46.8005L43.7677 62.5142C44.4022 62.9034 45.2005 62.9081 45.8395 62.5262L64.774 51.2108C66.1071 50.4141 67.8 51.3745 67.8 52.9276V59.7691C67.8 60.5009 67.4003 61.1743 66.7579 61.5248L45.7934 72.9639C45.177 73.3003 44.4294 73.2887 43.8237 72.9335L24.3882 61.5358C23.776 61.1768 23.4 60.5202 23.4 59.8105V56.985C23.4 56.3505 23.0989 55.7536 22.5886 55.3765L20.3886 53.7508C19.0684 52.7752 17.2 53.7177 17.2 55.3592V62.8249C17.2 63.5204 17.5613 64.1659 18.1541 64.5296L43.7616 80.2395C44.3993 80.6308 45.2021 80.6333 45.8424 80.2462L71.8349 64.5279C72.4339 64.1656 72.8 63.5165 72.8 62.8164V43.4794C72.8 41.9453 71.144 40.9824 69.8107 41.7412L45.8202 55.3954C45.1903 55.754 44.4157 55.7436 43.7956 55.3684L24.3646 43.6116C23.7658 43.2493 23.4 42.6003 23.4 41.9004V39.0288C23.4 38.3007 23.7956 37.6301 24.433 37.2781L44.4029 26.2479C45.021 25.9065 45.7733 25.9164 46.3823 26.2738Z" fill="#CD5954"/>
<path d="M4.3999 28.2868L44.1999 3.98401L84.1999 27.8884V71.9123L45.3999 95.8167L4.3999 71.9123H13.9999L45.3999 88.8446L78.7999 68.3266V31.2748L44.1999 10.7569L10.3999 31.2748L4.3999 28.2868Z" fill="#CD5954"/>
<path d="M10.4416 31.1012L4.3999 28.2867V72.1115H14.3999L10.4416 68.895V31.1012Z" fill="#CD5954"/>
</g>
<defs>
<clipPath id="clip0_83_25">
<rect width="270" height="100" fill="white"/>
</clipPath>
</defs>
</svg>
