<svg width="600" height="383" viewBox="0 0 600 383" fill="none" xmlns="http://www.w3.org/2000/svg">
<path d="M87.8664 342.193C205.029 395.713 394.971 395.713 512.134 342.193C629.296 288.673 629.282 201.895 512.134 148.375C394.985 94.8549 205.029 94.8549 87.8664 148.375C-29.2958 201.895 -29.2818 288.71 87.8664 342.193Z" fill="#F5F5F5"/>
<path d="M436.501 250.719C457.755 259.584 492.222 259.584 513.406 250.719C534.59 241.854 534.66 227.487 513.406 218.634C492.152 209.781 457.685 209.781 436.501 218.634C415.317 227.487 415.247 241.866 436.501 250.719Z" fill="#E0E0E0"/>
<path d="M183.859 46.9351C183.694 46.9351 183.536 46.8788 183.419 46.7783C183.301 46.6777 183.233 46.5409 183.229 46.3971V24.3875C183.229 15.2046 189.004 4.82348 196.094 1.25305C199.058 -0.238711 202.008 -0.4099 204.4 0.800625C207.685 2.45134 209.559 6.43751 209.559 11.7198V33.5948C209.561 33.666 209.546 33.7367 209.516 33.8027C209.486 33.8687 209.441 33.9287 209.383 33.979C209.326 34.0293 209.257 34.0689 209.182 34.0953C209.106 34.1218 209.025 34.1345 208.944 34.1329C208.862 34.1345 208.78 34.1218 208.704 34.0955C208.628 34.0692 208.558 34.0298 208.5 33.9797C208.441 33.9295 208.395 33.8697 208.363 33.8036C208.331 33.7375 208.315 33.6665 208.315 33.5948V11.7565C208.315 6.86548 206.665 3.19721 203.77 1.77882C201.757 0.763937 199.324 0.922898 196.779 2.23124C190.039 5.64272 184.544 15.5959 184.544 24.4242V46.4337C184.539 46.5067 184.517 46.578 184.479 46.6432C184.441 46.7085 184.389 46.7664 184.325 46.8133C184.26 46.8602 184.186 46.8952 184.106 46.9161C184.026 46.9371 183.942 46.9435 183.859 46.9351Z" fill="#455A64"/>
<path d="M256.5 124.286L253.745 20.8046L233.61 10.6558L231.219 111.533L256.5 124.286Z" fill="#CD5954"/>
<g opacity="0.2">
<path d="M256.5 124.286L253.745 20.8046L233.61 10.6558L231.219 111.533L256.5 124.286Z" fill="black"/>
</g>
<path d="M162.828 46.3968L160.451 147.262L231.218 111.533L233.609 10.6558L162.828 46.3968Z" fill="#CD5954"/>
<g opacity="0.4">
<path d="M162.828 46.3968L160.451 147.262L231.218 111.533L233.609 10.6558L162.828 46.3968Z" fill="black"/>
</g>
<path d="M182.977 56.534L185.718 160.016L256.499 124.287L253.744 20.8052L182.977 56.534Z" fill="#CD5954"/>
<path d="M162.828 46.397L182.978 56.5336L185.718 160.015L160.451 147.262L162.828 46.397Z" fill="#CD5954"/>
<g opacity="0.2">
<path d="M162.828 46.397L182.978 56.5336L185.718 160.015L160.451 147.262L162.828 46.397Z" fill="black"/>
</g>
<path opacity="0.2" d="M185.718 160.015L175.497 144.645L173.665 82.0645L171.847 143.728L160.451 147.262L185.718 160.015Z" fill="black"/>
<g opacity="0.2">
<path d="M204.049 53.9415C203.314 54.3608 202.701 54.9258 202.261 55.5907C201.822 56.2557 201.567 57.0018 201.519 57.7687C201.519 59.1749 202.651 59.7618 204.049 59.0648C204.796 58.6383 205.416 58.0617 205.856 57.3831C206.297 56.7046 206.545 55.9438 206.58 55.1642C206.58 53.7581 205.448 53.1711 204.049 53.9415Z" fill="black"/>
</g>
<g opacity="0.2">
<path d="M229.135 41.1148C228.4 41.5342 227.787 42.0992 227.347 42.7641C226.908 43.429 226.653 44.1751 226.604 44.942C226.604 46.3604 227.737 46.9351 229.135 46.2382C229.869 45.8174 230.479 45.2519 230.916 44.587C231.353 43.9222 231.605 43.1768 231.652 42.411C231.652 40.9926 230.534 40.4178 229.135 41.1148Z" fill="black"/>
</g>
<path d="M204.05 56.9862C203.958 56.9938 203.865 56.9834 203.778 56.956C203.691 56.9285 203.612 56.8847 203.546 56.8274C203.481 56.7702 203.43 56.7011 203.399 56.625C203.368 56.5489 203.356 56.4676 203.365 56.3871V34.3775C203.365 25.2069 209.139 14.8135 216.215 11.2553C219.193 9.75127 222.144 9.59232 224.521 10.7906C227.807 12.4536 229.694 16.4397 229.694 21.722V43.6704C229.708 43.7487 229.702 43.8286 229.677 43.9047C229.652 43.9808 229.608 44.0512 229.549 44.1112C229.49 44.1712 229.417 44.2194 229.334 44.2524C229.252 44.2854 229.163 44.3025 229.072 44.3025C228.981 44.3025 228.892 44.2854 228.81 44.2524C228.727 44.2194 228.654 44.1712 228.595 44.1112C228.536 44.0512 228.493 43.9808 228.467 43.9047C228.442 43.8286 228.436 43.7487 228.45 43.6704V21.8076C228.45 16.9166 226.8 13.2484 223.905 11.8177C221.892 10.8028 219.445 10.9618 216.914 12.2824C210.174 15.6816 204.679 25.6348 204.679 34.4631V56.4727C204.668 56.6121 204.597 56.7428 204.48 56.8382C204.364 56.9336 204.21 56.9865 204.05 56.9862Z" fill="#455A64"/>
<path d="M94.2989 100.039C94.2298 100.041 94.161 100.03 94.0966 100.008C94.0322 99.9863 93.9735 99.9532 93.924 99.911C93.8745 99.8689 93.8351 99.8184 93.8082 99.7627C93.7814 99.707 93.7676 99.6472 93.7676 99.5867V81.2454C93.7676 73.5543 98.6056 64.8728 104.534 61.8771C105.55 61.2634 106.738 60.9038 107.97 60.8371C109.202 60.7703 110.431 60.9988 111.526 61.498C114.322 62.8797 115.86 66.2178 115.86 70.6442V88.9855C115.84 89.0942 115.776 89.1931 115.68 89.2645C115.584 89.3358 115.462 89.375 115.336 89.375C115.21 89.375 115.088 89.3358 114.992 89.2645C114.896 89.1931 114.832 89.0942 114.812 88.9855V70.6442C114.812 66.548 113.413 63.5033 111.008 62.2806C110.075 61.8706 109.031 61.6904 107.989 61.7594C106.947 61.8283 105.946 62.1437 105.094 62.6718C99.5005 65.5208 94.8582 73.8478 94.8582 81.2454V99.5867C94.8585 99.6494 94.8438 99.7113 94.8153 99.7688C94.7867 99.8262 94.7448 99.8778 94.6922 99.9203C94.6396 99.9629 94.5775 99.9954 94.5098 100.016C94.4421 100.036 94.3703 100.044 94.2989 100.039Z" fill="#455A64"/>
<path d="M155.138 164.796L152.831 78.1641L135.967 69.6782L133.968 154.122L155.138 164.796Z" fill="#CD5954"/>
<g opacity="0.2">
<path d="M155.138 164.796L152.831 78.1641L135.967 69.6782L133.968 154.122L155.138 164.796Z" fill="black"/>
</g>
<path d="M76.7217 99.5868L74.7222 184.03L133.967 154.121L135.967 69.6782L76.7217 99.5868Z" fill="#CD5954"/>
<g opacity="0.4">
<path d="M76.7217 99.5868L74.7222 184.03L133.967 154.121L135.967 69.6782L76.7217 99.5868Z" fill="black"/>
</g>
<path d="M93.5854 108.072L95.8786 194.716L155.138 164.796L152.831 78.1636L93.5854 108.072Z" fill="#CD5954"/>
<path d="M76.7217 99.5869L93.585 108.073L95.8782 194.717L74.7222 184.03L76.7217 99.5869Z" fill="#CD5954"/>
<g opacity="0.2">
<path d="M76.7217 99.5869L93.585 108.073L95.8782 194.717L74.7222 184.03L76.7217 99.5869Z" fill="black"/>
</g>
<path opacity="0.2" d="M95.8782 194.717L87.3207 181.842L85.7966 129.459L84.2585 181.071L74.7222 184.03L95.8782 194.717Z" fill="black"/>
<g opacity="0.2">
<path d="M111.218 105.847C110.604 106.202 110.093 106.678 109.727 107.236C109.36 107.795 109.148 108.42 109.106 109.063C109.106 110.286 110.057 110.726 111.218 110.139C111.839 109.792 112.356 109.32 112.726 108.763C113.095 108.206 113.307 107.579 113.343 106.935C113.343 105.749 112.392 105.297 111.218 105.847Z" fill="#455A64"/>
</g>
<g opacity="0.2">
<path d="M132.22 95.1729C131.605 95.5241 131.093 95.9972 130.726 96.5538C130.359 97.1105 130.147 97.735 130.108 98.3765C130.108 99.5993 131.059 100.039 132.22 99.4648C132.837 99.1151 133.35 98.6424 133.717 98.0854C134.084 97.5285 134.294 96.9032 134.331 96.2612C134.331 95.0629 133.45 94.586 132.22 95.1729Z" fill="#455A64"/>
</g>
<path d="M111.218 108.452C111.081 108.449 110.952 108.4 110.856 108.316C110.759 108.232 110.704 108.119 110.7 108V89.5971C110.7 81.9182 115.524 73.2366 121.467 70.2409C122.482 69.6266 123.669 69.2656 124.901 69.1967C126.132 69.1278 127.362 69.3535 128.458 69.8496C131.255 71.2436 132.779 74.5817 132.779 78.9958V97.3371C132.781 97.397 132.769 97.4565 132.744 97.5122C132.718 97.5679 132.68 97.6184 132.632 97.6608C132.583 97.7031 132.526 97.7364 132.462 97.7585C132.398 97.7806 132.33 97.7912 132.262 97.7895C132.125 97.7895 131.993 97.7418 131.896 97.657C131.799 97.5722 131.744 97.4571 131.744 97.3371V78.9958C131.744 74.9118 130.346 71.8672 127.927 70.6444C126.997 70.2289 125.955 70.0455 124.914 70.1145C123.873 70.1836 122.874 70.5023 122.026 71.0357C116.433 73.8847 111.791 82.2117 111.791 89.5971V108C111.789 108.063 111.773 108.125 111.743 108.182C111.713 108.24 111.669 108.291 111.616 108.334C111.562 108.376 111.499 108.408 111.431 108.429C111.362 108.449 111.29 108.457 111.218 108.452Z" fill="#455A64"/>
<path d="M82.9443 238.663L90.0196 235.496C90.0196 235.496 88.8311 223.794 86.4261 212.105C83.1121 196.025 68.3462 180.24 52.0562 180.717C35.7662 181.193 39.5975 191.856 46.9944 197.309C51.6787 200.77 77.9804 217.79 82.9443 238.663Z" fill="#CD5954"/>
<g opacity="0.1">
<path d="M82.9443 238.663L90.0196 235.496C90.0196 235.496 88.8311 223.794 86.4261 212.105C83.1121 196.025 68.3462 180.24 52.0562 180.717C35.7662 181.193 39.5975 191.856 46.9944 197.309C51.6787 200.77 77.9804 217.79 82.9443 238.663Z" fill="black"/>
</g>
<path d="M86.4258 237.354H86.3419C86.1093 237.333 85.8957 237.232 85.7467 237.074C85.5977 236.917 85.5253 236.714 85.5449 236.511C87.4325 220.236 69.3108 191.464 48.1548 184.531C47.936 184.46 47.7587 184.315 47.6617 184.13C47.5647 183.944 47.5559 183.732 47.6374 183.541C47.7191 183.35 47.8843 183.195 48.0966 183.11C48.309 183.025 48.5512 183.017 48.77 183.088C70.5273 190.242 89.2363 219.844 87.3067 236.718C87.2729 236.9 87.1649 237.064 87.0029 237.181C86.8409 237.298 86.6358 237.36 86.4258 237.354Z" fill="white"/>
<path d="M87.8805 252.406L90.0199 239.971C88.4391 231.891 83.8004 224.51 76.8481 219.013C65.1025 209.597 48.5888 205.403 37.5563 208.265C26.5238 211.126 28.1179 220.602 37.8499 223.806C47.582 227.009 60.7259 226.863 72.807 234.224C81.0429 239.347 88.286 248.077 87.8805 252.406Z" fill="#CD5954"/>
<path d="M88.7051 244.69C88.5006 244.688 88.3037 244.622 88.1481 244.506C87.9924 244.39 87.8878 244.231 87.8521 244.055C84.7339 228.721 57.4814 212.63 37.5139 214.33C37.3996 214.341 37.2838 214.333 37.1734 214.305C37.063 214.276 36.9602 214.229 36.8714 214.165C36.7826 214.101 36.7095 214.022 36.6565 213.932C36.6035 213.843 36.5717 213.745 36.5631 213.645C36.5495 213.544 36.5592 213.442 36.5914 213.345C36.6237 213.248 36.6779 213.157 36.7509 213.078C36.8239 213 36.9142 212.935 37.0164 212.887C37.1187 212.839 37.2308 212.81 37.3461 212.801C58.4322 210.967 86.286 227.474 89.544 243.786C89.5662 243.884 89.5657 243.986 89.5425 244.085C89.5192 244.183 89.4737 244.277 89.4086 244.36C89.3435 244.443 89.2602 244.514 89.1634 244.569C89.0666 244.623 88.9583 244.661 88.8449 244.678L88.7051 244.69Z" fill="white"/>
<path d="M385.253 157.423L352.841 141.062L311.913 120.398H311.816C308.138 118.613 305.845 114.688 305.845 109.075C305.845 103.695 303.747 99.8679 300.35 97.9849L328.315 112.095L332.734 114.321L373.606 134.949L374.053 135.181C377.563 137.015 379.73 140.891 379.73 146.357C379.73 151.823 381.8 155.552 385.253 157.423Z" fill="#CD5954"/>
<g opacity="0.1">
<path d="M385.253 157.423L352.841 141.062L311.913 120.398H311.816C308.138 118.613 305.845 114.688 305.845 109.075C305.845 103.695 303.747 99.8679 300.35 97.9849L328.315 112.095L332.734 114.321L373.606 134.949L374.053 135.181C377.563 137.015 379.73 140.891 379.73 146.357C379.73 151.823 381.8 155.552 385.253 157.423Z" fill="black"/>
</g>
<path d="M419.441 117.61V126.231C419.441 137.321 410.548 150.796 399.571 156.335C394.16 159.074 389.238 159.367 385.659 157.631L385.253 157.423C381.799 155.552 379.66 151.713 379.66 146.308C379.66 140.904 377.493 136.966 373.983 135.132L373.535 134.9L332.664 114.272C340.214 107.608 345.584 97.5571 345.584 88.9489V80.3896L419.441 117.61Z" fill="#CD5954"/>
<path d="M373.563 134.9C369.984 133.249 365.174 133.567 359.804 136.269C357.24 137.587 354.888 139.199 352.813 141.062C345.262 147.714 339.907 157.765 339.907 166.373C339.907 177.464 331 190.938 320.023 196.49L300.14 206.528L226.324 169.247L246.208 159.208C257.184 153.669 266.091 140.182 266.091 129.092C266.091 118.001 274.984 104.526 285.975 98.9873C291.372 96.2606 296.28 95.9671 299.86 97.6912L300.335 97.9235L328.301 112.034L332.72 114.26L373.563 134.9Z" fill="#CD5954"/>
<g opacity="0.4">
<path d="M373.563 134.9C369.984 133.249 365.174 133.567 359.804 136.269C357.24 137.587 354.888 139.199 352.813 141.062C345.262 147.714 339.907 157.765 339.907 166.373C339.907 177.464 331 190.938 320.023 196.49L300.14 206.528L226.324 169.247L246.208 159.208C257.184 153.669 266.091 140.182 266.091 129.092C266.091 118.001 274.984 104.526 285.975 98.9873C291.372 96.2606 296.28 95.9671 299.86 97.6912L300.335 97.9235L328.301 112.034L332.72 114.26L373.563 134.9Z" fill="white"/>
</g>
<path d="M317.143 174.443C316.681 171.753 314.178 170.775 311.158 172.303L300.168 177.842L277.795 189.128C273.708 191.088 269.77 193.277 266.008 195.682C260.229 200.021 254.865 204.765 249.969 209.866C240.181 219.648 230.393 230.262 220.605 235.202L169.862 260.818C168.1 261.824 166.634 263.178 165.582 264.771C164.53 266.364 163.922 268.152 163.807 269.989V286.435C163.807 289.565 166.142 290.971 169.148 289.81C167.337 290.486 165.379 290.808 163.41 290.753C161.442 290.698 159.511 290.267 157.752 289.492L90.3832 255.463C88.6214 254.457 87.1551 253.103 86.1032 251.51C85.0513 249.917 84.4434 248.129 84.3286 246.292V229.846C84.4412 228.009 85.0482 226.22 86.1003 224.627C87.1524 223.033 88.6198 221.679 90.3832 220.675L141.127 194.998C150.915 190.107 160.703 179.444 170.491 169.674C175.407 164.584 180.79 159.853 186.585 155.527C190.344 153.127 194.277 150.942 198.359 148.985L220.731 137.699L231.708 132.148C233.584 131.316 235.658 130.882 237.762 130.882C239.866 130.882 241.941 131.316 243.817 132.148L311.228 166.19C312.827 167.12 314.18 168.337 315.2 169.76C316.22 171.183 316.882 172.779 317.143 174.443Z" fill="#455A64"/>
<path d="M169.526 272.471C169.526 272.471 84.3288 229.834 84.3428 229.467C84.3428 229.467 84.3428 229.712 84.3428 229.834V246.28C84.4554 248.118 85.0624 249.906 86.1145 251.499C87.1665 253.093 88.634 254.447 90.3973 255.451L157.809 289.492C159.685 290.325 161.759 290.758 163.863 290.758C165.967 290.758 168.041 290.325 169.918 289.492L172.798 288.037L169.526 272.471Z" fill="#37474F"/>
<path d="M311.144 172.291L277.823 189.129C273.739 191.088 269.802 193.273 266.036 195.67C250.906 206.357 235.777 227.572 220.647 235.19L169.904 260.868C168.14 261.872 166.673 263.225 165.621 264.819C164.569 266.412 163.962 268.201 163.849 270.038V286.484C163.849 289.859 166.562 291.228 169.904 289.541L311.13 218.23C312.892 217.225 314.358 215.87 315.41 214.277C316.462 212.684 317.07 210.896 317.185 209.059V175.348C317.213 171.973 314.5 170.604 311.144 172.291Z" fill="#263238"/>
<path d="M266.469 183.394C262.382 185.353 258.445 187.542 254.682 189.948C251.769 192.049 249.009 194.307 246.418 196.71C245.851 197.188 245.125 197.499 244.345 197.598C243.565 197.696 242.769 197.578 242.069 197.26L190.095 171.02C189.789 170.889 189.523 170.695 189.322 170.454C189.12 170.213 188.989 169.933 188.94 169.638C188.89 169.343 188.924 169.041 189.037 168.76C189.151 168.479 189.341 168.226 189.592 168.024C192.193 165.621 194.962 163.363 197.884 161.262C201.643 158.862 205.576 156.677 209.657 154.72C216.019 151.492 223.151 147.885 229.583 144.657C230.335 144.326 231.166 144.153 232.009 144.153C232.851 144.153 233.682 144.326 234.435 144.657L286.395 170.885C286.685 170.974 286.935 171.14 287.113 171.359C287.29 171.578 287.386 171.839 287.386 172.108C287.386 172.376 287.29 172.638 287.113 172.857C286.935 173.076 286.685 173.242 286.395 173.331L266.469 183.394Z" fill="#37474F"/>
<path d="M234.434 146.87C233.682 146.538 232.851 146.365 232.008 146.365C231.166 146.365 230.335 146.538 229.582 146.87L209.657 156.946C205.575 158.903 201.643 161.088 197.883 163.488C194.965 165.588 192.196 167.842 189.592 170.237L189.34 170.518C189.548 170.75 189.804 170.945 190.095 171.093L242.069 197.333C242.768 197.652 243.565 197.77 244.345 197.671C245.125 197.572 245.85 197.262 246.418 196.783C249.009 194.381 251.769 192.123 254.682 190.021C258.444 187.616 262.382 185.427 266.469 183.467L286.395 173.404L286.632 173.257L286.395 173.111L234.434 146.87Z" fill="white"/>
<path d="M158.172 278.206C158.172 279.796 156.774 280.395 155.138 279.551L93.0403 248.2C92.1766 247.725 91.453 247.08 90.9283 246.315C90.4035 245.55 90.0923 244.688 90.02 243.798C90.02 242.208 91.4183 241.609 93.0403 242.453L155.138 273.817C156.003 274.288 156.728 274.932 157.255 275.694C157.782 276.457 158.096 277.318 158.172 278.206Z" fill="#263238"/>
<path d="M180.545 221.58V219.404L177.664 219.22L171.204 215.931C170.266 215.515 169.229 215.299 168.177 215.299C167.125 215.299 166.088 215.515 165.15 215.931L160.787 218.132L158.592 217.985V220.101C158.614 220.437 158.742 220.761 158.961 221.037C159.181 221.313 159.484 221.531 159.836 221.666L167.974 225.774C168.913 226.19 169.95 226.407 171.002 226.407C172.053 226.407 173.091 226.19 174.029 225.774L179.342 223.097C179.681 222.962 179.975 222.753 180.193 222.489C180.411 222.225 180.547 221.916 180.587 221.593L180.545 221.58Z" fill="#E0E0E0"/>
<path d="M171.204 213.779L179.356 217.888C179.722 217.996 180.039 218.202 180.264 218.476C180.488 218.75 180.609 219.079 180.609 219.416C180.609 219.754 180.488 220.082 180.264 220.356C180.039 220.631 179.722 220.836 179.356 220.945L174.043 223.622C173.105 224.038 172.067 224.255 171.016 224.255C169.964 224.255 168.927 224.038 167.988 223.622L159.85 219.514C159.485 219.406 159.168 219.2 158.943 218.926C158.718 218.652 158.598 218.323 158.598 217.986C158.598 217.648 158.718 217.32 158.943 217.045C159.168 216.771 159.485 216.566 159.85 216.457L165.15 213.779C166.088 213.364 167.125 213.147 168.177 213.147C169.229 213.147 170.266 213.364 171.204 213.779Z" fill="#F5F5F5"/>
<path d="M159.248 210.796V208.619L156.368 208.436L149.852 205.147C148.913 204.731 147.876 204.514 146.824 204.514C145.773 204.514 144.735 204.731 143.797 205.147L139.435 207.348L137.239 207.213V209.316C137.266 209.651 137.398 209.973 137.62 210.247C137.842 210.52 138.146 210.736 138.498 210.869L146.636 214.978C147.572 215.399 148.61 215.619 149.663 215.619C150.716 215.619 151.754 215.399 152.69 214.978L157.99 212.3C158.333 212.169 158.631 211.961 158.852 211.697C159.073 211.432 159.21 211.121 159.248 210.796Z" fill="#E0E0E0"/>
<path d="M149.852 202.994L157.99 207.115C158.355 207.224 158.672 207.429 158.897 207.703C159.122 207.978 159.243 208.306 159.243 208.644C159.243 208.981 159.122 209.31 158.897 209.584C158.672 209.858 158.355 210.064 157.99 210.172L152.69 212.899C151.752 213.315 150.715 213.531 149.663 213.531C148.611 213.531 147.574 213.315 146.636 212.899L138.498 208.778C138.133 208.67 137.815 208.464 137.591 208.19C137.366 207.916 137.245 207.587 137.245 207.25C137.245 206.912 137.366 206.584 137.591 206.309C137.815 206.035 138.133 205.83 138.498 205.721L143.797 203.043C144.731 202.62 145.766 202.395 146.818 202.386C147.87 202.378 148.909 202.586 149.852 202.994Z" fill="#F5F5F5"/>
<path d="M201.84 232.328V230.152L199.043 229.968L192.513 226.679C191.575 226.264 190.538 226.047 189.486 226.047C188.434 226.047 187.397 226.264 186.459 226.679L182.11 228.88L179.901 228.734V230.849C179.924 231.184 180.053 231.508 180.272 231.784C180.492 232.06 180.794 232.278 181.145 232.414L189.297 236.522C190.236 236.938 191.273 237.155 192.325 237.155C193.377 237.155 194.414 236.938 195.352 236.522L200.651 233.845C200.992 233.712 201.287 233.503 201.506 233.239C201.724 232.975 201.859 232.665 201.896 232.341L201.84 232.328Z" fill="#E0E0E0"/>
<path d="M192.459 224.527L200.597 228.636C200.962 228.744 201.279 228.95 201.504 229.224C201.728 229.498 201.849 229.827 201.849 230.164C201.849 230.502 201.728 230.83 201.504 231.105C201.279 231.379 200.962 231.584 200.597 231.693L195.297 234.371C194.359 234.786 193.322 235.003 192.27 235.003C191.218 235.003 190.181 234.786 189.243 234.371L181.091 230.262C180.725 230.154 180.408 229.948 180.183 229.674C179.959 229.4 179.838 229.071 179.838 228.734C179.838 228.396 179.959 228.068 180.183 227.793C180.408 227.519 180.725 227.314 181.091 227.205L186.404 224.527C187.342 224.112 188.379 223.895 189.431 223.895C190.483 223.895 191.52 224.112 192.459 224.527Z" fill="#F5F5F5"/>
<path d="M197.589 212.984V210.808L194.709 210.624L188.193 207.335C187.254 206.919 186.217 206.703 185.165 206.703C184.113 206.703 183.076 206.919 182.138 207.335L177.775 209.536L175.58 209.389V211.505C175.604 211.84 175.732 212.164 175.952 212.44C176.171 212.716 176.473 212.934 176.825 213.07L184.977 217.178C185.915 217.594 186.952 217.811 188.004 217.811C189.056 217.811 190.093 217.594 191.031 217.178L196.331 214.5C196.671 214.366 196.965 214.156 197.186 213.893C197.406 213.629 197.545 213.321 197.589 212.996V212.984Z" fill="#E0E0E0"/>
<path d="M188.193 205.184L196.331 209.292C196.696 209.4 197.014 209.606 197.238 209.88C197.463 210.154 197.584 210.483 197.584 210.82C197.584 211.158 197.463 211.487 197.238 211.761C197.014 212.035 196.696 212.24 196.331 212.349L191.032 215.027C190.093 215.442 189.056 215.659 188.004 215.659C186.952 215.659 185.915 215.442 184.977 215.027L176.797 210.918C176.432 210.81 176.115 210.604 175.89 210.33C175.665 210.056 175.544 209.727 175.544 209.39C175.544 209.053 175.665 208.724 175.89 208.45C176.115 208.175 176.432 207.97 176.797 207.861L182.111 205.184C183.052 204.764 184.095 204.545 185.152 204.545C186.209 204.545 187.251 204.764 188.193 205.184Z" fill="#F5F5F5"/>
<path d="M176.294 202.2V200.023L173.414 199.84L166.898 196.551C165.959 196.135 164.922 195.918 163.87 195.918C162.819 195.918 161.781 196.135 160.843 196.551L156.48 198.752L154.285 198.617V200.672C154.307 201.007 154.435 201.332 154.655 201.608C154.874 201.884 155.177 202.102 155.53 202.237L163.682 206.345C164.62 206.761 165.657 206.978 166.709 206.978C167.761 206.978 168.798 206.761 169.736 206.345L175.036 203.667C175.377 203.536 175.673 203.328 175.892 203.063C176.11 202.799 176.244 202.488 176.28 202.163L176.294 202.2Z" fill="#E0E0E0"/>
<path d="M166.897 194.399L175.035 198.519C175.401 198.628 175.718 198.834 175.943 199.108C176.167 199.382 176.288 199.711 176.288 200.048C176.288 200.385 176.167 200.714 175.943 200.988C175.718 201.262 175.401 201.468 175.035 201.576L169.806 204.254C168.868 204.67 167.83 204.887 166.779 204.887C165.727 204.887 164.69 204.67 163.751 204.254L155.599 200.133C155.234 200.025 154.917 199.819 154.692 199.545C154.467 199.271 154.347 198.942 154.347 198.605C154.347 198.268 154.467 197.939 154.692 197.665C154.917 197.391 155.234 197.185 155.599 197.077L160.913 194.399C161.842 193.993 162.866 193.782 163.905 193.782C164.944 193.782 165.968 193.993 166.897 194.399Z" fill="#F5F5F5"/>
<path d="M218.886 223.732V221.556L216.005 221.372L209.489 218.083C208.551 217.667 207.514 217.451 206.462 217.451C205.41 217.451 204.373 217.667 203.435 218.083L199.072 220.284L196.877 220.137V222.253C196.905 222.589 197.037 222.912 197.258 223.188C197.48 223.463 197.783 223.681 198.135 223.818L206.273 227.926C207.212 228.342 208.249 228.559 209.301 228.559C210.353 228.559 211.39 228.342 212.328 227.926L217.641 225.248C217.981 225.114 218.274 224.905 218.492 224.641C218.71 224.377 218.846 224.068 218.886 223.744V223.732Z" fill="#E0E0E0"/>
<path d="M209.489 215.931L217.641 220.04C218.006 220.148 218.323 220.354 218.548 220.628C218.772 220.902 218.893 221.231 218.893 221.568C218.893 221.905 218.772 222.234 218.548 222.508C218.323 222.782 218.006 222.988 217.641 223.097L212.327 225.774C211.389 226.19 210.352 226.407 209.3 226.407C208.248 226.407 207.211 226.19 206.273 225.774L198.134 221.666C197.769 221.558 197.452 221.352 197.227 221.078C197.003 220.804 196.882 220.475 196.882 220.138C196.882 219.8 197.003 219.471 197.227 219.197C197.452 218.923 197.769 218.717 198.134 218.609L203.434 215.931C204.372 215.515 205.409 215.299 206.461 215.299C207.513 215.299 208.55 215.515 209.489 215.931Z" fill="#F5F5F5"/>
<path d="M163.513 230.213V228.036L160.633 227.853L154.117 224.564C153.181 224.142 152.143 223.922 151.09 223.922C150.037 223.922 148.999 224.142 148.062 224.564L143.7 226.765L141.504 226.618V228.794C141.531 229.129 141.661 229.452 141.88 229.727C142.099 230.003 142.399 230.221 142.749 230.36L150.901 234.468C151.839 234.884 152.876 235.1 153.928 235.1C154.98 235.1 156.017 234.884 156.955 234.468L162.255 231.79C162.595 231.656 162.89 231.446 163.11 231.183C163.331 230.919 163.47 230.61 163.513 230.286V230.213Z" fill="#E0E0E0"/>
<path d="M154.117 222.412L162.255 226.52C162.62 226.629 162.937 226.834 163.162 227.108C163.387 227.382 163.507 227.711 163.507 228.049C163.507 228.386 163.387 228.715 163.162 228.989C162.937 229.263 162.62 229.469 162.255 229.577L156.955 232.255C156.017 232.671 154.98 232.887 153.928 232.887C152.876 232.887 151.839 232.671 150.901 232.255L142.749 228.146C142.383 228.038 142.066 227.832 141.842 227.558C141.617 227.284 141.496 226.955 141.496 226.618C141.496 226.281 141.617 225.952 141.842 225.678C142.066 225.404 142.383 225.198 142.749 225.09L148.062 222.412C149.001 221.996 150.038 221.779 151.09 221.779C152.141 221.779 153.178 221.996 154.117 222.412Z" fill="#F5F5F5"/>
<path d="M142.204 219.428V217.252L139.407 217.069L132.877 213.779C131.939 213.364 130.902 213.147 129.85 213.147C128.798 213.147 127.761 213.364 126.823 213.779L122.474 215.98L120.265 215.834V217.949C120.288 218.285 120.417 218.608 120.636 218.884C120.856 219.16 121.158 219.378 121.509 219.514L129.661 223.622C130.599 224.038 131.637 224.255 132.688 224.255C133.74 224.255 134.777 224.038 135.716 223.622L141.015 220.945C141.356 220.812 141.651 220.604 141.869 220.339C142.088 220.075 142.223 219.765 142.26 219.441L142.204 219.428Z" fill="#E0E0E0"/>
<path d="M132.807 211.677L140.959 215.785C141.324 215.893 141.641 216.099 141.866 216.373C142.091 216.647 142.212 216.976 142.212 217.313C142.212 217.651 142.091 217.98 141.866 218.254C141.641 218.528 141.324 218.734 140.959 218.842L135.659 221.459C134.721 221.874 133.684 222.091 132.632 222.091C131.58 222.091 130.543 221.874 129.605 221.459L121.453 217.35C121.088 217.242 120.77 217.036 120.546 216.762C120.321 216.488 120.2 216.159 120.2 215.822C120.2 215.484 120.321 215.156 120.546 214.882C120.77 214.607 121.088 214.402 121.453 214.293L126.752 211.615C127.696 211.209 128.736 211.003 129.788 211.014C130.84 211.024 131.874 211.251 132.807 211.677Z" fill="#F5F5F5"/>
<path d="M184.809 241.022V238.846L181.929 238.662L175.399 235.312C174.463 234.89 173.425 234.67 172.372 234.67C171.319 234.67 170.281 234.89 169.344 235.312L164.982 237.513L162.814 237.354V239.469C162.844 239.805 162.976 240.128 163.198 240.403C163.419 240.679 163.721 240.897 164.073 241.034L172.211 245.143C173.149 245.559 174.186 245.775 175.238 245.775C176.29 245.775 177.327 245.559 178.265 245.143L183.565 242.465C183.905 242.33 184.2 242.121 184.42 241.858C184.641 241.594 184.78 241.285 184.823 240.961L184.809 241.022Z" fill="#E0E0E0"/>
<path d="M175.399 233.16L183.537 237.268C183.902 237.377 184.22 237.582 184.444 237.856C184.669 238.131 184.79 238.459 184.79 238.797C184.79 239.134 184.669 239.463 184.444 239.737C184.22 240.011 183.902 240.217 183.537 240.325L178.196 243.003C177.257 243.419 176.22 243.635 175.168 243.635C174.117 243.635 173.079 243.419 172.141 243.003L164.003 238.895C163.638 238.786 163.321 238.58 163.096 238.306C162.871 238.032 162.75 237.703 162.75 237.366C162.75 237.029 162.871 236.7 163.096 236.426C163.321 236.152 163.638 235.946 164.003 235.838L169.303 233.16C170.246 232.738 171.291 232.518 172.351 232.518C173.411 232.518 174.455 232.738 175.399 233.16Z" fill="#F5F5F5"/>
<path d="M146.454 238.797V236.62L143.574 236.437L137.058 233.135C136.12 232.72 135.082 232.503 134.031 232.503C132.979 232.503 131.942 232.72 131.003 233.135L126.641 235.336L124.445 235.202V237.354C124.473 237.689 124.604 238.01 124.826 238.284C125.048 238.558 125.352 238.773 125.704 238.907L133.842 243.027C134.78 243.443 135.817 243.66 136.869 243.66C137.921 243.66 138.958 243.443 139.896 243.027L145.21 240.35C145.551 240.214 145.845 240.003 146.064 239.737C146.282 239.471 146.417 239.159 146.454 238.833V238.797Z" fill="#E0E0E0"/>
<path d="M137.057 230.983L145.209 235.104C145.575 235.212 145.892 235.418 146.117 235.692C146.341 235.966 146.462 236.295 146.462 236.632C146.462 236.969 146.341 237.298 146.117 237.572C145.892 237.846 145.575 238.052 145.209 238.161L139.896 240.838C138.958 241.254 137.921 241.471 136.869 241.471C135.817 241.471 134.78 241.254 133.841 240.838L125.703 236.73C125.338 236.622 125.021 236.416 124.796 236.142C124.572 235.868 124.451 235.539 124.451 235.201C124.451 234.864 124.572 234.535 124.796 234.261C125.021 233.987 125.338 233.781 125.703 233.673L131.003 230.983C131.941 230.567 132.978 230.351 134.03 230.351C135.082 230.351 136.119 230.567 137.057 230.983Z" fill="#F5F5F5"/>
<path d="M125.158 228.012V225.835L122.278 225.652L115.762 222.363C114.824 221.947 113.787 221.73 112.735 221.73C111.683 221.73 110.646 221.947 109.707 222.363L105.345 224.564L103.149 224.417V226.532C103.173 226.868 103.301 227.191 103.521 227.467C103.74 227.744 104.042 227.961 104.394 228.098L112.546 232.206C113.484 232.622 114.521 232.838 115.573 232.838C116.625 232.838 117.662 232.622 118.6 232.206L123.9 229.528C124.24 229.394 124.535 229.184 124.755 228.921C124.976 228.657 125.115 228.348 125.158 228.024V228.012Z" fill="#E0E0E0"/>
<path d="M115.762 220.235L123.9 224.344C124.266 224.452 124.583 224.658 124.807 224.932C125.032 225.206 125.153 225.535 125.153 225.872C125.153 226.209 125.032 226.538 124.807 226.812C124.583 227.087 124.266 227.292 123.9 227.401L118.601 230.017C117.663 230.433 116.625 230.65 115.574 230.65C114.522 230.65 113.485 230.433 112.546 230.017L104.394 225.909C104.029 225.801 103.712 225.595 103.487 225.321C103.262 225.047 103.142 224.718 103.142 224.38C103.142 224.043 103.262 223.714 103.487 223.44C103.712 223.166 104.029 222.96 104.394 222.852L109.68 220.235C110.622 219.816 111.664 219.597 112.721 219.597C113.778 219.597 114.82 219.816 115.762 220.235Z" fill="#F5F5F5"/>
<path d="M167.75 249.582V247.405L164.884 247.222L158.354 243.92C157.415 243.505 156.378 243.288 155.326 243.288C154.275 243.288 153.237 243.505 152.299 243.92L147.937 246.121L145.741 245.987V248.102C145.766 248.436 145.895 248.758 146.114 249.031C146.334 249.305 146.635 249.521 146.986 249.655L155.124 253.776C156.062 254.192 157.099 254.408 158.151 254.408C159.203 254.408 160.24 254.192 161.178 253.776L166.492 251.098C166.835 250.965 167.13 250.754 167.349 250.488C167.568 250.221 167.702 249.908 167.736 249.582H167.75Z" fill="#E0E0E0"/>
<path d="M158.354 241.732L166.506 245.852C166.871 245.961 167.188 246.166 167.413 246.44C167.638 246.715 167.758 247.043 167.758 247.381C167.758 247.718 167.638 248.047 167.413 248.321C167.188 248.595 166.871 248.801 166.506 248.909L161.192 251.587C160.254 252.003 159.217 252.219 158.165 252.219C157.113 252.219 156.076 252.003 155.138 251.587L147 247.478C146.634 247.37 146.317 247.164 146.093 246.89C145.868 246.616 145.747 246.287 145.747 245.95C145.747 245.613 145.868 245.284 146.093 245.01C146.317 244.736 146.634 244.53 147 244.422L152.299 241.732C153.238 241.316 154.275 241.099 155.327 241.099C156.378 241.099 157.415 241.316 158.354 241.732Z" fill="#F5F5F5"/>
<path d="M190.248 187.368L189.731 185.497L187.578 185.338L180.586 181.78C177.244 180.092 172.812 180.447 170.658 182.526C170.201 182.962 169.866 183.485 169.68 184.054H169.064L169.61 186.035C169.852 186.738 170.252 187.391 170.788 187.956C171.324 188.521 171.983 188.986 172.728 189.324L181.313 193.653C182.011 193.979 182.809 194.101 183.591 194.002C184.373 193.903 185.099 193.588 185.662 193.102C187.014 191.839 188.37 190.535 189.731 189.19C189.985 188.948 190.166 188.655 190.256 188.337C190.346 188.018 190.344 187.685 190.248 187.368Z" fill="#E0E0E0"/>
<path d="M180.768 191.757L172.183 187.428C168.841 185.741 167.988 182.733 170.1 180.654C172.211 178.576 176.685 178.209 180.027 179.908L188.613 184.237C188.918 184.375 189.183 184.574 189.385 184.818C189.587 185.061 189.721 185.343 189.777 185.64C189.832 185.937 189.808 186.241 189.705 186.528C189.603 186.815 189.425 187.077 189.186 187.294C187.825 188.639 186.469 189.943 185.117 191.207C184.555 191.694 183.83 192.01 183.047 192.109C182.264 192.208 181.465 192.085 180.768 191.757Z" fill="#F5F5F5"/>
<path d="M234.127 210.722L233.609 208.827H232.994C232.409 208.216 231.703 207.703 230.911 207.31L222.339 202.982C221.648 202.659 220.855 202.543 220.081 202.654C219.308 202.764 218.598 203.094 218.06 203.593C216.662 204.902 215.39 206.198 214.061 207.445L212.845 207.359L213.39 209.328C213.463 209.586 213.596 209.828 213.782 210.038C213.967 210.249 214.2 210.423 214.467 210.551L223.038 214.879C226.38 216.567 230.911 216.298 233.078 214.219C233.583 213.765 233.945 213.204 234.129 212.591C234.313 211.978 234.312 211.334 234.127 210.722Z" fill="#E0E0E0"/>
<path d="M222.563 212.899L213.992 208.57C213.688 208.437 213.425 208.242 213.225 208.001C213.026 207.761 212.896 207.481 212.847 207.187C212.797 206.893 212.83 206.593 212.941 206.312C213.053 206.031 213.241 205.778 213.488 205.574C214.84 204.303 216.196 202.999 217.557 201.662C218.094 201.163 218.805 200.832 219.578 200.722C220.352 200.611 221.145 200.727 221.836 201.05L230.407 205.379C233.763 207.066 234.756 210.16 232.603 212.238C230.449 214.317 225.919 214.562 222.563 212.899Z" fill="#F5F5F5"/>
<path d="M212.649 198.862L212.132 197.015L210.496 196.917L200.218 191.733C199.356 191.33 198.366 191.186 197.401 191.323C196.436 191.46 195.549 191.87 194.877 192.491C193.828 193.518 192.793 194.521 191.745 195.511C191.648 195.612 191.56 195.718 191.479 195.829H190.444L190.976 197.761C191.069 198.09 191.242 198.398 191.484 198.664C191.725 198.93 192.028 199.147 192.374 199.302L203.378 204.853C204.248 205.261 205.244 205.415 206.22 205.292C207.196 205.168 208.102 204.775 208.804 204.168C209.853 203.19 210.901 202.175 211.936 201.16C212.269 200.862 212.509 200.494 212.634 200.092C212.759 199.69 212.764 199.266 212.649 198.862Z" fill="#E0E0E0"/>
<path d="M211.432 199.228C210.398 200.243 209.349 201.258 208.314 202.236C207.609 202.842 206.701 203.235 205.723 203.358C204.744 203.481 203.747 203.328 202.875 202.921L191.87 197.37C191.491 197.203 191.164 196.959 190.916 196.658C190.668 196.357 190.506 196.009 190.444 195.642C190.382 195.275 190.423 194.9 190.561 194.55C190.7 194.199 190.933 193.883 191.241 193.628C192.29 192.638 193.324 191.635 194.373 190.608C195.045 189.987 195.932 189.577 196.897 189.44C197.863 189.303 198.852 189.447 199.715 189.85L210.719 195.401C211.096 195.579 211.422 195.83 211.671 196.135C211.92 196.44 212.085 196.791 212.154 197.161C212.223 197.531 212.193 197.91 212.068 198.268C211.943 198.627 211.726 198.955 211.432 199.228Z" fill="#F5F5F5"/>
<path d="M529.095 147.983L496.389 131.464L494.012 179.726L529.095 197.517V147.983Z" fill="#CD5954"/>
<path d="M529.095 197.517L545.441 189.263L535.639 144.682L529.095 147.983V197.517Z" fill="#37474F"/>
<path d="M545.441 189.264L534.772 188.053L529.095 197.517L545.441 189.264Z" fill="#37474F"/>
<path d="M545.441 189.264L534.772 188.053L529.095 197.517L545.441 189.264Z" fill="#37474F"/>
<path d="M545.441 189.264L534.772 188.053L529.095 197.517L545.441 189.264Z" fill="#CD5954"/>
<path opacity="0.1" d="M545.441 189.264L534.772 188.053L529.095 197.517L545.441 189.264Z" fill="black"/>
<path d="M534.772 188.053L529.095 144.682V147.983V197.517L534.772 188.053Z" fill="#CD5954"/>
<path opacity="0.2" d="M534.772 188.053L529.095 144.682V147.983V197.517L534.772 188.053Z" fill="black"/>
<path d="M496.389 131.464L502.108 131.097L502.933 128.162L535.639 144.682H529.095V147.983L496.389 131.464Z" fill="#CD5954"/>
<path opacity="0.2" d="M496.389 131.464L502.108 131.097L502.933 128.162L535.639 144.682H529.095V147.983L496.389 131.464Z" fill="black"/>
<path d="M518.412 145.929C518.412 146.345 518.062 146.528 517.643 146.308C517.423 146.182 517.24 146.012 517.108 145.812C516.977 145.613 516.902 145.389 516.888 145.159C516.888 144.731 517.223 144.56 517.643 144.767C517.867 144.894 518.053 145.066 518.187 145.268C518.32 145.469 518.397 145.696 518.412 145.929Z" fill="#CD5954"/>
<path opacity="0.3" d="M518.412 145.929C518.412 146.345 518.062 146.528 517.643 146.308C517.423 146.182 517.24 146.012 517.108 145.812C516.977 145.613 516.902 145.389 516.888 145.159C516.888 144.731 517.223 144.56 517.643 144.767C517.867 144.894 518.053 145.066 518.187 145.268C518.32 145.469 518.397 145.696 518.412 145.929Z" fill="black"/>
<path d="M508.708 140.891C508.708 141.319 508.358 141.49 507.939 141.283C507.707 141.149 507.517 140.968 507.385 140.754C507.253 140.541 507.184 140.302 507.184 140.06C507.184 139.644 507.519 139.461 507.939 139.681C508.17 139.812 508.361 139.991 508.495 140.202C508.629 140.413 508.702 140.65 508.708 140.891Z" fill="#CD5954"/>
<path opacity="0.3" d="M508.708 140.891C508.708 141.319 508.358 141.49 507.939 141.283C507.707 141.149 507.517 140.968 507.385 140.754C507.253 140.541 507.184 140.302 507.184 140.06C507.184 139.644 507.519 139.461 507.939 139.681C508.17 139.812 508.361 139.991 508.495 140.202C508.629 140.413 508.702 140.65 508.708 140.891Z" fill="black"/>
<g style="mix-blend-mode:multiply">
<path d="M524.97 142.542C524.97 142.97 524.62 143.141 524.201 142.933C523.979 142.806 523.795 142.634 523.663 142.432C523.532 142.23 523.458 142.004 523.446 141.772C523.446 141.356 523.781 141.185 524.201 141.393C524.423 141.518 524.608 141.688 524.742 141.887C524.875 142.087 524.953 142.311 524.97 142.542Z" fill="#CD5954"/>
</g>
<g style="mix-blend-mode:multiply" opacity="0.2">
<path d="M524.97 142.542C524.97 142.97 524.62 143.141 524.201 142.933C523.979 142.806 523.795 142.634 523.663 142.432C523.532 142.23 523.458 142.004 523.446 141.772C523.446 141.356 523.781 141.185 524.201 141.393C524.423 141.518 524.608 141.688 524.742 141.887C524.875 142.087 524.953 142.311 524.97 142.542Z" fill="black"/>
</g>
<g style="mix-blend-mode:multiply">
<path d="M515.181 137.517C515.181 137.945 514.832 138.116 514.412 137.908C514.19 137.78 514.006 137.609 513.875 137.407C513.744 137.205 513.669 136.978 513.657 136.746C513.657 136.331 513.993 136.147 514.412 136.367C514.634 136.493 514.819 136.662 514.953 136.862C515.087 137.062 515.165 137.286 515.181 137.517Z" fill="#CD5954"/>
</g>
<g style="mix-blend-mode:multiply" opacity="0.2">
<path d="M515.181 137.517C515.181 137.945 514.832 138.116 514.412 137.908C514.19 137.78 514.006 137.609 513.875 137.407C513.744 137.205 513.669 136.978 513.657 136.746C513.657 136.331 513.993 136.147 514.412 136.367C514.634 136.493 514.819 136.662 514.953 136.862C515.087 137.062 515.165 137.286 515.181 137.517Z" fill="black"/>
</g>
<path d="M535.639 144.682H529.095L534.772 188.053L545.441 189.263L535.639 144.682Z" fill="#CD5954"/>
<path d="M502.933 128.162L502.108 131.097L502.933 134.765L504.583 135.609L502.933 128.162Z" fill="#CD5954"/>
<path d="M491.928 48.0112C496.473 48.0112 505.617 49.3074 510.358 67.4775C511.434 71.5981 512.329 76.0979 513.154 81.8815C514.427 90.4408 515.951 97.5083 517.153 105.603C517.321 106.728 517.936 110.041 518.09 111.069C518.957 116.559 520.705 119.995 520.705 124.164C519.992 126.683 518.328 129.471 511.896 130.046C505.855 128.346 507.03 127.527 506.89 122.795C506.75 118.063 508.442 116.974 507.897 111.338C505.575 97.9729 501.003 75.193 501.003 75.193L491.928 48.0112Z" fill="#FFA8A7"/>
<path d="M524.131 142.542C524.028 142.541 523.928 142.509 523.849 142.451C523.77 142.393 523.716 142.313 523.697 142.224C523.697 142.224 522.565 136.343 521.166 131.916C520.048 128.407 517.195 127.49 514.678 126.683C514.119 126.512 513.588 126.341 513.126 126.157C513.074 126.137 513.026 126.109 512.987 126.072C512.947 126.036 512.916 125.994 512.895 125.947C512.874 125.901 512.864 125.851 512.865 125.801C512.867 125.751 512.879 125.702 512.902 125.656C512.925 125.61 512.958 125.568 512.999 125.534C513.041 125.499 513.089 125.472 513.143 125.454C513.196 125.435 513.253 125.427 513.31 125.428C513.367 125.429 513.423 125.44 513.476 125.46C513.937 125.644 514.441 125.803 514.972 125.974C517.559 126.793 520.761 127.82 521.963 131.709C523.362 136.184 524.522 142.041 524.536 142.102C524.552 142.202 524.524 142.304 524.456 142.386C524.388 142.468 524.287 142.524 524.173 142.542H524.131Z" fill="#455A64"/>
<path d="M517.642 119.175C516.537 120.772 515.681 122.491 515.098 124.286C514.874 125.252 513.098 124.396 512.762 123.063C512.592 121.028 512.592 118.985 512.762 116.95C512.192 118.831 511.938 120.775 512.007 122.721C512.371 124.604 512.944 125.02 514.426 125.485C515.908 125.949 515.825 124.763 516.244 123.21C516.664 121.657 517.642 119.175 517.642 119.175Z" fill="#F28F8F"/>
<path d="M517.265 145.134V133.689C517.265 131.146 517.265 128.272 512.553 125.851C510.875 124.995 509.602 124.726 508.973 125.081C508.344 125.436 508.428 126.389 508.428 126.402V140.439C508.428 140.539 508.382 140.636 508.301 140.707C508.22 140.778 508.109 140.818 507.994 140.818C507.879 140.818 507.769 140.778 507.688 140.707C507.607 140.636 507.561 140.539 507.561 140.439V126.438C507.52 126.061 507.585 125.682 507.75 125.332C507.916 124.982 508.178 124.673 508.512 124.433C509.463 123.907 510.959 124.164 512.986 125.191C518.16 127.844 518.146 131.085 518.132 133.689V145.134C518.132 145.235 518.086 145.331 518.005 145.402C517.924 145.473 517.813 145.513 517.699 145.513C517.584 145.513 517.473 145.473 517.392 145.402C517.311 145.331 517.265 145.235 517.265 145.134Z" fill="#455A64"/>
<path d="M514.427 137.516C514.323 137.517 514.222 137.486 514.143 137.428C514.063 137.369 514.01 137.288 513.993 137.198L512.385 128.529C512.365 128.43 512.39 128.328 512.456 128.246C512.521 128.163 512.622 128.107 512.735 128.089C512.849 128.075 512.966 128.1 513.06 128.159C513.154 128.218 513.218 128.307 513.238 128.407L514.86 137.039C514.881 137.138 514.855 137.24 514.79 137.323C514.724 137.405 514.624 137.462 514.511 137.48L514.427 137.516Z" fill="#455A64"/>
<path d="M511.476 125.314C509.099 124.47 506.596 122.868 505.715 123.736C505.286 124.194 504.99 124.736 504.853 125.316C504.715 125.896 504.74 126.496 504.926 127.066C505.111 127.635 505.451 128.157 505.918 128.587C506.384 129.016 506.962 129.34 507.603 129.532C510.313 130.333 513.263 130.251 515.909 129.3L511.476 125.314Z" fill="#FFA8A7"/>
<path d="M488.488 47.5835C495.578 47.5835 504.135 49.5399 507.547 55.2746C511.196 61.3884 513.601 77.7855 513.601 77.7855C513.601 77.7855 510.917 82.8354 501.017 82.273L488.488 47.5835Z" fill="#37474F"/>
<path d="M431.858 200.305C430.096 199.498 428.964 201.467 427.37 203.044C426.237 204.145 424.489 205.893 424.224 207.153C423.846 209.024 425.762 211.958 427.887 213.572C430.013 215.186 432.487 216.348 433.257 219.894C433.452 221.52 434.172 223.064 435.334 224.346C436.495 225.628 438.049 226.594 439.814 227.133C444.415 228.869 450.581 228.355 452.679 227.133C455.154 225.726 452.888 224.198 449.421 219.796C444.89 214.122 441.353 210.075 441.353 204.781L431.858 200.305Z" fill="#263238"/>
<path d="M435.48 195.659L431.76 200.427C430.973 201.419 430.664 202.642 430.9 203.832C431.135 205.022 431.896 206.083 433.019 206.786L433.131 206.847C434.259 207.448 435.593 207.681 436.898 207.504C438.204 207.327 439.395 206.752 440.262 205.881L446.065 200.342L435.48 195.659Z" fill="#FFA8A7"/>
<path d="M503.856 102.559C504.093 108.672 502.122 133.213 497.326 144.132C492.53 155.051 489.733 161.752 488.223 164.014C486.713 166.276 443.17 203.35 443.17 203.35C443.17 203.35 435.773 202.873 434.599 196.613C434.599 196.613 452.441 170.091 456.314 164.65C460.187 159.209 473.862 150.87 473.862 150.87L472.618 103.292L503.856 102.559Z" fill="#37474F"/>
<path d="M494.256 232.097L503.459 230.267L500.412 218.546L491.208 220.376L494.256 232.097Z" fill="#FFA8A7"/>
<path d="M503.856 102.559H459.698C459.306 106.838 458.3 109.235 458.034 119.579C457.698 136.319 475.499 166.729 475.499 166.729C475.275 169.003 474.17 178.54 476.645 186.99C480.56 200.33 491.201 222.89 491.201 222.89C491.201 222.89 497.857 223.721 501.171 220.359C501.171 220.359 495.284 174.53 493.69 162.791C491.97 150.087 487.566 126.891 487.566 126.891C490.48 124.346 493.124 121.576 495.466 118.613C499.55 113.852 502.412 108.375 503.856 102.559Z" fill="#37474F"/>
<path d="M443.38 93.0694C445.365 75.1683 451.56 62.5862 452.469 58.0864L458.481 80.2427C456.588 86.1862 455.09 92.2203 453.993 98.315C453.741 99.8434 450.889 113.147 451.336 118.821C451.411 119.822 451.91 120.763 452.734 121.462C454.944 123.357 455.601 124.995 457.083 127.123C458.244 128.798 459.446 129.385 459.138 129.789C458.727 130.217 458.145 130.494 457.51 130.564C456.875 130.634 456.234 130.493 455.713 130.168C454.538 129.467 453.463 128.646 452.511 127.722C452.888 129.916 453.667 132.042 454.818 134.019C457.433 138.556 456.999 140.94 449.742 139.607C445.198 138.764 442.191 135.621 440.989 126.218C440.769 122.829 440.792 119.431 441.059 116.045C441.408 108.158 442.779 98.4373 443.38 93.0694Z" fill="#FFA8A7"/>
<path d="M473.904 47.9503C465.445 49.7355 453.895 52.0587 450.553 60.08C447.211 68.1012 443.562 83.3123 443.562 83.3123C446.204 86.0145 454.426 87.4329 457.978 85.7578L459.642 80.9523V102.497C466.256 108.794 489.341 111.729 503.8 102.497V62.3054C503.8 55.8737 499.717 48.1581 488.418 47.6323L473.904 47.9503Z" fill="#455A64"/>
<path d="M459.698 81.001L463.935 69.3237L459.698 86.2344V81.001Z" fill="#37474F"/>
<path d="M470.73 15.0457C469.971 14.9569 469.198 15.0208 468.471 15.2327C467.744 15.4446 467.082 15.7989 466.535 16.2684C464.746 17.8702 465.137 20.8293 466.535 27.6278L472.059 28.1903L470.73 15.0457Z" fill="#263238"/>
<path d="M502.947 13.0768C504.134 13.0819 505.309 12.8738 506.4 12.4654C508.092 11.6095 508.54 13.2969 507.617 14.7519C506.998 15.7995 506.084 16.6918 504.961 17.3444C503.838 17.997 502.543 18.3883 501.199 18.4813C501.199 18.2735 499.619 14.703 499.619 14.703L502.947 13.0768Z" fill="#263238"/>
<path d="M473.317 28.2635C472.492 28.6915 471.331 27.3098 470.311 26.3805C469.913 25.9824 469.406 25.6797 468.837 25.5009C468.268 25.3222 467.657 25.2733 467.06 25.359C466.464 25.4447 465.902 25.6622 465.428 25.9907C464.955 26.3192 464.585 26.748 464.354 27.2364C462.676 30.33 466.493 34.4384 468.731 35.7957C469.355 36.2692 470.135 36.5583 470.958 36.622C471.782 36.6856 472.607 36.5206 473.317 36.1503L473.904 47.9743C474.894 49.8709 476.405 51.5236 478.304 52.7846C480.202 54.0456 482.428 54.8758 484.783 55.2008C492.725 56.1423 491.089 50.4076 488.488 47.6075V43.3034C490.472 43.6772 492.512 43.7681 494.529 43.5724C495.564 43.3278 498.039 40.7234 499.633 37.7888C501.423 34.5118 504.401 28.6793 501.744 18.8239C498.948 8.23484 485.888 7.91692 478.127 12.1843C470.367 16.4517 473.317 28.2635 473.317 28.2635Z" fill="#FFA8A7"/>
<path d="M473.317 29.4865C472.912 29.4865 471.332 27.2122 470.311 26.393C468.913 25.268 470.73 15.0825 470.73 15.0825C470.73 15.0825 469.332 11.2064 472.129 8.65082C474.925 6.09527 480.351 6.51101 484.308 6.38873C489.171 6.42781 493.991 5.59554 498.472 3.94323C504.065 1.80341 504.527 1.49772 505.226 3.7109C505.925 5.92408 506.191 10.8273 502.835 14.141L501.003 16.7454C501.003 16.7454 499.297 17.9682 494.012 18.5673C488.726 19.1665 479.819 16.6599 478.631 16.5254C477.121 16.3419 476.785 17.6381 475.974 21.1596C475.303 24.1798 474.702 29.4865 473.317 29.4865Z" fill="#263238"/>
<path d="M470.73 15.8283L465.78 13.5051C466.113 12.927 466.694 12.4878 467.397 12.2838C468.099 12.0798 468.865 12.1277 469.528 12.4168C470.192 12.7403 470.689 13.2757 470.913 13.9113C471.137 14.547 471.071 15.2338 470.73 15.8283Z" fill="#263238"/>
<path d="M488.474 43.2793C488.474 43.2793 481.119 41.9831 478.547 40.8338C477.034 40.1448 475.793 39.0759 474.981 37.7646C475.366 39.0947 476.056 40.3426 477.008 41.4329C478.882 43.536 488.474 45.1012 488.474 45.1012V43.2793Z" fill="#F28F8F"/>
<path d="M488.712 28.0066C488.701 28.2607 488.605 28.5063 488.436 28.7129C488.266 28.9195 488.031 29.078 487.76 29.1687C487.488 29.2593 487.192 29.2781 486.908 29.2227C486.624 29.1673 486.366 29.0402 486.164 28.8571C485.962 28.674 485.826 28.4431 485.774 28.1931C485.721 27.9431 485.753 27.6851 485.867 27.4511C485.981 27.2171 486.17 27.0175 486.413 26.8771C486.655 26.7367 486.939 26.6618 487.23 26.6616C487.428 26.6648 487.624 26.7021 487.806 26.7714C487.988 26.8408 488.152 26.9407 488.29 27.0656C488.428 27.1905 488.536 27.3379 488.608 27.4994C488.681 27.6609 488.716 27.8332 488.712 28.0066Z" fill="#263238"/>
<path d="M487.216 23.1405L484.056 24.6568C483.83 24.2793 483.781 23.8396 483.919 23.431C484.057 23.0223 484.372 22.6769 484.797 22.468C485.005 22.3676 485.234 22.3052 485.471 22.2848C485.707 22.2643 485.946 22.2862 486.172 22.3492C486.398 22.4121 486.608 22.5148 486.787 22.6508C486.967 22.7869 487.113 22.9535 487.216 23.1405Z" fill="#263238"/>
<path d="M487.804 36.6279L491.173 37.7284C491.099 37.9263 490.981 38.1091 490.825 38.2661C490.668 38.4231 490.478 38.5511 490.264 38.6423C490.05 38.7336 489.817 38.7863 489.579 38.7973C489.342 38.8084 489.104 38.7775 488.88 38.7066C488.429 38.548 488.065 38.2434 487.865 37.8562C487.664 37.4689 487.642 37.029 487.804 36.6279Z" fill="#F28F8F"/>
<path d="M501.857 24.2042L498.976 22.2723C499.111 22.1013 499.284 21.9564 499.485 21.8464C499.686 21.7364 499.911 21.6636 500.146 21.6327C500.38 21.6017 500.62 21.6132 500.849 21.6665C501.078 21.7197 501.293 21.8135 501.479 21.9421C501.864 22.2037 502.118 22.5852 502.188 23.0068C502.258 23.4284 502.14 23.8574 501.857 24.2042Z" fill="#263238"/>
<path d="M500.961 27.64C500.95 27.8946 500.853 28.1407 500.683 28.3475C500.513 28.5544 500.277 28.7128 500.005 28.8031C499.732 28.8933 499.436 28.9114 499.152 28.855C498.868 28.7986 498.609 28.6703 498.408 28.486C498.206 28.3017 498.072 28.0697 498.021 27.8189C497.969 27.5681 498.004 27.3097 498.12 27.076C498.235 26.8422 498.427 26.6434 498.672 26.5045C498.916 26.3656 499.201 26.2927 499.493 26.295C499.69 26.2981 499.885 26.3355 500.066 26.405C500.247 26.4745 500.411 26.5746 500.548 26.6997C500.684 26.8248 500.791 26.9723 500.862 27.1337C500.933 27.2951 500.966 27.4672 500.961 27.64Z" fill="#263238"/>
<path d="M494.026 27.481L492.627 35.1476L497.493 34.6463L494.026 27.481Z" fill="#F28F8F"/>
<path d="M502.415 226.35L502.121 225.2C503.086 225.359 507.211 231.314 511.322 233.967C515.811 236.829 519.712 238.516 521.711 239.8C524.396 241.524 520.509 245.045 513.909 245.363C510.623 245.522 504.652 244.642 502.821 243.126C500.989 241.61 499.647 239.066 498.192 237.966C496.738 236.865 493.774 235.912 492.781 234.505C492.232 233.116 492.036 231.639 492.208 230.177C492.208 228.661 492.319 227.01 492.907 227.034C492.907 227.206 493.144 227.915 493.144 227.915C494.874 228.683 496.799 229.053 498.738 228.991C500.29 228.868 503.184 228.551 502.415 226.35Z" fill="#263238"/>
<path d="M492.529 155.014C492.529 155.014 488.614 130.657 487.565 126.891C487.565 126.891 493.886 123.821 496.277 121.425C494.461 123.712 492.471 125.889 490.32 127.942L492.529 155.014Z" fill="#263238"/>
<path d="M468.885 154.207C468.885 154.207 473.597 164.466 475.499 166.728C475.499 166.728 475.023 174.541 475.093 176.119L472.618 178.014C472.545 174.476 472.916 170.941 473.723 167.474C471.56 163.22 469.938 158.771 468.885 154.207Z" fill="#263238"/>
<path d="M160.591 305.669L331.825 219.208C332.575 218.876 333.403 218.703 334.244 218.703C335.084 218.703 335.913 218.876 336.663 219.208L445.421 274.122C446.127 274.523 446.714 275.064 447.135 275.702C447.555 276.339 447.797 277.055 447.84 277.79V278.634C447.796 279.369 447.554 280.084 447.133 280.721C446.713 281.359 446.126 281.901 445.421 282.302L274.187 368.751C273.441 369.085 272.614 369.26 271.775 369.26C270.937 369.26 270.11 369.085 269.363 368.751L160.577 312.92C159.875 312.516 159.292 311.974 158.874 311.337C158.456 310.699 158.216 309.985 158.172 309.252C158.228 308.531 158.476 307.832 158.896 307.21C159.316 306.587 159.896 306.06 160.591 305.669Z" fill="#CD5954"/>
<g opacity="0.2">
<path d="M160.591 305.669L331.825 219.208C332.575 218.876 333.403 218.703 334.244 218.703C335.084 218.703 335.913 218.876 336.663 219.208L445.421 274.122C446.127 274.523 446.714 275.064 447.135 275.702C447.555 276.339 447.797 277.055 447.84 277.79V278.634C447.796 279.369 447.554 280.084 447.133 280.721C446.713 281.359 446.126 281.901 445.421 282.302L274.187 368.751C273.441 369.085 272.614 369.26 271.775 369.26C270.937 369.26 270.11 369.085 269.363 368.751L160.577 312.92C159.875 312.516 159.292 311.974 158.874 311.337C158.456 310.699 158.216 309.985 158.172 309.252C158.228 308.531 158.476 307.832 158.896 307.21C159.316 306.587 159.896 306.06 160.591 305.669Z" fill="white"/>
</g>
<path d="M158.172 309.289C158.216 310.022 158.456 310.736 158.874 311.374C159.292 312.011 159.875 312.553 160.577 312.957L269.363 368.775C270.133 369.046 270.943 369.219 271.768 369.289V352.77L266.091 286.814L203.616 283.941L160.591 305.669C159.891 306.064 159.307 306.597 158.887 307.226C158.466 307.855 158.221 308.561 158.172 309.289Z" fill="#CD5954"/>
<path d="M158.172 309.289C158.216 310.022 158.456 310.736 158.874 311.374C159.292 312.011 159.875 312.553 160.577 312.957L269.363 368.775C270.133 369.046 270.943 369.219 271.768 369.289V352.77L266.091 286.814L203.616 283.941L160.591 305.669C159.891 306.064 159.307 306.597 158.887 307.226C158.466 307.855 158.221 308.561 158.172 309.289Z" fill="#CD5954"/>
<g opacity="0.2">
<path d="M158.172 309.289C158.216 310.022 158.456 310.736 158.874 311.374C159.292 312.011 159.875 312.553 160.577 312.957L269.363 368.775C270.133 369.046 270.943 369.219 271.768 369.289V352.77L266.091 286.814L203.616 283.941L160.591 305.669C159.891 306.064 159.307 306.597 158.887 307.226C158.466 307.855 158.221 308.561 158.172 309.289Z" fill="black"/>
</g>
<path d="M336.663 219.208L445.422 274.122C445.718 274.205 445.976 274.368 446.16 274.588C446.343 274.808 446.442 275.073 446.442 275.345C446.442 275.617 446.343 275.882 446.16 276.102C445.976 276.321 445.718 276.484 445.422 276.567L274.188 363.016C273.438 363.348 272.609 363.521 271.769 363.521C270.928 363.521 270.1 363.348 269.35 363.016L160.591 308.114C160.302 308.025 160.051 307.86 159.873 307.641C159.696 307.422 159.601 307.16 159.601 306.892C159.601 306.623 159.696 306.361 159.873 306.142C160.051 305.923 160.302 305.758 160.591 305.669L331.825 219.208C332.575 218.876 333.404 218.703 334.244 218.703C335.085 218.703 335.913 218.876 336.663 219.208Z" fill="#CD5954"/>
<path d="M255.618 281.373C255.306 281.348 255.004 281.26 254.737 281.116L244.11 275.748C243.789 275.59 243.621 275.431 243.593 275.296C243.565 275.162 243.705 275.003 243.998 274.856L248.739 272.472C249.822 271.885 251.071 271.574 252.346 271.574C253.621 271.574 254.87 271.885 255.954 272.472C256.429 272.68 256.827 273.002 257.1 273.401C257.2 273.544 257.253 273.709 257.253 273.878C257.253 274.046 257.2 274.211 257.1 274.355C257.806 274.196 258.541 274.163 259.262 274.257C259.982 274.352 260.674 274.572 261.295 274.905C262.4 275.467 262.973 276.128 263.015 276.788C263.057 277.448 262.414 278.17 261.113 278.83L256.499 281.092C256.245 281.262 255.938 281.36 255.618 281.373ZM253.017 275.259C253.339 275.088 253.507 274.917 253.493 274.734C253.479 274.55 253.297 274.355 252.933 274.171C252.601 273.99 252.22 273.889 251.829 273.878C251.464 273.884 251.108 273.973 250.794 274.134L249.046 275.027L251.269 276.14L253.017 275.259ZM258.219 277.619C258.568 277.448 258.708 277.252 258.666 277.045C258.621 276.915 258.543 276.795 258.439 276.693C258.336 276.592 258.208 276.512 258.065 276.458C257.689 276.259 257.26 276.149 256.821 276.14C256.423 276.132 256.031 276.221 255.688 276.397L253.73 277.387L256.205 278.61L258.219 277.619Z" fill="white"/>
<path d="M264.511 276.714C264.405 276.65 264.31 276.571 264.232 276.482L257.1 268.815C256.989 268.705 256.916 268.569 256.891 268.424C256.891 268.326 257.002 268.228 257.212 268.13L258.611 267.397C258.793 267.301 258.999 267.247 259.212 267.238C259.468 267.241 259.723 267.278 259.967 267.348L275.166 270.943C275.318 270.966 275.465 271.012 275.6 271.077C275.712 271.077 275.767 271.187 275.767 271.248C275.767 271.31 275.767 271.371 275.614 271.42L273.153 272.642C273.01 272.711 272.853 272.752 272.691 272.765C272.506 272.772 272.32 272.747 272.146 272.691L269.825 272.092L266.497 273.767L267.713 274.929C267.758 274.964 267.794 275.008 267.818 275.056C267.843 275.105 267.854 275.157 267.853 275.21C267.8 275.313 267.705 275.396 267.587 275.442L265.14 276.665C265.05 276.722 264.944 276.757 264.834 276.766C264.723 276.774 264.611 276.756 264.511 276.714ZM266.679 271.199L262.582 270.123L264.735 272.19L266.679 271.199Z" fill="white"/>
<path d="M276.999 270.515C276.686 270.49 276.385 270.402 276.118 270.259L265.477 264.878C265.16 264.724 264.992 264.577 264.973 264.438C264.955 264.3 265.095 264.153 265.393 263.998L266.651 263.362C266.819 263.274 267.004 263.212 267.197 263.179C267.428 263.144 267.664 263.144 267.896 263.179L277.684 264.402L272.091 261.565C271.783 261.406 271.601 261.247 271.573 261.112C271.545 260.978 271.685 260.819 271.979 260.672L273.531 259.89C273.797 259.75 274.102 259.679 274.412 259.682C274.729 259.705 275.035 259.793 275.307 259.939L285.948 265.319C286.265 265.473 286.432 265.62 286.451 265.759C286.451 265.893 286.311 266.04 286.004 266.199L284.759 266.823C284.592 266.916 284.407 266.982 284.214 267.018C283.987 267.053 283.755 267.053 283.529 267.018L273.741 265.796L279.334 268.645C279.651 268.808 279.818 268.954 279.837 269.085C279.837 269.219 279.697 269.366 279.39 269.525L277.852 270.307C277.594 270.443 277.299 270.515 276.999 270.515Z" fill="white"/>
<path d="M297.483 260.049C297.581 260.049 297.651 260.159 297.651 260.22C297.651 260.281 297.651 260.342 297.497 260.391L295.036 261.614C294.913 261.677 294.781 261.726 294.644 261.761C294.515 261.785 294.382 261.785 294.253 261.761L285.961 260.721L290.449 262.996C290.771 263.154 290.939 263.301 290.967 263.448C290.995 263.595 290.841 263.729 290.533 263.888L288.981 264.658C288.729 264.806 288.432 264.882 288.128 264.879C287.813 264.856 287.51 264.763 287.247 264.61L276.62 259.254C276.299 259.095 276.131 258.936 276.103 258.801C276.075 258.667 276.215 258.508 276.509 258.361L278.047 257.579C278.313 257.44 278.618 257.368 278.928 257.371C279.245 257.392 279.552 257.481 279.823 257.628L284.227 259.853L282.13 255.781C282.109 255.75 282.098 255.714 282.098 255.677C282.098 255.641 282.109 255.605 282.13 255.573C282.217 255.488 282.321 255.417 282.437 255.366L284.884 254.143C284.987 254.094 285.103 254.069 285.22 254.069C285.344 254.067 285.465 254.097 285.569 254.155C285.68 254.203 285.765 254.286 285.807 254.387L287.891 258.875L297.021 259.914C297.185 259.927 297.343 259.973 297.483 260.049Z" fill="white"/>
<path d="M303.733 255.842C301.466 255.775 299.257 255.203 297.315 254.179C295.175 253.091 294.071 252.027 293.973 250.951C293.875 249.875 294.784 248.885 296.658 247.931C297.446 247.534 298.281 247.21 299.147 246.965C299.945 246.735 300.771 246.588 301.608 246.525C301.781 246.507 301.957 246.537 302.111 246.61C302.22 246.673 302.311 246.757 302.377 246.855L303.034 247.882C303.132 247.992 303.132 248.078 303.034 248.126C302.894 248.185 302.742 248.219 302.586 248.224C301.6 248.337 300.65 248.619 299.79 249.056C298.797 249.545 298.392 250.095 298.489 250.694C298.587 251.293 299.3 251.917 300.573 252.565C301.712 253.171 303.003 253.523 304.334 253.592C305.494 253.651 306.649 253.417 307.662 252.92C308.395 252.6 308.988 252.081 309.354 251.44C309.398 251.354 309.465 251.278 309.55 251.22C309.704 251.174 309.871 251.174 310.025 251.22L312.151 251.562C312.297 251.583 312.439 251.625 312.57 251.685C312.623 251.711 312.667 251.751 312.694 251.799C312.721 251.847 312.732 251.901 312.724 251.954C312.542 252.761 311.577 253.604 309.843 254.473C307.994 255.421 305.876 255.895 303.733 255.842Z" fill="white"/>
<path d="M313.633 251.917C313.522 251.853 313.422 251.775 313.339 251.684L306.222 244.018C306.096 243.916 306.021 243.776 306.012 243.627C306.012 243.529 306.124 243.431 306.32 243.333L307.718 242.599C307.895 242.503 308.097 242.448 308.305 242.44C308.567 242.443 308.826 242.48 309.074 242.55L324.274 246.145C324.422 246.168 324.564 246.213 324.693 246.28C324.805 246.28 324.861 246.39 324.861 246.451C324.861 246.512 324.861 246.573 324.707 246.622L322.246 247.845C322.11 247.915 321.957 247.957 321.799 247.967C321.613 247.975 321.428 247.95 321.253 247.894L318.932 247.295L315.59 248.982L316.821 250.205C316.919 250.303 316.975 250.401 316.947 250.474C316.919 250.547 316.849 250.633 316.681 250.706L314.234 251.929C314.142 251.975 314.037 251.997 313.932 251.995C313.826 251.993 313.722 251.966 313.633 251.917ZM315.786 246.402L311.703 245.326L313.857 247.393L315.786 246.402Z" fill="white"/>
<path d="M326.12 245.718C325.803 245.694 325.496 245.606 325.225 245.461L314.598 240.093C314.29 239.934 314.123 239.787 314.095 239.641C314.067 239.494 314.193 239.359 314.5 239.2L318.401 237.232C319.679 236.517 321.164 236.138 322.68 236.138C324.196 236.138 325.681 236.517 326.959 237.232C328.707 238.112 329.322 239.017 328.819 239.946L334.342 241.169C334.464 241.189 334.583 241.226 334.691 241.279C334.736 241.298 334.776 241.325 334.807 241.359C334.839 241.393 334.861 241.432 334.873 241.475C334.873 241.548 334.873 241.609 334.705 241.67L332.482 242.795C332.341 242.861 332.191 242.911 332.035 242.942C331.879 242.977 331.715 242.977 331.559 242.942L326.511 241.719L325.281 242.343L328.441 243.932C328.763 244.091 328.93 244.25 328.944 244.385C328.958 244.519 328.833 244.666 328.525 244.825L326.973 245.608C326.705 245.711 326.41 245.749 326.12 245.718ZM323.841 240.325C324.805 239.836 324.764 239.335 323.743 238.821C323.313 238.571 322.813 238.429 322.297 238.412C321.782 238.394 321.27 238.502 320.82 238.723L319.562 239.359L322.666 240.924L323.841 240.325Z" fill="white"/>
<path d="M336.202 240.619C335.889 240.593 335.588 240.506 335.321 240.362L324.694 234.994C324.386 234.835 324.204 234.688 324.176 234.542C324.148 234.395 324.288 234.26 324.582 234.114L328.092 232.341C329.804 231.45 331.763 230.989 333.755 231.008C335.933 231.1 338.049 231.672 339.907 232.671C341.99 233.735 343.081 234.762 343.165 235.764C343.249 236.767 342.382 237.733 340.564 238.65L337.069 240.411C336.81 240.555 336.508 240.628 336.202 240.619ZM338.047 237.232C338.816 236.84 339.11 236.425 338.942 236.009C338.774 235.593 338.033 234.994 336.705 234.322C335.699 233.757 334.571 233.378 333.391 233.209C332.531 233.115 331.661 233.274 330.916 233.661L329.658 234.297L336.789 237.904L338.047 237.232Z" fill="white"/>
<path d="M194.667 311.404L223.905 296.633C224.658 296.302 225.489 296.129 226.331 296.129C227.174 296.129 228.005 296.302 228.758 296.633L252.305 308.53C252.601 308.613 252.859 308.777 253.043 308.996C253.226 309.216 253.325 309.481 253.325 309.753C253.325 310.025 253.226 310.29 253.043 310.51C252.859 310.73 252.601 310.893 252.305 310.976L223.066 325.735C222.317 326.067 221.488 326.24 220.647 326.24C219.807 326.24 218.978 326.067 218.228 325.735L194.667 313.849C194.378 313.76 194.127 313.595 193.949 313.376C193.772 313.157 193.677 312.895 193.677 312.627C193.677 312.358 193.772 312.096 193.949 311.877C194.127 311.658 194.378 311.493 194.667 311.404Z" fill="#E0E0E0"/>
<path d="M237.818 324.622L217.431 314.535C216.685 314.165 215.842 313.971 214.984 313.971C214.127 313.971 213.284 314.165 212.537 314.535L198.275 321.725L197.576 320.673L211.838 313.471C212.795 312.996 213.877 312.747 214.977 312.747C216.078 312.747 217.159 312.996 218.116 313.471L238.503 323.559L237.818 324.622Z" fill="white"/>
<path d="M232.015 309.595C230.891 309.597 229.787 309.34 228.813 308.849L208.958 298.81L209.657 297.759L229.526 307.785C230.285 308.17 231.146 308.372 232.022 308.372C232.899 308.372 233.76 308.17 234.518 307.785L248.711 300.62L249.41 301.684L235.217 308.849C234.245 309.342 233.139 309.599 232.015 309.595Z" fill="white"/>
<path d="M226.674 307.418L225.975 306.354L241.971 298.284L237.693 296.12L220.997 304.545L220.298 303.493L237.693 294.714L244.768 298.284L226.674 307.418Z" fill="white"/>
<path d="M209.293 327.667L202.204 324.096L220.424 314.962L221.123 316.014L205.015 324.096L209.293 326.248L226.101 317.775L226.8 318.826L209.293 327.667Z" fill="white"/>
<path d="M235.623 330.87L262.442 317.335C263.568 316.834 264.814 316.573 266.077 316.573C267.341 316.573 268.586 316.834 269.713 317.335L273.796 319.401C275.809 320.404 275.809 322.054 273.796 323.069L246.991 336.605C245.864 337.106 244.619 337.366 243.355 337.366C242.092 337.366 240.846 337.106 239.72 336.605L235.623 334.539C233.623 333.524 233.623 331.873 235.623 330.87Z" fill="#CD5954"/>
<g opacity="0.7">
<path d="M237.021 330.87L263.84 317.335C264.967 316.834 266.212 316.573 267.476 316.573C268.739 316.573 269.985 316.834 271.111 317.335L275.194 319.401C277.208 320.404 277.208 322.054 275.194 323.069L248.389 336.605C247.263 337.106 246.017 337.366 244.754 337.366C243.49 337.366 242.245 337.106 241.118 336.605L237.021 334.539C235.022 333.524 235.022 331.873 237.021 330.87Z" fill="white"/>
</g>
<path d="M275.39 310.792L302.195 297.269C303.322 296.768 304.567 296.507 305.831 296.507C307.094 296.507 308.34 296.768 309.466 297.269L313.563 299.335C315.563 300.35 315.563 301.988 313.563 303.003L286.744 316.539C285.62 317.04 284.377 317.3 283.116 317.3C281.854 317.3 280.611 317.04 279.487 316.539L275.39 314.473C273.377 313.446 273.377 311.807 275.39 310.792Z" fill="#CD5954"/>
<path d="M275.39 310.792L302.195 297.269C303.322 296.768 304.567 296.507 305.831 296.507C307.094 296.507 308.34 296.768 309.466 297.269L313.563 299.335C315.563 300.35 315.563 301.988 313.563 303.003L286.744 316.539C285.62 317.04 284.377 317.3 283.116 317.3C281.854 317.3 280.611 317.04 279.487 316.539L275.39 314.473C273.377 313.446 273.377 311.807 275.39 310.792Z" fill="#CD5954"/>
<path opacity="0.7" d="M275.39 310.792L302.195 297.269C303.322 296.768 304.567 296.507 305.831 296.507C307.094 296.507 308.34 296.768 309.466 297.269L313.563 299.335C315.563 300.35 315.563 301.988 313.563 303.003L286.744 316.539C285.62 317.04 284.377 317.3 283.116 317.3C281.854 317.3 280.611 317.04 279.487 316.539L275.39 314.473C273.377 313.446 273.377 311.807 275.39 310.792Z" fill="white"/>
<path d="M315.143 290.715L341.962 277.179C343.086 276.679 344.33 276.418 345.591 276.418C346.852 276.418 348.095 276.679 349.219 277.179L353.316 279.246C355.33 280.261 355.33 281.899 353.316 282.914L326.511 296.45C325.385 296.95 324.139 297.211 322.876 297.211C321.612 297.211 320.367 296.95 319.24 296.45L315.143 294.383C313.144 293.368 313.144 291.73 315.143 290.715Z" fill="#CD5954"/>
<path opacity="0.7" d="M315.143 290.715L341.962 277.179C343.086 276.679 344.33 276.418 345.591 276.418C346.852 276.418 348.095 276.679 349.219 277.179L353.316 279.246C355.33 280.261 355.33 281.899 353.316 282.914L326.511 296.45C325.385 296.95 324.139 297.211 322.876 297.211C321.612 297.211 320.367 296.95 319.24 296.45L315.143 294.383C313.144 293.368 313.144 291.73 315.143 290.715Z" fill="white"/>
<path d="M354.911 270.649L381.716 257.113C382.842 256.613 384.088 256.352 385.351 256.352C386.615 256.352 387.86 256.613 388.987 257.113L393.084 259.18C395.083 260.182 395.083 261.833 393.084 262.848L366.265 276.384C365.138 276.884 363.893 277.145 362.629 277.145C361.366 277.145 360.12 276.884 358.994 276.384L354.911 274.317C352.897 273.303 352.897 271.652 354.911 270.649Z" fill="#CD5954"/>
<path opacity="0.7" d="M354.911 270.649L381.716 257.113C382.842 256.613 384.088 256.352 385.351 256.352C386.615 256.352 387.86 256.613 388.987 257.113L393.084 259.18C395.083 260.182 395.083 261.833 393.084 262.848L366.265 276.384C365.138 276.884 363.893 277.145 362.629 277.145C361.366 277.145 360.12 276.884 358.994 276.384L354.911 274.317C352.897 273.303 352.897 271.652 354.911 270.649Z" fill="white"/>
<path d="M411.582 268.522C412.757 269.121 412.631 270.148 411.289 270.833L342.297 305.657C341.605 305.994 340.831 306.184 340.038 306.209C339.246 306.235 338.458 306.096 337.739 305.804C336.565 305.204 336.69 304.177 338.033 303.505L407.024 268.669C407.719 268.337 408.492 268.151 409.283 268.125C410.075 268.1 410.862 268.235 411.582 268.522Z" fill="#CD5954"/>
<g opacity="0.1">
<path d="M411.582 268.522C412.757 269.121 412.631 270.148 411.289 270.833L342.297 305.657C341.605 305.994 340.831 306.184 340.038 306.209C339.246 306.235 338.458 306.096 337.739 305.804C336.565 305.204 336.69 304.177 338.033 303.505L407.024 268.669C407.719 268.337 408.492 268.151 409.283 268.125C410.075 268.1 410.862 268.235 411.582 268.522Z" fill="black"/>
</g>
<path d="M422.993 274.269C424.181 274.868 424.056 275.895 422.713 276.568L378.527 298.858C377.835 299.196 377.061 299.385 376.268 299.411C375.476 299.436 374.688 299.297 373.969 299.005C372.795 298.418 372.92 297.379 374.263 296.706L418.435 274.416C419.127 274.078 419.901 273.889 420.694 273.863C421.486 273.838 422.274 273.977 422.993 274.269Z" fill="#CD5954"/>
<g opacity="0.1">
<path d="M422.993 274.269C424.181 274.868 424.056 275.895 422.713 276.568L378.527 298.858C377.835 299.196 377.061 299.385 376.268 299.411C375.476 299.436 374.688 299.297 373.969 299.005C372.795 298.418 372.92 297.379 374.263 296.706L418.435 274.416C419.127 274.078 419.901 273.889 420.694 273.863C421.486 273.838 422.274 273.977 422.993 274.269Z" fill="black"/>
</g>
</svg>
