<svg width="509" height="440" viewBox="0 0 509 440" fill="none" xmlns="http://www.w3.org/2000/svg">
<path d="M287.285 437.875C267.411 429.395 259.492 409.236 256.69 390.458C256.218 387.34 255.226 384.098 256.356 381.105C257.486 378.113 260.967 375.671 264.31 376.512C267.088 377.209 268.714 379.723 270.57 381.708C273.038 384.386 276.301 386.375 279.977 387.444C282.374 388.141 285.222 388.359 287.193 386.946C289.89 385.002 289.499 381.241 288.945 378.144C287.815 372.401 286.709 366.658 285.625 360.915C284.844 357.85 284.614 354.692 284.945 351.562C285.452 348.445 287.308 345.327 290.421 344.039C293.533 342.75 297.902 343.8 299.159 346.73C299.529 347.99 299.807 349.271 299.989 350.565C300.323 351.843 301.257 353.162 302.675 353.318C304.093 353.474 305.326 352.383 306.191 351.313C309.142 347.645 310.802 343.249 312.301 338.895C313.799 334.541 315.206 330.104 317.788 326.196C320.37 322.289 324.313 318.922 329.189 317.883C334.065 316.844 339.829 318.818 341.87 322.985C343.91 327.152 341.939 332.026 339.564 336.037C335.958 341.977 331.419 347.416 326.088 352.186C325.025 352.949 324.258 353.997 323.898 355.178C323.54 357.361 326.099 359.086 328.509 359.418C331.206 359.792 333.95 359.127 336.682 359.003C339.414 358.878 342.515 359.501 343.968 361.632C345.962 364.583 343.645 368.355 341.166 370.984C336.188 376.222 330.25 380.651 323.609 384.078C321.235 385.293 318.71 386.436 316.969 388.348C315.229 390.26 314.525 393.232 316.162 395.228C317.799 397.223 321.108 397.441 323.667 396.589C326.226 395.737 328.359 394.085 330.722 392.848C335.149 390.52 341.305 389.876 345.028 393.097C346.189 394.224 347.045 395.578 347.527 397.053C348.009 398.528 348.105 400.084 347.806 401.598C347.193 404.614 345.911 407.487 344.037 410.046C338.067 419.297 329.483 426.956 319.16 432.243C308.842 437.334 298.859 439.818 287.297 437.885" fill="#F5F5F5"/>
<path d="M290.432 425.342C291.961 414.648 294.17 404.041 297.049 393.575L299.263 385.335C299.989 382.622 300.715 379.941 301.568 377.364C303.292 372.418 305.316 367.562 307.632 362.816C309.811 358.265 312.059 354.004 314.191 350.045C316.324 346.086 318.41 342.428 320.462 339.175C323.665 334.016 327.32 329.096 331.391 324.461C332.832 322.819 333.996 321.582 334.791 320.751C335.172 320.356 335.483 320.044 335.702 319.805C335.921 319.566 336.025 319.493 336.036 319.504C335.953 319.624 335.86 319.738 335.76 319.847L334.884 320.824C334.123 321.676 332.993 322.902 331.587 324.596C327.605 329.276 324.017 334.219 320.854 339.383C318.837 342.646 316.785 346.304 314.664 350.263C312.543 354.222 310.329 358.483 308.174 363.034C305.878 367.78 303.877 372.637 302.179 377.583C301.291 380.149 300.577 382.778 299.874 385.522L297.66 393.773C294.788 404.217 292.567 414.799 291.009 425.467" fill="#E0E0E0"/>
<path d="M301.764 377.323C301.514 376.919 301.317 376.49 301.176 376.045C300.83 375.224 300.381 373.967 299.85 372.501C298.79 369.488 297.476 365.279 296.046 360.645C294.617 356.01 293.245 351.822 292.127 348.84C291.574 347.343 291.112 346.128 290.79 345.307C290.596 344.88 290.445 344.438 290.34 343.987C290.618 344.374 290.846 344.789 291.02 345.223C291.424 346.024 291.942 347.219 292.553 348.694C293.787 351.666 295.228 355.833 296.669 360.489C298.11 365.144 299.32 369.218 300.289 372.377C300.738 373.811 301.107 375.016 301.441 375.983C301.592 376.42 301.7 376.869 301.764 377.323Z" fill="#E0E0E0"/>
<path d="M344.59 363.128C344.033 363.338 343.454 363.495 342.861 363.596C341.708 363.856 340.129 364.23 338.146 364.75C334.169 365.789 328.739 367.327 322.826 369.301C316.912 371.275 311.644 373.281 307.839 374.819C305.949 375.578 304.439 376.232 303.39 376.679C302.863 376.938 302.311 377.153 301.741 377.323C302.218 376.992 302.732 376.706 303.274 376.471C304.289 375.962 305.776 375.255 307.643 374.393C311.367 372.751 316.624 370.683 322.549 368.698C327.606 366.993 332.758 365.526 337.985 364.303C339.99 363.825 341.627 363.513 342.769 363.315C343.368 363.202 343.978 363.14 344.59 363.128Z" fill="#E0E0E0"/>
<path d="M290.836 424.543C290.688 424.406 290.557 424.257 290.444 424.096L289.418 422.776C288.53 421.612 287.297 419.918 285.81 417.798C282.812 413.559 278.893 407.583 274.662 400.933C270.431 394.282 266.593 388.286 263.676 384.005L260.218 378.923L259.296 377.541C259.174 377.388 259.077 377.22 259.007 377.042C259.007 377.042 259.157 377.178 259.399 377.479C259.641 377.78 260.022 378.269 260.425 378.809C261.313 379.963 262.546 381.656 264.045 383.787C267.031 388.026 270.962 393.991 275.192 400.642C279.423 407.292 283.262 413.288 286.167 417.58L289.625 422.651C289.994 423.202 290.305 423.69 290.548 424.033C290.671 424.189 290.768 424.361 290.836 424.543Z" fill="#E0E0E0"/>
<path d="M346.377 398.512C346.215 398.64 346.032 398.745 345.835 398.823L344.233 399.592L338.284 402.388C333.258 404.757 326.364 408.093 318.756 411.74C311.148 415.388 304.22 418.723 299.159 420.989C296.623 422.121 294.548 423.067 293.118 423.618L291.389 424.304C291.199 424.394 290.998 424.464 290.79 424.512C290.954 424.387 291.137 424.282 291.331 424.2L292.945 423.431L298.894 420.625C303.908 418.266 310.802 414.93 318.41 411.273C326.019 407.615 332.958 404.3 338.008 402.034C340.544 400.902 342.619 399.956 344.048 399.405L345.708 398.72C345.918 398.62 346.143 398.55 346.377 398.512Z" fill="#E0E0E0"/>
<path d="M143.141 214.819C143.141 214.819 129.446 216.534 137.135 243.573C144.824 270.612 151.349 284.557 151.349 284.557C151.349 284.557 152.375 290.678 146.899 290.491C141.424 290.304 130.253 286.334 126.46 291.623C122.541 297.152 125.976 303.802 134.53 310.775C143.083 317.748 161.321 333.637 162.957 335.081C164.594 336.526 165.793 339.498 162.035 339.903C158.277 340.308 131.625 337.492 130.91 348.975C130.195 360.457 157.666 376.336 160.629 378.123C163.592 379.911 164.087 381.303 163.396 382.862C162.704 384.42 153.874 382.706 146.254 382.176C138.634 381.646 129.688 382.259 129.884 388.91C130.08 395.56 144.513 412.395 186.59 424.906L206.521 429.551L221.242 416.479C250.869 386.769 254.108 365.705 250.615 359.844C247.122 353.983 239.087 357.465 232.701 361.33C226.314 365.196 219.628 370.683 218.199 369.644C216.769 368.604 216.401 367.17 217.991 364.292C219.582 361.413 234.672 335.331 227.709 325.687C220.747 316.044 199.166 330.405 195.708 331.725C192.25 333.044 191.627 329.906 192.25 327.953C192.872 325.999 199.904 304.052 203.524 294.128C207.144 284.204 206.452 276.909 199.996 273.875C193.771 270.955 186.29 279.434 181.633 282.053C176.975 284.671 174.508 278.935 174.508 278.935C174.508 278.935 172.479 263.919 164.249 237.005C156.018 210.091 142.888 214.913 142.888 214.913" fill="#EBEBEB"/>
<path d="M206.51 434.02C200.55 414.275 190.601 378.944 181.898 348.611C173.194 318.278 165.286 290.927 159.43 271.121C156.502 261.228 154.127 253.226 152.513 247.667C151.706 244.913 151.072 242.762 150.634 241.286L150.15 239.624C150.046 239.25 150.012 239.052 150.012 239.052C150.012 239.052 150.092 239.229 150.219 239.603C150.346 239.977 150.519 240.549 150.749 241.255C151.222 242.731 151.902 244.861 152.755 247.605C154.484 253.122 156.928 261.114 159.903 271.006C165.862 290.75 173.851 318.195 182.555 348.465C191.258 378.736 201.126 414.099 206.982 433.905" fill="#E0E0E0"/>
<path d="M141.839 297.796C142.299 297.968 142.739 298.18 143.153 298.43C143.971 298.867 145.147 299.532 146.611 300.363C149.481 302.036 153.389 304.437 157.643 307.149L168.502 314.132L171.811 316.21C172.228 316.444 172.615 316.719 172.964 317.031C172.499 316.862 172.054 316.649 171.638 316.397C170.819 315.961 169.644 315.296 168.18 314.454C165.332 312.76 161.459 310.297 157.205 307.596L146.288 300.685L142.968 298.607C142.561 298.374 142.182 298.102 141.839 297.796Z" fill="#E0E0E0"/>
<path d="M174.635 316.169C174.485 316.085 179.615 308.614 186.082 299.48C192.549 290.345 197.933 283.009 198.083 283.092C198.233 283.175 193.103 290.657 186.624 299.791C180.145 308.926 174.785 316.231 174.635 316.169Z" fill="#E0E0E0"/>
<path d="M185.679 363.221C185.998 362.862 186.366 362.541 186.774 362.265L189.875 359.813C192.492 357.734 196.1 354.866 199.95 351.562C203.801 348.257 207.19 345.171 209.611 342.916C210.763 341.877 211.709 340.952 212.481 340.245C212.83 339.897 213.216 339.58 213.634 339.3C213.379 339.697 213.069 340.064 212.712 340.391C212.089 341.066 211.155 342.022 209.98 343.186C207.674 345.524 204.308 348.673 200.434 351.978C196.561 355.282 192.918 358.129 190.221 360.125C188.861 361.164 187.754 361.912 186.97 362.442C186.573 362.744 186.14 363.005 185.679 363.221Z" fill="#E0E0E0"/>
<path d="M151.96 352.487C152.425 352.537 152.882 352.638 153.32 352.788L156.974 353.827C160.041 354.711 164.272 355.968 168.929 357.381C173.586 358.795 177.794 360.125 180.826 361.112L184.411 362.296C184.857 362.422 185.286 362.593 185.69 362.806C185.225 362.763 184.767 362.665 184.33 362.515L180.676 361.476C177.609 360.592 173.379 359.335 168.721 357.911C164.064 356.488 159.856 355.168 156.825 354.191L153.239 352.996C152.79 352.879 152.359 352.708 151.96 352.487Z" fill="#E0E0E0"/>
<path d="M155.856 395.145C156.45 395.225 157.033 395.357 157.597 395.54L162.277 396.828C166.22 397.94 171.649 399.509 177.644 401.286C183.638 403.063 189.045 404.685 192.953 405.9L197.564 407.355C198.138 407.521 198.697 407.726 199.236 407.968C198.638 407.889 198.051 407.757 197.483 407.573L192.803 406.285C188.861 405.173 183.431 403.604 177.436 401.827C171.442 400.05 166.035 398.418 162.139 397.213L157.528 395.748C156.952 395.593 156.392 395.391 155.856 395.145Z" fill="#E0E0E0"/>
<path d="M198.29 407.397C198.696 406.948 199.148 406.534 199.639 406.16L203.455 402.928C206.671 400.195 211.098 396.403 215.859 392.09C220.62 387.778 224.827 383.777 227.848 380.867L231.421 377.417C231.842 376.976 232.301 376.566 232.793 376.191C232.457 376.68 232.071 377.139 231.64 377.563C230.856 378.425 229.681 379.641 228.182 381.137C225.242 384.13 221.092 388.183 216.308 392.495C211.524 396.808 207.086 400.57 203.766 403.23C202.106 404.55 200.757 405.62 199.8 406.347C199.33 406.734 198.825 407.085 198.29 407.397Z" fill="#E0E0E0"/>
<path d="M83.6575 53.5732L72.4063 50.4557C72.4063 50.4557 69.4552 58.9768 59.5874 56.3685C57.677 55.8943 55.9774 54.8965 54.7237 53.5132C53.4701 52.13 52.7244 50.4296 52.59 48.6475C52.4423 47.1447 52.6947 45.6319 53.3263 44.2347C53.9579 42.8376 54.9504 41.5965 56.2213 40.6148C59.1147 38.3079 64.187 36.905 71.3458 40.2407L79.2654 17.3792L68.141 14.2617L63.5299 27.6565C63.5299 27.6565 46.6532 26.8979 41.2927 42.3918C36.1628 57.2206 49.7196 64.8169 56.0368 66.5938C60.8324 67.9447 77.6746 71.5195 83.6575 53.5732Z" fill="#F5F5F5"/>
<path d="M69.6479 9.50332L80.9386 12.6792L84.2282 3.17596L72.9376 8.23583e-05L69.6479 9.50332Z" fill="#F5F5F5"/>
<path d="M114.702 27.76L119.209 26.7209C119.072 26.2594 119.038 25.7778 119.111 25.3045C119.184 24.8312 119.362 24.3761 119.634 23.966C119.906 23.5559 120.267 23.1994 120.695 22.9175C121.123 22.6356 121.61 22.4342 122.126 22.3252C122.877 22.1208 123.68 22.1321 124.423 22.3574C125.167 22.5827 125.814 23.0108 126.276 23.5826C126.668 24.0573 126.929 24.6089 127.04 25.1923C127.15 25.7756 127.105 26.3742 126.91 26.9391C126.483 28.2588 125.112 29.6929 121.93 29.9319L124.616 39.0869L129.066 38.0477L127.498 32.6856C129.185 31.7682 130.491 30.3759 131.214 28.7233C131.937 27.0708 132.037 25.2498 131.498 23.541C129.769 17.597 123.429 17.6282 120.927 18.2205C118.99 18.6258 112.523 20.6106 114.702 27.76Z" fill="#EBEBEB"/>
<path d="M130.636 39.3826L126.096 40.4795L127.232 44.2998L131.772 43.2028L130.636 39.3826Z" fill="#EBEBEB"/>
<path d="M486.832 132.933L491.212 134.357C491.396 133.91 491.677 133.501 492.039 133.153C492.401 132.805 492.837 132.526 493.32 132.333C493.804 132.139 494.325 132.034 494.854 132.025C495.383 132.016 495.909 132.102 496.4 132.279C497.138 132.493 497.784 132.907 498.251 133.465C498.717 134.023 498.981 134.698 499.005 135.396C499.032 135.992 498.902 136.586 498.626 137.128C498.349 137.669 497.934 138.145 497.414 138.514C496.262 139.376 494.198 139.844 491.432 138.41L487.846 147.315L492.181 148.729L494.279 143.533C496.246 143.643 498.199 143.168 499.838 142.18C501.477 141.193 502.711 139.748 503.351 138.067C505.657 132.289 500.458 129.078 498.002 128.278C496.123 127.613 489.552 125.94 486.832 132.933Z" fill="#EBEBEB"/>
<path d="M491.533 150.534L487.132 149.097L485.644 152.8L490.045 154.237L491.533 150.534Z" fill="#EBEBEB"/>
<path d="M21.9375 178.157L31.1598 174.936C31.1598 174.936 28.1626 167.921 36.1975 164.981C37.7352 164.394 39.437 164.252 41.0681 164.574C42.6992 164.896 44.1793 165.666 45.3045 166.778C46.2617 167.703 46.9631 168.818 47.3518 170.034C47.7404 171.249 47.8052 172.53 47.5409 173.772C46.9645 176.661 44.4283 180.007 37.7537 181.16L45.8232 200L55.0455 196.82L50.3191 185.785C50.3191 185.785 61.8469 178.323 56.4403 165.542C51.1952 153.321 37.7768 154.714 32.6238 156.511C28.6467 157.894 15.4589 163.474 21.9375 178.157Z" fill="#F5F5F5"/>
<path d="M56.7926 200.655L47.4877 203.887L50.8363 211.722L60.1412 208.49L56.7926 200.655Z" fill="#F5F5F5"/>
<path d="M490.44 209.863L483.869 212.139C483.869 212.139 485.99 217.116 480.296 219.195C479.205 219.605 478.001 219.704 476.846 219.477C475.692 219.25 474.642 218.709 473.84 217.927C473.162 217.271 472.665 216.481 472.391 215.619C472.116 214.758 472.072 213.85 472.261 212.97C472.676 210.892 474.474 208.564 479.177 207.774L473.529 194.379L467.027 196.634L470.37 204.459C468.004 206.091 466.298 208.378 465.515 210.969C464.732 213.56 464.915 216.312 466.036 218.8C469.736 227.456 479.212 226.479 482.901 225.201C485.691 224.214 495.028 220.265 490.44 209.863Z" fill="#F5F5F5"/>
<path d="M465.741 193.919L472.335 191.629L469.964 186.082L463.37 188.372L465.741 193.919Z" fill="#F5F5F5"/>
<path d="M509 439.652C509 439.807 395.047 439.922 254.512 439.922C113.976 439.922 0 439.807 0 439.652C0 439.496 113.93 439.381 254.512 439.381C395.093 439.381 509 439.506 509 439.652Z" fill="#263238"/>
<path d="M73.098 412.665C74.2508 408.841 71.4034 405.006 68.2909 402.273C65.1784 399.54 61.4549 397.025 59.8295 393.357C57.2011 387.413 60.7287 379.723 56.2559 374.767C53.616 371.857 48.8896 370.88 46.5494 367.763C45.4674 366.044 44.7519 364.159 44.4398 362.203C41.9524 352.33 36.5652 343.243 28.8427 335.892C28.3221 344.685 30.4365 353.444 34.964 361.247C36.7738 364.365 39.0102 367.399 39.5751 370.88C40.555 376.523 37.0505 382.311 38.5952 387.881C40.359 394.22 48.2555 398.47 48.6244 404.996C48.9472 410.514 43.6098 415.387 44.0133 420.874C44.3366 423.224 45.2815 425.469 46.7685 427.421C51.4949 434.518 58.4577 439.402 68.9941 439.246L81.9053 439.652L73.098 412.665Z" fill="#CD5954"/>
<g opacity="0.3">
<path d="M73.098 412.665C74.2508 408.841 71.4034 405.006 68.2909 402.273C65.1784 399.54 61.4549 397.025 59.8295 393.357C57.2011 387.413 60.7287 379.723 56.2559 374.767C53.616 371.857 48.8896 370.88 46.5494 367.763C45.4674 366.044 44.7519 364.159 44.4398 362.203C41.9524 352.33 36.5652 343.243 28.8427 335.892C28.3221 344.685 30.4365 353.444 34.964 361.247C36.7738 364.365 39.0102 367.399 39.5751 370.88C40.555 376.523 37.0505 382.311 38.5952 387.881C40.359 394.22 48.2555 398.47 48.6244 404.996C48.9472 410.514 43.6098 415.387 44.0133 420.874C44.3366 423.224 45.2815 425.469 46.7685 427.421C51.4949 434.518 58.4577 439.402 68.9941 439.246L81.9053 439.652L73.098 412.665Z" fill="black"/>
</g>
<path d="M84.5106 439.891C85.693 440.055 86.8982 440.034 88.0727 439.828C89.4987 439.633 90.9002 439.313 92.2573 438.872C94.1315 438.285 95.8845 437.421 97.4448 436.316C98.3836 435.636 99.117 434.753 99.5775 433.749C99.9631 432.625 100.165 431.456 100.177 430.279C100.203 429.02 100.307 427.764 100.488 426.517C100.731 425.189 101.264 423.917 102.056 422.776C103.578 420.365 106.114 418.079 106.921 414.805C107.728 411.532 107.174 408.103 106.575 404.611C105.975 401.12 105.422 397.337 106.875 393.679C108.327 390.021 111.094 386.748 112.512 382.654C113.93 378.56 113.261 374.05 113.561 369.654C113.649 367.421 114.221 365.225 115.244 363.19C116.281 361.112 117.734 359.19 118.864 357.028C121.169 352.643 121.561 347.676 122.184 342.802C122.495 340.35 122.795 337.866 123.106 335.372C123.302 332.851 123.785 330.354 124.547 327.921C125.421 325.469 126.453 323.065 127.636 320.72C128.246 319.507 128.747 318.253 129.135 316.968C129.352 315.639 129.491 314.3 129.55 312.957C129.687 310.269 129.572 307.575 129.204 304.904C128.858 302.223 128.316 299.563 127.994 296.871C127.994 296.705 127.994 296.549 127.994 296.404L127.924 295.874L127.406 296.102C124.68 297.363 122.313 299.173 120.489 301.391C118.7 303.564 117.26 305.953 116.212 308.489C114.056 313.487 113.284 318.725 112.2 323.723C111.117 328.721 109.733 333.637 106.898 337.793C105.48 339.872 103.762 341.763 102.286 343.779C100.684 345.746 99.5893 348.011 99.0818 350.409C98.3094 355.334 101.318 359.657 100.696 364.022C100.415 366.16 99.6286 368.218 98.3901 370.059C97.2373 371.919 95.8424 373.644 94.5283 375.369C93.1963 377.061 92.0387 378.86 91.0699 380.742C90.1581 382.584 89.6193 384.558 89.4791 386.571C89.1678 390.499 89.7788 394.22 89.4791 397.732C89.1191 401.08 88.0343 404.331 86.2859 407.303C84.7296 410.16 82.9889 412.748 81.5364 415.263C80.8101 416.51 80.13 417.736 79.5767 418.972C79.053 420.16 78.6667 421.392 78.4239 422.651C78.038 424.849 78.007 427.085 78.3317 429.291C78.6703 432.367 79.9471 435.299 82.0206 437.76C82.3375 438.133 82.6884 438.48 83.0696 438.8C83.3242 439.041 83.6062 439.256 83.9111 439.444C84.3953 439.766 84.6489 439.912 84.6489 439.912C83.7273 439.255 82.8885 438.509 82.1474 437.688C80.1682 435.217 78.9726 432.307 78.689 429.271C78.3955 427.093 78.4498 424.888 78.8504 422.724C79.0931 421.495 79.4796 420.294 80.0032 419.139C80.5873 417.889 81.2453 416.668 81.9744 415.481C83.4385 412.987 85.1907 410.41 86.7816 407.531C88.5822 404.513 89.7027 401.204 90.0785 397.794C90.4244 394.209 89.8249 390.468 90.1477 386.644C90.2962 384.696 90.8229 382.786 91.7039 381.002C92.6787 379.159 93.8362 377.399 95.1623 375.743C96.4765 374.018 97.8713 372.293 99.0702 370.392C100.386 368.481 101.228 366.336 101.537 364.105C102.16 359.46 99.174 355.116 99.9463 350.533C100.452 348.241 101.51 346.077 103.047 344.194C104.511 342.21 106.241 340.318 107.658 338.188C110.598 333.917 112.016 328.908 113.088 323.889C114.16 318.87 114.956 313.674 117.077 308.77C118.097 306.304 119.498 303.982 121.238 301.869C122.993 299.74 125.269 298.005 127.89 296.798L127.302 296.497C127.302 296.653 127.302 296.809 127.36 296.975C127.682 299.698 128.224 302.358 128.512 305.018C128.876 307.647 128.988 310.3 128.847 312.947C128.788 314.248 128.658 315.545 128.455 316.833C128.082 318.076 127.596 319.289 127.002 320.46C125.813 322.83 124.773 325.258 123.89 327.734C123.121 330.205 122.635 332.74 122.437 335.299C122.137 337.804 121.826 340.287 121.526 342.74C120.904 347.634 120.5 352.518 118.299 356.748C117.146 358.826 115.763 360.811 114.69 362.931C113.635 365.042 113.048 367.319 112.961 369.633C112.673 374.122 113.319 378.518 111.97 382.488C110.621 386.457 107.82 389.762 106.402 393.513C104.984 397.264 105.503 401.234 106.125 404.715C106.748 408.196 107.37 411.626 106.54 414.712C105.71 417.798 103.336 420.105 101.791 422.578C100.976 423.769 100.432 425.094 100.188 426.475C100.014 427.737 99.9219 429.007 99.9118 430.279C99.9136 431.426 99.7271 432.568 99.3584 433.666C98.9314 434.618 98.2456 435.458 97.3641 436.108C95.8456 437.212 94.1358 438.083 92.3034 438.685C90.9641 439.151 89.5782 439.499 88.1649 439.725C87.3011 439.866 86.4259 439.942 85.5481 439.953C84.8218 439.891 84.5106 439.891 84.5106 439.891Z" fill="#263238"/>
<path d="M125.296 302.826C125.234 302.937 125.192 303.056 125.169 303.179L124.893 304.218C124.639 305.143 124.328 306.525 123.844 308.25C123.359 309.975 122.172 311.929 121.169 314.329C119.994 317.032 118.971 319.785 118.103 322.58C117.111 325.698 116.247 329.127 115.324 332.826C114.541 336.767 113.152 340.589 111.198 344.184C110.137 346.076 108.892 347.988 108.004 350.087C107.073 352.23 106.45 354.472 106.148 356.758C105.493 361.492 104.561 366.192 103.359 370.839C100.776 380.368 98.3094 389.45 96.0615 397.722C93.8135 405.994 91.6924 413.392 89.9402 419.648C88.188 425.904 86.8623 430.892 85.8939 434.456C85.4443 436.16 85.087 437.501 84.8334 438.488C84.7296 438.914 84.6374 439.257 84.5682 439.527C84.5555 439.648 84.5555 439.77 84.5682 439.891C84.6352 439.783 84.6856 439.668 84.7181 439.548C84.7988 439.267 84.9141 438.935 85.0524 438.509C85.3406 437.542 85.7441 436.202 86.2628 434.508C87.3003 430.975 88.7644 425.956 90.5742 419.773C92.3841 413.59 94.4937 406.108 96.8569 397.888C99.2201 389.668 101.618 380.524 104.223 370.984C105.418 366.326 106.327 361.611 106.944 356.862C107.238 354.631 107.842 352.442 108.742 350.346C109.653 348.268 110.817 346.408 111.878 344.496C114.183 340.703 115.094 336.63 116.005 332.961C116.915 329.293 117.722 325.822 118.668 322.726C119.613 319.629 120.604 316.865 121.596 314.475C122.587 312.085 123.682 310.11 124.155 308.323C124.627 306.535 124.846 305.205 125.054 304.249C125.131 303.82 125.2 303.473 125.261 303.21C125.296 302.95 125.319 302.826 125.296 302.826Z" fill="#263238"/>
<path d="M86.7931 439.943C95.22 435.422 97.6408 421.706 94.1248 413.455C90.6088 405.204 84.453 397.659 83.5077 388.858C82.7699 382.093 85.2369 375.151 83.5077 368.542C81.1445 359.616 71.4841 352.705 71.5994 343.529C71.6571 338.386 74.9079 333.543 74.6428 328.399C74.3315 322.102 68.9596 317.093 65.6395 311.544C60.5442 303.033 60.2099 292.985 58.4692 283.487C56.7285 273.989 52.7053 263.743 43.3216 259.056C41.9383 267.151 39.5751 272.7 40.3129 283.663C40.5895 287.602 45.6618 295.094 46.3535 303.771C46.7685 308.967 47.0451 314.1 47.4025 319.255C47.7599 324.409 48.1057 329.397 50.1 334.094C51.6332 337.7 54.0886 340.973 55.2299 344.693C57.3626 351.687 54.5498 359.242 56.2789 366.349C57.743 372.356 62.3541 377.52 63.2994 383.61C64.6136 392.162 58.4808 401.057 61.6163 409.215C63.1841 413.268 66.873 416.489 67.922 420.698C68.7405 423.94 67.8529 427.379 68.5907 430.632C69.7434 435.89 80.8793 439.984 86.8162 439.641" fill="#CD5954"/>
<path d="M45.6272 267.048C45.6115 267.2 45.6115 267.353 45.6272 267.505C45.6272 267.848 45.7425 268.284 45.8117 268.835C46.0076 270.009 46.2267 271.724 46.6647 273.948C47.1028 276.172 48.417 278.686 49.4314 281.721C50.4459 284.755 51.5756 288.226 52.5209 292.112C53.4661 295.999 54.2961 300.332 55.1377 304.977C55.9792 309.622 56.9014 314.683 59.4606 319.525C60.6134 321.947 61.9737 324.378 62.919 326.976C63.8875 329.635 64.4839 332.393 64.6943 335.186C65.1655 341.11 65.9929 347.007 67.1727 352.851C69.755 364.843 72.2104 376.264 74.4468 386.666C76.6832 397.068 78.9311 406.347 80.7295 414.203C82.5278 422.059 84.0034 428.336 85.0294 432.763L86.1821 437.803C86.3205 438.343 86.4242 438.769 86.5164 439.102C86.5476 439.254 86.5939 439.404 86.6548 439.548C86.6752 439.397 86.6752 439.243 86.6548 439.091C86.5856 438.748 86.5049 438.322 86.4012 437.771C86.1476 436.566 85.7902 434.862 85.3406 432.7C84.3723 428.263 83.035 421.924 81.2943 414.099C79.5536 406.275 77.4901 396.891 75.1961 386.53C72.9021 376.17 70.585 364.708 67.9912 352.727C66.8107 346.882 65.9795 340.985 65.5012 335.061C65.2818 332.211 64.666 329.397 63.6683 326.685C62.6423 324.046 61.2935 321.604 60.1062 319.193C57.5701 314.423 56.6478 309.446 55.7717 304.821C54.8956 300.197 54.0541 295.853 53.0511 291.946C52.0482 288.039 50.9531 284.547 49.8233 281.555C48.6936 278.562 47.4371 276.026 46.9299 273.854C46.4226 271.682 46.1806 269.937 45.9385 268.783C45.8232 268.243 45.731 267.806 45.6618 267.464C45.6594 267.324 45.6478 267.186 45.6272 267.048Z" fill="#263238"/>
<path d="M452.168 49.9675H447.557C447.56 50.4389 447.458 50.9061 447.257 51.3415C447.057 51.7768 446.761 52.1714 446.388 52.5018C446.015 52.8323 445.572 53.0919 445.086 53.2652C444.599 53.4385 444.079 53.5221 443.557 53.511C442.784 53.536 442.023 53.3431 441.378 52.9594C440.734 52.5757 440.238 52.0202 439.96 51.3703C439.717 50.8292 439.62 50.2439 439.676 49.6624C439.732 49.0808 439.94 48.5195 440.283 48.0242C441.067 46.8604 442.773 45.8108 445.862 46.2992V36.9468H441.332V42.4128C439.473 42.9061 437.844 43.9357 436.697 45.3436C435.55 46.7514 434.946 48.4598 434.98 50.2065C434.98 56.2544 440.997 57.6572 443.58 57.6572C445.551 57.6988 452.26 57.2728 452.168 49.9675Z" fill="#CD5954"/>
<path d="M441.297 35.0547H445.897V31.1786H441.297V35.0547Z" fill="#CD5954"/>
<path d="M477.31 44.4381C477.325 44.2617 477.325 44.0845 477.31 43.9081C477.31 43.534 477.31 43.0248 477.31 42.3702C477.31 42.0376 477.31 41.6531 477.252 41.2375C477.195 40.8218 477.126 40.3646 477.045 39.8866C476.964 39.4085 476.884 38.8474 476.791 38.2966L476.307 36.5301C475.451 33.4878 474.049 30.592 472.157 27.957C469.41 24.0547 465.707 20.7723 461.332 18.3619C456.958 15.9515 452.028 14.4775 446.923 14.053C445.39 13.931 443.849 13.9032 442.312 13.9699C441.539 13.9699 440.744 13.9699 440.006 14.105L437.631 14.4271C434.373 14.973 431.22 15.9426 428.271 17.3056C425.192 18.7742 422.362 20.6324 419.867 22.8235C417.312 25.1573 415.177 27.8359 413.538 30.7627C411.774 33.7802 410.619 37.0558 410.126 40.4373C409.982 41.294 409.901 42.1584 409.884 43.0248C409.807 43.8924 409.788 44.7634 409.826 45.6331C410.077 51.2076 412.01 56.6149 415.417 61.2725V60.9503C413.815 64.5562 412.235 68.0998 410.691 71.5498L410.414 72.1837L411.14 71.9966L423.706 68.8791L423.406 68.8168C427.638 71.7047 432.568 73.649 437.793 74.4906C440.216 74.8979 442.687 75.034 445.147 74.8959C446.334 74.8799 447.517 74.7792 448.686 74.5945L450.404 74.3555C450.969 74.262 451.557 74.1061 452.064 73.9918C459.807 72.223 466.599 68.0272 471.223 62.1558C472.948 59.9928 474.333 57.6254 475.339 55.1207C475.558 54.5699 475.765 54.0815 475.961 53.5411C476.157 53.0008 476.261 52.502 476.388 52.0343C476.515 51.5667 476.653 51.0887 476.768 50.6523C476.884 50.2158 476.918 49.7898 476.987 49.3845C477.091 48.5843 477.252 47.8777 477.287 47.3062C477.322 46.7346 477.287 46.1839 477.287 45.7474C477.287 45.311 477.287 45.0408 477.287 44.8018C477.287 44.5628 477.287 44.4796 477.287 44.4796C477.269 44.5864 477.269 44.695 477.287 44.8018C477.287 45.0408 477.287 45.3525 477.206 45.7474C477.126 46.1423 477.137 46.6931 477.091 47.2958C477.045 47.8985 476.872 48.6051 476.734 49.3741C475.634 55.1254 472.706 60.4652 468.304 64.7449C463.902 69.0246 458.216 72.0601 451.937 73.4826C451.395 73.5969 450.854 73.7424 450.3 73.8359L448.606 74.0645C447.462 74.2366 446.306 74.3304 445.147 74.3451C442.732 74.4599 440.309 74.3169 437.931 73.9191C432.828 73.0726 428.016 71.1615 423.879 68.3388L423.74 68.2349H423.567L410.99 71.3523L411.428 71.7992L416.166 61.2101L416.236 61.0439L416.132 60.888C413.862 57.7921 412.251 54.3421 411.382 50.7146C410.984 49.0317 410.745 47.3213 410.668 45.6019C410.629 44.753 410.648 43.9028 410.725 43.056C410.732 42.2103 410.809 41.3662 410.956 40.5308C411.398 37.2286 412.487 34.0234 414.172 31.0641C415.774 28.2037 417.854 25.5822 420.339 23.2912C422.781 21.14 425.553 19.3167 428.57 17.8771C431.454 16.5252 434.541 15.5624 437.735 15.0195L440.041 14.6973C440.813 14.5934 441.585 14.6038 442.346 14.5518C443.849 14.4874 445.354 14.5117 446.854 14.6246C451.875 15.0208 456.731 16.4433 461.051 18.7841C465.372 21.1249 469.044 24.3223 471.788 28.1337C473.691 30.7227 475.115 33.5722 476.007 36.5716L476.526 38.3174C476.63 38.8682 476.722 39.3566 476.814 39.8762C476.907 40.3957 476.976 40.8114 477.056 41.2271C477.137 41.6427 477.114 42.0168 477.149 42.3494C477.149 42.9937 477.241 43.5028 477.275 43.8769C477.254 44.0644 477.265 44.2539 477.31 44.4381Z" fill="#263238"/>
<path d="M329.892 159.017C328.739 161.095 333.039 162.799 335.518 163.475C338.046 164.034 340.663 164.196 343.253 163.953C346.711 163.787 350.25 163.496 353.236 161.958C355.851 160.497 357.941 158.386 359.253 155.879C360.548 153.379 361.571 150.772 362.308 148.095C362.308 148.095 335.068 149.696 329.892 159.017Z" fill="#CD5954"/>
<g opacity="0.4">
<path d="M329.892 159.017C328.739 161.095 333.039 162.799 335.518 163.475C338.046 164.034 340.663 164.196 343.253 163.953C346.711 163.787 350.25 163.496 353.236 161.958C355.851 160.497 357.941 158.386 359.253 155.879C360.548 153.379 361.571 150.772 362.308 148.095C362.308 148.095 335.068 149.696 329.892 159.017Z" fill="black"/>
</g>
<path d="M406.829 152.366C411.32 155.237 416.701 156.757 422.207 156.709C424.846 156.842 427.448 156.103 429.527 154.631C430.415 153.893 431.083 152.958 431.994 152.251C432.617 151.773 433.343 151.41 433.931 150.9C434.241 150.66 434.48 150.353 434.627 150.009C434.774 149.664 434.824 149.292 434.772 148.926C434.545 148.024 433.984 147.217 433.181 146.64C430.057 145.04 426.322 145.102 422.726 145.175C419.126 145.315 415.571 145.942 412.178 147.035C409.388 147.887 406.471 149.113 405.054 151.399" fill="#CD5954"/>
<g opacity="0.4">
<path d="M434.772 148.926C434.365 148.049 433.647 147.319 432.732 146.847C429.608 145.247 426.322 145.102 422.726 145.174C419.126 145.315 415.571 145.942 412.178 147.034C409.388 147.887 406.471 149.113 405.054 151.399L406.829 152.365C411.32 155.237 416.701 156.757 422.207 156.709C424.846 156.842 427.448 156.103 429.527 154.631C430.415 153.893 431.083 152.958 431.994 152.251C432.617 151.773 433.343 151.409 433.931 150.9C434.241 150.659 434.48 150.353 434.627 150.008C434.774 149.664 434.824 149.292 434.772 148.926Z" fill="black"/>
</g>
<path d="M353.639 189.661L411.106 190.347C411.223 190.347 411.338 190.322 411.442 190.274C411.547 190.227 411.637 190.158 411.707 190.073C411.776 189.988 411.823 189.89 411.842 189.786C411.862 189.682 411.855 189.575 411.82 189.474L405.077 170.52C405.077 170.52 406.068 161.043 407.44 149.653C409.526 132.351 412.305 110.602 412.339 110.664C408.408 100.73 385.214 99.0464 385.214 99.0464L358.781 100.46L357.859 99.0568L350.25 102.247C348.591 102.943 346.995 103.756 345.478 104.679C340.452 107.703 328.347 114.655 326.134 122.396C321.027 140.322 329.673 160.326 329.673 160.326L335.229 156.408C336.629 155.436 338.1 154.551 339.633 153.758L350.769 180.662C350.106 181.039 349.545 181.544 349.126 182.141C348.707 182.737 348.442 183.411 348.348 184.112C348.256 186.294 349.501 188.913 353.639 189.661" fill="#CD5954"/>
<g opacity="0.3">
<path d="M378.297 157.946C380.119 149.113 379.162 140.031 378.182 131.094C375 138.368 375.116 146.682 371.738 153.893C371.324 154.655 371.022 155.462 370.839 156.294C370.751 156.712 370.774 157.142 370.906 157.551C371.038 157.959 371.276 158.333 371.6 158.642C372.522 159.401 373.905 158.985 375.127 158.861C376.221 158.673 377.286 158.365 378.297 157.946Z" fill="black"/>
</g>
<g opacity="0.4">
<path d="M357.098 178.397C361.709 179.841 366.62 177.15 371.496 176.672C374.724 176.36 377.952 177.025 381.156 177.493C387.637 178.438 394.229 178.585 400.754 177.929C401.755 177.88 402.735 177.65 403.636 177.254C404.101 176.968 404.482 176.583 404.745 176.134C405.009 175.685 405.146 175.185 405.146 174.677C394.287 173.637 383.439 173.076 372.58 172.068C369.877 171.653 367.108 171.734 364.441 172.307C361.167 173.222 358.677 175.539 356.371 177.836" fill="black"/>
</g>
<path d="M433.112 145.517C428.42 135.988 411.878 109.635 411.878 109.635L399.071 124.111L402.056 152.532C402.056 152.532 408.823 145.725 427.74 145.59C429.115 145.64 430.46 145.966 431.677 146.545C432.894 147.124 433.951 147.941 434.772 148.936L433.112 145.517Z" fill="#CD5954"/>
<path d="M356.21 140.477C355.296 138.457 354.571 136.371 354.043 134.242C353.327 132.169 352.802 130.045 352.475 127.893C353.375 129.917 354.096 132.002 354.631 134.128C355.347 136.202 355.875 138.326 356.21 140.477Z" fill="#263238"/>
<path d="M398.102 122.189C398.519 122.455 398.905 122.758 399.255 123.093C400.273 123.98 401.228 124.924 402.114 125.92C405.095 129.204 407.19 133.067 408.235 137.205C408.778 139.492 408.898 141.844 408.593 144.167C408.304 146.297 407.855 148.168 407.555 149.747C407.255 151.327 407.071 152.616 406.979 153.509C406.976 153.974 406.922 154.437 406.817 154.891C406.736 154.428 406.712 153.957 406.748 153.488C406.799 152.215 406.93 150.945 407.14 149.685C407.382 148.095 407.786 146.204 408.051 144.115C408.317 141.845 408.181 139.551 407.647 137.319C406.615 133.259 404.612 129.45 401.78 126.159C399.67 123.602 398.01 122.272 398.102 122.189Z" fill="#263238"/>
<path d="M386.367 187.375C385.966 187.536 385.544 187.647 385.11 187.707C384.618 187.824 384.117 187.911 383.612 187.967C383.024 188.04 382.355 188.154 381.606 188.185C379.85 188.33 378.082 188.33 376.326 188.185C374.177 187.986 372.054 187.603 369.986 187.042C367.928 186.446 365.936 185.677 364.037 184.746C362.498 183.971 361.036 183.078 359.668 182.075C359.069 181.659 358.585 181.223 358.147 180.859C357.769 180.552 357.411 180.226 357.075 179.882C356.754 179.615 356.478 179.307 356.256 178.968C356.337 178.895 357.57 180.142 359.934 181.774C361.314 182.72 362.775 183.568 364.303 184.309C366.18 185.198 368.139 185.939 370.159 186.523C372.192 187.075 374.275 187.464 376.384 187.686C378.106 187.854 379.841 187.902 381.571 187.832C384.534 187.686 386.344 187.292 386.367 187.375Z" fill="#263238"/>
<path d="M404.108 181.473C404.38 181.943 404.533 182.461 404.558 182.99C404.742 184.257 404.636 185.544 404.247 186.772C403.851 188.029 403.048 189.151 401.941 189.994C401.099 190.628 400.454 190.825 400.419 190.773C400.385 190.721 400.927 190.378 401.653 189.734C402.585 188.857 403.262 187.786 403.624 186.616C404.546 183.873 403.889 181.483 404.108 181.473Z" fill="#263238"/>
<path d="M400.984 185.13C401.234 186.199 401.134 187.31 400.696 188.329C400.258 189.347 399.501 190.229 398.517 190.867C398.39 190.752 399.462 189.723 400.131 188.134C400.8 186.544 400.811 185.141 400.984 185.13Z" fill="#263238"/>
<path d="M390.701 150.942C390.091 151.873 389.405 152.762 388.649 153.602C388.053 154.541 387.379 155.437 386.632 156.283C386.853 155.187 387.377 154.157 388.154 153.29C388.768 152.325 389.645 151.517 390.701 150.942Z" fill="#263238"/>
<path d="M351.253 125.774C350.375 125.309 349.524 124.802 348.705 124.257C344.606 121.829 339.953 120.262 335.091 119.674C334.073 119.607 333.061 119.486 332.059 119.31C333.08 119.183 334.116 119.183 335.137 119.31C340.131 119.694 344.915 121.3 348.971 123.955C349.821 124.463 350.59 125.075 351.253 125.774Z" fill="#263238"/>
<path d="M411.878 109.292C409.815 110.79 407.887 112.434 406.114 114.208C404.481 116.101 403.02 118.109 401.745 120.214C401.882 119.506 402.15 118.825 402.54 118.198C403.375 116.64 404.421 115.181 405.653 113.854C406.889 112.531 408.307 111.354 409.872 110.352C410.468 109.898 411.147 109.539 411.878 109.292Z" fill="#263238"/>
<path d="M388.154 100.729C388.259 100.879 388.344 101.04 388.407 101.208C388.632 101.678 388.813 102.165 388.949 102.662C389.435 104.514 389.435 106.443 388.949 108.295C388.232 111.059 386.59 113.558 384.246 115.454C381.287 117.714 377.517 118.925 373.64 118.863C369.76 118.875 365.979 117.756 362.862 115.673C360.378 113.963 358.362 111.762 356.971 109.24C356.033 107.551 355.373 105.749 355.011 103.889C354.905 103.387 354.836 102.881 354.804 102.371C354.771 102.192 354.771 102.01 354.804 101.831C354.804 101.831 354.93 102.558 355.253 103.847C355.702 105.655 356.411 107.401 357.363 109.043C358.769 111.489 360.766 113.62 363.207 115.278C366.211 117.283 369.845 118.375 373.583 118.395C377.319 118.457 380.956 117.306 383.831 115.153C386.095 113.326 387.701 110.93 388.442 108.274C388.955 106.48 389.026 104.608 388.649 102.787C388.43 101.415 388.085 100.75 388.154 100.729Z" fill="#263238"/>
<g opacity="0.3">
<path d="M392.188 152.781C392.188 152.261 392.096 151.648 391.589 151.388C391.428 151.315 391.25 151.277 391.07 151.277C390.89 151.277 390.712 151.315 390.552 151.388C390.229 151.546 389.943 151.757 389.71 152.012C388.355 153.283 387.307 154.794 386.632 156.449L392.281 156.002C392.246 154.953 392.223 153.851 392.188 152.781Z" fill="black"/>
</g>
<g opacity="0.3">
<path d="M410.944 142.068C410.376 139.154 408.96 136.428 406.84 134.17C409.284 141.361 408.466 145.424 407.094 150.35L407.394 149.664C408.973 146.785 411.371 144.977 410.944 142.068Z" fill="black"/>
</g>
<path d="M399.659 383.631L396.212 430.237L373.732 429.998L370.193 381.542L399.659 383.631Z" fill="#FFBE9D"/>
<path d="M396.846 424.107V425.457C396.846 425.457 422.207 434.644 422.449 438.967L372.084 438.717L372.868 423.618C380.372 426.788 388.223 427.182 396.846 424.107Z" fill="#CD5954"/>
<path d="M377.975 428.46C377.497 428.59 377.088 428.873 376.825 429.256C376.561 429.639 376.462 430.095 376.545 430.539C376.668 430.982 376.978 431.365 377.407 431.607C377.837 431.849 378.355 431.932 378.851 431.837C379.364 431.699 379.801 431.394 380.078 430.981C380.355 430.568 380.452 430.077 380.349 429.603C380.167 429.154 379.797 428.787 379.32 428.58C378.842 428.372 378.293 428.341 377.79 428.491" fill="white"/>
<path d="M372.084 438.717L372.268 435.09L420.501 436.669C420.501 436.669 422.737 437.563 422.472 438.976L372.084 438.717Z" fill="#263238"/>
<path d="M397.03 425.582C397.03 425.8 395.785 425.894 394.575 426.621C393.364 427.349 392.707 428.253 392.488 428.17C392.269 428.086 392.638 426.798 394.125 425.967C395.612 425.135 397.088 425.343 397.03 425.582Z" fill="#263238"/>
<path d="M402.298 427.577C402.356 427.796 401.284 428.159 400.442 429.095C399.601 430.03 399.359 431.017 399.105 431.007C398.852 430.996 398.713 429.739 399.785 428.606C400.857 427.474 402.287 427.422 402.298 427.577Z" fill="#263238"/>
<path d="M405.261 433.292C405.03 433.292 404.696 432.253 405.342 431.017C405.987 429.78 407.129 429.333 407.232 429.51C407.336 429.686 406.621 430.341 406.079 431.349C405.538 432.357 405.515 433.271 405.261 433.292Z" fill="#263238"/>
<path d="M395.555 42.7761C396.857 39.8664 395.278 36.3437 392.477 34.4628C389.524 32.7109 385.924 32.0798 382.459 32.7066C379.04 33.3528 375.73 34.4009 372.614 35.8241C371.165 34.5068 369.339 33.5785 367.338 33.1428C365.338 32.7072 363.243 32.7813 361.286 33.3569C359.33 33.9325 357.59 34.9869 356.26 36.4025C354.93 37.8181 354.062 39.539 353.755 41.3732C352.508 41.0904 351.2 41.1189 349.97 41.4556C348.74 41.7922 347.635 42.4244 346.774 43.2843C345.913 44.1441 345.327 45.1992 345.08 46.3362C344.834 47.4733 344.935 48.6494 345.374 49.7385L360.96 54.6745L377.975 81.6927C380.489 83.6266 383.699 84.6698 387.004 84.6275C390.309 84.5853 393.484 83.4606 395.937 81.4632C398.39 79.4658 399.953 76.7323 400.334 73.7725C400.716 70.8127 399.89 67.8289 398.01 65.3778C398.963 64.6136 399.773 63.7152 400.408 62.7176C401.767 61.9928 402.954 61.0316 403.898 59.8898C404.842 58.7481 405.525 57.4486 405.907 56.0669C407.417 50.0502 402.252 43.4827 395.555 42.7761Z" fill="#263238"/>
<path d="M385.237 99.0462C384.269 94.6505 383.6 91.6369 383.612 91.6681C383.623 91.6993 392.834 88.4467 392.165 76.8809C391.843 71.1239 389.41 62.0521 387.151 54.6948C385.122 48.065 378.263 40.7597 371.012 42.8692L349.028 52.5333C346.826 53.1776 346.446 55.0481 346.965 57.0745V58.1136L355.507 89.9743L359.115 104.211C359.884 107.134 361.84 109.692 364.596 111.38C367.353 113.069 370.711 113.766 374.009 113.335C375.81 113.106 377.541 112.548 379.094 111.695C380.648 110.842 381.992 109.712 383.043 108.374C384.095 107.036 384.832 105.519 385.209 103.914C385.586 102.31 385.596 100.654 385.237 99.0462Z" fill="#FFBE9D"/>
<path d="M387.07 62.3849C387.163 62.7536 387.095 63.1402 386.88 63.4651C386.666 63.7899 386.321 64.0281 385.917 64.1306C385.714 64.1819 385.501 64.1955 385.291 64.1706C385.081 64.1457 384.879 64.0828 384.697 63.9857C384.515 63.8887 384.357 63.7594 384.232 63.6057C384.107 63.452 384.017 63.2771 383.969 63.0915C383.877 62.7241 383.945 62.3389 384.16 62.0157C384.375 61.6926 384.719 61.4563 385.122 61.3561C385.325 61.3032 385.538 61.288 385.747 61.3116C385.957 61.3351 386.159 61.3969 386.341 61.4932C386.523 61.5894 386.682 61.7181 386.807 61.8714C386.933 62.0247 387.022 62.1994 387.07 62.3849Z" fill="#263238"/>
<path d="M386.067 60.1714C385.906 60.4 384.511 59.8285 382.805 60.1714C381.099 60.5143 380.015 61.5119 379.785 61.3561C379.554 61.2002 379.785 60.9092 380.257 60.452C380.891 59.8479 381.716 59.4343 382.62 59.2673C383.512 59.094 384.442 59.1851 385.272 59.5271C385.917 59.7661 386.136 60.0779 386.067 60.1714Z" fill="#263238"/>
<path d="M370.332 65.7932C370.424 66.1606 370.355 66.5459 370.141 66.869C369.926 67.1922 369.582 67.4284 369.179 67.5286C368.98 67.5809 368.771 67.597 368.565 67.5761C368.359 67.5552 368.16 67.4976 367.979 67.4068C367.797 67.3159 367.638 67.1936 367.51 67.0468C367.381 66.9001 367.286 66.7318 367.231 66.5518C367.138 66.1831 367.206 65.7965 367.421 65.4716C367.635 65.1468 367.98 64.9085 368.383 64.806C368.583 64.754 368.793 64.7383 368.999 64.7599C369.206 64.7815 369.406 64.8399 369.587 64.9318C369.768 65.0237 369.927 65.1471 370.055 65.295C370.183 65.4429 370.277 65.6123 370.332 65.7932Z" fill="#263238"/>
<path d="M369.49 63.8398C369.34 64.0685 367.934 63.4865 366.228 63.8398C364.522 64.1932 363.438 65.17 363.207 65.0245C362.977 64.879 363.207 64.5776 363.68 64.11C364.317 63.5113 365.142 63.1017 366.043 62.9358C366.934 62.765 367.862 62.8523 368.695 63.1852C369.306 63.4346 369.571 63.7151 369.49 63.8398Z" fill="#263238"/>
<path d="M378.171 73.6079C379.016 73.1876 379.914 72.8596 380.845 72.6311C381.272 72.5064 381.675 72.3505 381.687 72.0699C381.626 71.6566 381.429 71.2692 381.122 70.958L379.127 68.1938C376.338 64.2554 374.217 60.9925 374.389 60.9197C374.562 60.847 376.972 63.9333 379.761 67.8717L381.71 70.6567C382.092 71.0829 382.3 71.6151 382.298 72.1634C382.263 72.3129 382.193 72.4537 382.091 72.5759C381.989 72.698 381.859 72.7984 381.71 72.8701C381.484 72.9777 381.244 73.058 380.995 73.1091C380.083 73.3905 379.133 73.5583 378.171 73.6079Z" fill="#263238"/>
<path d="M383.612 91.668C377.781 92.8559 371.699 92.5609 366.043 90.8159C366.043 90.8159 372.084 97.9238 384.269 94.5257L383.612 91.668Z" fill="#EB996E"/>
<path d="M369.778 61.6367C369.663 62.0835 367.899 62.0731 365.893 62.5199C363.888 62.9668 362.297 63.6422 361.974 63.2889C361.836 63.1227 362.066 62.6862 362.677 62.2498C363.489 61.6333 364.454 61.202 365.49 60.9924C366.517 60.7727 367.587 60.7727 368.614 60.9924C369.432 61.1275 369.859 61.4288 369.778 61.6367Z" fill="#263238"/>
<path d="M385.41 55.266C385.133 55.6817 383.658 55.5778 381.952 55.8791C380.246 56.1805 378.897 56.7001 378.493 56.3987C378.309 56.2428 378.493 55.848 378.989 55.3596C379.75 54.7825 380.67 54.4019 381.652 54.2581C382.617 54.0827 383.618 54.1473 384.545 54.4451C385.249 54.7361 385.525 55.0582 385.41 55.266Z" fill="#263238"/>
<path d="M354.458 45.0929C354.713 46.2186 355.24 47.2799 356.001 48.2013C356.763 49.1227 357.74 49.8817 358.863 50.4243C359.987 50.9668 361.229 51.2797 362.502 51.3407C363.775 51.4017 365.047 51.2093 366.228 50.7771C368.049 50.1121 369.94 48.8651 371.784 49.4678C373.629 50.0705 374.389 52.4398 376.153 53.3231C378.747 54.6324 381.917 52.367 384.811 52.5957C387.116 52.7723 388.857 54.3622 390.644 55.7131C392.431 57.064 394.898 58.0824 396.915 57.1056C396.453 55.3702 395.768 53.6893 394.874 52.0969C393.973 50.4937 392.481 49.2227 390.655 48.5014C389.641 48.1377 388.546 48.013 387.577 47.5661C385.491 46.6101 384.557 44.4486 383.047 42.8172C382.055 41.789 380.806 40.9888 379.402 40.4828C377.999 39.9768 376.482 39.7796 374.977 39.9075C372.487 40.1361 370.124 41.2688 367.611 41.1753C365.755 41.1025 363.98 40.3543 362.124 40.3855C358.516 40.3855 355.807 43.2952 353.801 46.0074" fill="#263238"/>
<path d="M366.608 47.4729C364.948 47.3586 361.559 47.0468 360.441 45.9869C359.305 44.8415 357.855 43.9853 356.236 43.5038C354.618 43.0223 352.888 42.9326 351.219 43.2435C349.562 43.6886 348.108 44.6013 347.071 45.8472C346.033 47.0931 345.467 48.6064 345.455 50.1643C343.438 50.608 341.591 51.5345 340.11 52.846C338.628 54.1574 337.568 55.8051 337.039 57.6151C336.503 59.5098 336.485 61.4937 336.987 63.3961C337.489 65.2986 338.496 67.0626 339.921 68.5366C340.614 69.3172 341.245 70.1401 341.812 70.9995C341.03 71.8736 340.343 72.8131 339.76 73.8052C337.12 79.0633 344.279 81.0793 344.279 81.0793C344.279 84.6125 347.91 84.5917 350.227 84.5813C352.544 84.5709 353.824 90.1512 355.634 89.933L353.801 72.7141C354.069 72.8082 354.354 72.8575 354.642 72.8596C359.011 72.9323 357.87 65.4711 356.464 63.5071C357.765 62.0464 358.865 60.4482 359.738 58.7478C360.529 56.1483 360.584 53.4115 359.899 50.7878C361.363 50.6215 367.323 47.5144 366.608 47.4729Z" fill="#263238"/>
<path d="M354.377 73.628C354.228 73.0809 353.928 72.5767 353.505 72.1624C353.081 71.748 352.548 71.4372 351.955 71.2587C351.363 71.0802 350.729 71.04 350.115 71.1418C349.5 71.2436 348.924 71.484 348.44 71.8407C347.288 72.7344 346.677 74.2307 347.368 76.7351C349.236 83.4273 356.302 80.3618 356.256 80.1747C356.21 79.9877 355.184 76.3922 354.377 73.628Z" fill="#FFBE9D"/>
<path d="M353.282 78.1487C353.282 78.1487 353.178 78.263 352.982 78.3981C352.71 78.5865 352.367 78.6722 352.025 78.6371C351.172 78.554 350.193 77.598 349.824 76.3822C349.648 75.8141 349.612 75.2181 349.72 74.6364C349.732 74.4104 349.804 74.1903 349.93 73.9949C350.057 73.7995 350.234 73.6345 350.446 73.5141C350.586 73.4461 350.748 73.4244 350.904 73.4529C351.06 73.4814 351.2 73.5582 351.299 73.67C351.449 73.8258 351.438 73.9713 351.484 73.9817C351.53 73.9921 351.61 73.8258 351.484 73.566C351.395 73.412 351.254 73.288 351.08 73.2127C350.836 73.1238 350.563 73.1238 350.319 73.2127C350.03 73.3367 349.78 73.5245 349.592 73.7589C349.405 73.9932 349.286 74.2665 349.247 74.5532C349.098 75.2077 349.125 75.8849 349.328 76.5277C349.457 77.1311 349.78 77.6868 350.258 78.125C350.736 78.5632 351.347 78.8643 352.014 78.9905C352.231 78.9984 352.447 78.9624 352.647 78.885C352.846 78.8077 353.024 78.691 353.167 78.5436C353.317 78.315 353.317 78.1591 353.282 78.1487Z" fill="#EB996E"/>
<path d="M394.183 64.2868C394.183 64.2868 394.863 63.8192 395.808 62.78C397.113 61.2827 397.913 59.4794 398.114 57.5842C398.266 56.2905 398.125 54.9822 397.699 53.7393C397.206 52.3135 396.294 51.035 395.059 50.0399C393.633 48.9173 391.906 48.1502 390.05 47.8148C388.193 47.4794 386.272 47.5873 384.476 48.1278C384.13 48.2318 383.808 48.3876 383.485 48.5123C383.162 48.637 382.874 48.8241 382.574 48.9799L382.113 49.2086V48.7513C382.103 47.9463 381.772 47.1716 381.179 46.5691C380.573 45.9844 379.828 45.5299 379.001 45.239C377.435 44.6508 375.7 44.5342 374.055 44.9064C370.873 45.5611 368.176 46.8705 365.628 47.1406C363.63 47.4536 361.575 47.083 359.864 46.1015C359.413 45.8215 359.022 45.4693 358.712 45.0623C358.527 44.7817 358.435 44.6259 358.458 44.6155C358.876 45.1286 359.386 45.5748 359.968 45.9352C361.651 46.811 363.628 47.1099 365.536 46.7769C366.863 46.5518 368.161 46.2035 369.409 45.7378C370.874 45.2098 372.376 44.769 373.905 44.418C374.758 44.2321 375.634 44.1517 376.511 44.179C377.435 44.2231 378.345 44.413 379.197 44.7402C380.078 45.0797 380.865 45.5907 381.502 46.2366C382.184 46.9401 382.568 47.8382 382.586 48.7721L382.125 48.5435L383.081 48.0447C383.439 47.92 383.773 47.7537 384.142 47.6394C386.035 47.0551 388.065 46.9329 390.027 47.2852C391.989 47.6374 393.813 48.4516 395.312 49.645C396.609 50.7031 397.558 52.0618 398.056 53.573C398.573 55.1747 398.643 56.8669 398.259 58.4987C397.875 60.1305 397.049 61.6513 395.854 62.9255C395.475 63.316 395.045 63.6648 394.575 63.9646C394.459 64.0859 394.327 64.1941 394.183 64.2868Z" fill="#455A64"/>
<path d="M392.684 40.7912C391.927 40.4448 391.12 40.1965 390.286 40.0534C389.333 39.9359 388.363 40.0177 387.45 40.2924C386.269 40.6182 385.242 41.2914 384.534 42.2044L384.246 42.5681L384.073 42.1525C383.471 40.875 382.502 39.7654 381.266 38.938C380.03 38.1105 378.571 37.5952 377.041 37.4451C374.637 37.3636 372.268 37.9831 370.286 39.2116C368.597 40.204 366.801 41.0396 364.925 41.7056C363.632 42.1465 362.239 42.2964 360.867 42.1421C360.502 42.0812 360.143 41.9908 359.795 41.8719C359.565 41.7784 359.438 41.7264 359.449 41.7056C359.461 41.6848 359.968 41.8407 360.902 41.9238C362.228 41.9985 363.556 41.8032 364.787 41.3523C366.61 40.6358 368.357 39.7733 370.009 38.7752C371.029 38.2041 372.11 37.7272 373.237 37.3515C374.475 36.9446 375.798 36.7919 377.11 36.9047C378.745 37.0656 380.301 37.6232 381.612 38.518C382.924 39.4128 383.941 40.6114 384.557 41.9862H384.107C384.9 41.0096 386.032 40.3 387.324 39.9702C388.305 39.7138 389.339 39.6675 390.344 39.8351C390.98 39.944 391.589 40.1552 392.142 40.4586C392.34 40.5457 392.522 40.6576 392.684 40.7912Z" fill="#455A64"/>
<path d="M377.502 76.6833C377.233 76.4804 376.919 76.3311 376.581 76.2451C376.244 76.1591 375.889 76.1385 375.542 76.1845C375.136 76.2627 374.753 76.4168 374.417 76.637C374.082 76.8572 373.801 77.1385 373.594 77.4627C373.594 77.4627 373.536 77.5147 373.525 77.5458C373.366 77.7832 373.294 78.0593 373.317 78.3356C373.368 78.6366 373.499 78.9219 373.7 79.1665C373.901 79.4111 374.165 79.6075 374.47 79.7385C374.957 79.9611 375.509 80.0427 376.05 79.972C376.59 79.9013 377.093 79.6819 377.49 79.3436C377.867 78.9846 378.078 78.5097 378.08 78.0155C378.083 77.5213 377.876 77.045 377.502 76.6833V76.6833Z" fill="#CD5954"/>
<path d="M378.078 79.9154C377.986 79.9154 377.882 79.6037 377.571 79.1776C377.196 78.6065 376.636 78.1527 375.966 77.8777C375.296 77.6027 374.549 77.5196 373.825 77.6397C373.26 77.7124 372.914 77.8579 372.879 77.7852C372.845 77.7124 373.11 77.463 373.732 77.2656C374.547 77.0292 375.43 77.0737 376.211 77.3903C376.999 77.7064 377.622 78.2829 377.952 79.001C378.194 79.5413 378.159 79.905 378.078 79.9154Z" fill="#263238"/>
<path d="M354.55 81.2045C354.55 81.2045 354.884 81.7241 354.446 82.5138C354.199 82.9864 353.762 83.3575 353.224 83.553C352.889 83.6613 352.53 83.698 352.176 83.6601C351.822 83.6222 351.482 83.5109 351.184 83.3348C350.881 83.1685 350.624 82.9413 350.434 82.671C350.244 82.4006 350.126 82.0943 350.089 81.776C350.054 81.2627 350.221 80.7549 350.561 80.342C351.161 79.6561 351.83 79.6354 351.83 79.6977C351.83 79.7601 351.322 79.9367 350.919 80.5602C350.685 80.9095 350.588 81.3192 350.642 81.7241C350.685 81.9612 350.785 82.1872 350.934 82.3863C351.083 82.5854 351.279 82.753 351.507 82.8775C351.732 83.0073 351.985 83.0929 352.249 83.1287C352.513 83.1645 352.783 83.1497 353.04 83.0854C353.466 82.9481 353.833 82.6936 354.089 82.358C354.539 81.7137 354.458 81.2045 354.55 81.2045Z" fill="#CD5954"/>
<path d="M350.665 80.7994C350.723 80.7994 350.665 81.1527 350.123 81.3813C349.857 81.481 349.565 81.51 349.281 81.4647C348.997 81.4195 348.734 81.302 348.521 81.1261C348.309 80.9501 348.157 80.7231 348.084 80.4719C348.01 80.2207 348.018 79.9557 348.106 79.7083C348.219 79.4273 348.434 79.1891 348.717 79.0328C349.19 78.773 349.547 78.877 349.535 78.9393C349.524 79.0017 349.259 79.0744 348.971 79.3342C348.829 79.4939 348.742 79.6878 348.722 79.8915C348.702 80.0953 348.749 80.2999 348.858 80.4796C348.966 80.6594 349.131 80.8063 349.331 80.902C349.532 80.9977 349.759 81.0379 349.985 81.0176C350.377 80.9449 350.585 80.7578 350.665 80.7994Z" fill="#CD5954"/>
<path d="M363.334 173.087C363.334 173.087 391.877 174.583 408.754 174.718C421.815 174.832 427.648 171.704 430.253 164.129C432.444 157.78 427.74 145.59 427.74 145.59C418.898 145.59 413.446 146.733 407.763 149.134L409.273 154.704L363.254 158.278L363.334 173.087Z" fill="#FFBE9D"/>
<path d="M418.864 160.648C417.626 159.197 416.18 157.901 414.564 156.793C412.83 155.836 410.961 155.095 409.008 154.59C409.623 154.51 410.25 154.56 410.84 154.735C412.291 155.044 413.666 155.59 414.898 156.346C416.133 157.104 417.2 158.063 418.045 159.172C418.691 160.025 418.933 160.617 418.864 160.648Z" fill="#EB996E"/>
<path d="M352.89 149.093C352.89 149.093 344.06 151.005 337.57 154.912L344.486 171.809C346.792 177.358 353.835 180.122 359.472 177.213C368.153 172.734 371.219 159.682 371.219 159.682L380.753 122.397L364.948 113.471L352.948 149.093" fill="#FFBE9D"/>
<path d="M364.891 113.47L365.536 101.208L361.997 88.7377C361.801 88.0518 361.709 87.1893 362.331 86.7737C362.64 86.5603 363.021 86.4499 363.41 86.4612C363.799 86.4726 364.171 86.605 364.464 86.836C365.421 87.7297 370.032 98.6305 370.032 98.6305C370.032 98.6305 377.029 94.8479 378.274 94.6609C379.519 94.4738 381.076 97.8719 381.179 98.1317C381.225 98.8932 381.225 99.6563 381.179 100.418C381.179 100.418 385.502 100.532 385.894 101.062C386.209 102.145 386.375 103.258 386.39 104.377C386.39 104.377 388.223 104.907 388.511 106.154C388.799 107.401 389.399 109.459 388.511 109.916C387.623 110.373 385.825 111.267 385.825 111.267C385.825 111.267 385.099 117.626 384.903 118.208C384.707 118.79 380.661 122.365 380.661 122.365L364.891 113.47Z" fill="#FFBE9D"/>
<path d="M350.181 177.461C350.181 177.461 350.608 177.69 351.507 177.95C352.822 178.322 354.213 178.421 355.576 178.241C357.767 177.959 359.818 177.107 361.478 175.788C363.673 173.994 365.526 171.888 366.966 169.553C367.813 168.181 368.527 166.745 369.098 165.262C369.698 163.629 370.194 161.967 370.585 160.284C371.484 156.782 372.464 153.01 373.502 148.999C375.577 140.987 377.905 132.029 380.419 122.376V122.303H380.476C381.272 121.596 382.067 120.879 382.862 120.131C383.254 119.757 383.646 119.383 384.015 118.998C384.2 118.801 384.396 118.603 384.546 118.406C384.662 118.21 384.729 117.994 384.741 117.772C385.053 115.694 385.295 113.543 385.548 111.371V111.236L385.687 111.173L387.889 110.061C388.05 109.968 388.304 109.864 388.407 109.781C388.518 109.691 388.591 109.57 388.615 109.438C388.668 109.093 388.668 108.744 388.615 108.399C388.503 107.637 388.33 106.883 388.096 106.144C387.704 105.497 387.046 105.016 386.263 104.803L386.067 104.741V104.564C386.067 103.962 385.998 103.338 385.917 102.725C385.886 102.418 385.836 102.113 385.767 101.811C385.741 101.677 385.694 101.548 385.629 101.426C385.629 101.353 385.629 101.426 385.56 101.364C385.497 101.334 385.432 101.31 385.364 101.291C383.978 101.019 382.564 100.876 381.145 100.865H380.845V100.595C380.845 99.9504 380.845 99.2334 380.845 98.5164C380.797 98.2718 380.704 98.0364 380.568 97.8202C380.453 97.5708 380.315 97.3317 380.176 97.0823C379.907 96.601 379.59 96.142 379.231 95.7106C379.068 95.5096 378.869 95.3341 378.643 95.1911C378.56 95.1274 378.457 95.0875 378.348 95.0764C378.24 95.0653 378.13 95.0835 378.032 95.1287C377.475 95.3213 376.932 95.547 376.407 95.8042C374.263 96.8433 372.165 97.8825 370.113 99.0048L369.813 99.1711L369.686 98.8801C368.603 96.4173 367.519 93.9856 366.458 91.606C365.928 90.4109 365.409 89.2159 364.879 88.0417C364.797 87.7786 364.635 87.5416 364.411 87.3578C364.186 87.174 363.909 87.0509 363.611 87.0025C363.335 86.9201 363.037 86.9245 362.765 87.0152C362.492 87.1058 362.262 87.2772 362.112 87.5013C361.969 87.7242 361.908 87.9828 361.939 88.2391C361.939 88.4677 362.101 88.821 362.17 89.1016C362.354 89.7043 362.527 90.2966 362.7 90.8889C363.046 92.084 363.38 93.2582 363.726 94.4221C364.403 96.7637 365.067 99.0498 365.721 101.281V101.353C365.49 105.621 365.271 109.708 365.063 113.615V113.595L354.562 144.395L351.599 152.968C351.253 153.935 350.988 154.693 350.804 155.223C350.619 155.753 350.504 155.982 350.504 155.982C350.504 155.982 350.561 155.712 350.723 155.203L351.449 152.927C352.118 150.921 353.075 148.022 354.285 144.323C356.775 136.882 360.314 126.262 364.591 113.46V113.511C364.791 109.618 364.994 105.531 365.202 101.249V101.322C364.545 99.0879 363.865 96.8018 363.184 94.4741L362.147 90.9409C361.974 90.3486 361.801 89.7459 361.617 89.1536C361.517 88.8424 361.437 88.5268 361.375 88.2079C361.332 87.8472 361.417 87.4836 361.617 87.1688C361.83 86.8446 362.159 86.5955 362.55 86.4621C362.937 86.3601 363.347 86.3485 363.74 86.4285C364.133 86.5085 364.497 86.6774 364.798 86.9194C365.088 87.164 365.302 87.4718 365.421 87.813L367 91.3774C368.072 93.7674 369.144 96.1991 370.239 98.6515L369.813 98.5164C371.876 97.4149 373.951 96.3134 376.142 95.2846C376.695 95.0238 377.265 94.7913 377.848 94.5884C378.03 94.5201 378.228 94.495 378.424 94.5156C378.621 94.5413 378.81 94.6051 378.978 94.7027C379.255 94.8822 379.5 95.0996 379.704 95.347C380.089 95.8017 380.425 96.2889 380.707 96.8018C380.857 97.0616 380.995 97.311 381.122 97.5708C381.286 97.8459 381.395 98.1449 381.445 98.454C381.445 99.1918 381.445 99.8777 381.445 100.532L381.156 100.252C382.638 100.261 384.115 100.414 385.56 100.709C385.659 100.74 385.756 100.778 385.848 100.823C385.975 100.886 386.079 100.979 386.148 101.094C386.237 101.262 386.303 101.44 386.344 101.623C386.413 101.956 386.459 102.268 386.505 102.59C386.574 103.224 386.621 103.847 386.655 104.471L386.448 104.221C386.919 104.346 387.357 104.556 387.736 104.838C388.114 105.12 388.425 105.469 388.649 105.863C388.902 106.653 389.087 107.459 389.203 108.274C389.283 108.69 389.283 109.115 389.203 109.531C389.153 109.783 389.006 110.012 388.788 110.176C388.599 110.29 388.402 110.394 388.2 110.488L386.01 111.516L386.159 111.319C385.894 113.491 385.652 115.621 385.329 117.73L385.26 118.136C385.234 118.3 385.158 118.454 385.041 118.583C384.871 118.81 384.683 119.025 384.476 119.227C384.084 119.622 383.692 120.006 383.324 120.38C382.528 121.129 381.733 121.846 380.926 122.552L381.006 122.427C378.47 132.071 376.119 141.028 374.009 149.04C372.96 153.041 371.957 156.813 371.035 160.305C370.64 162.001 370.132 163.673 369.513 165.314C368.92 166.811 368.187 168.261 367.323 169.647C365.85 172.011 363.953 174.139 361.709 175.944C359.999 177.271 357.895 178.117 355.657 178.376C354.264 178.544 352.846 178.416 351.518 178.002C351.18 177.89 350.853 177.754 350.538 177.596L350.181 177.461Z" fill="#EB996E"/>
<path d="M381.191 100.449C381.191 100.522 380.799 100.563 380.188 100.584C379.412 100.597 378.64 100.681 377.882 100.833C377.151 100.995 376.478 101.321 375.923 101.779C375.508 102.132 375.323 102.434 375.231 102.403C375.139 102.371 375.231 101.997 375.611 101.519C376.148 100.914 376.895 100.49 377.733 100.314C378.539 100.135 379.378 100.099 380.2 100.21C380.822 100.283 381.191 100.376 381.191 100.449Z" fill="#EB996E"/>
<path d="M377.848 100.564C377.698 100.512 377.686 100.19 377.848 99.8466C378.009 99.5037 378.24 99.2647 378.39 99.3167C378.54 99.3686 378.563 99.6908 378.39 100.034C378.217 100.377 377.963 100.616 377.848 100.564Z" fill="#EB996E"/>
<path d="M386.586 104.336C385.467 104.648 384.298 104.792 383.128 104.762C382.759 104.751 382.393 104.82 382.06 104.963C381.727 105.106 381.437 105.319 381.214 105.583C380.914 106.009 381.018 106.363 380.926 106.383C380.834 106.404 380.557 106.041 380.845 105.417C381.004 105.066 381.293 104.776 381.664 104.596C382.09 104.385 382.562 104.258 383.047 104.222C384.224 104.06 385.425 104.098 386.586 104.336Z" fill="#EB996E"/>
<path d="M385.825 108.077C385.986 108.077 386.079 108.846 386.033 109.792C385.986 110.737 385.814 111.486 385.652 111.486C385.491 111.486 385.387 110.706 385.433 109.761C385.479 108.815 385.652 108.067 385.825 108.077Z" fill="#EB996E"/>
<path d="M390.609 136.062L391.635 132.882C391.682 132.736 391.77 132.604 391.891 132.499C392.012 132.393 392.161 132.318 392.324 132.28C392.487 132.242 392.658 132.244 392.82 132.284C392.982 132.323 393.13 132.401 393.249 132.508L394.598 133.744L395.428 130.741C395.477 130.568 395.583 130.412 395.734 130.295C395.884 130.178 396.071 130.106 396.268 130.088C396.466 130.069 396.665 130.106 396.838 130.194C397.012 130.281 397.151 130.414 397.238 130.575L399.117 134.129L390.609 136.062Z" fill="white"/>
<path d="M399.14 135.49C397.85 136.052 396.481 136.45 395.07 136.674C393.706 137.076 392.286 137.3 390.851 137.339C393.505 136.378 396.295 135.756 399.14 135.49Z" fill="white"/>
<path d="M330.584 117.751C330.584 117.751 330.157 118.146 329.558 118.988C328.753 120.187 328.224 121.519 328.001 122.906C327.673 124.97 327.603 127.062 327.794 129.141C327.921 131.5 328.128 134.077 328.451 136.778C328.997 141.393 329.809 145.978 330.883 150.516C331.287 152.262 331.656 153.634 331.909 154.673C332.025 155.109 332.128 155.473 332.209 155.785C332.29 156.096 332.301 156.18 332.301 156.18C332.301 156.18 332.244 156.055 332.163 155.806C332.082 155.556 331.955 155.12 331.829 154.694C331.54 153.727 331.149 152.335 330.676 150.589C329.555 146.052 328.72 141.462 328.174 136.841C327.852 134.139 327.656 131.552 327.54 129.193C327.366 127.112 327.451 125.021 327.794 122.958C328.042 121.553 328.607 120.209 329.454 119.009C329.766 118.546 330.146 118.123 330.584 117.751Z" fill="white"/>
<path d="M354.85 103.598L354.585 103.723L353.824 104.055C353.167 104.336 352.21 104.752 351.069 105.323C348.094 106.819 345.204 108.449 342.411 110.207C339.114 112.286 336.198 114.177 334.065 115.548L331.541 117.159L330.837 117.585C330.759 117.642 330.674 117.691 330.584 117.731C330.649 117.661 330.727 117.601 330.814 117.554L331.483 117.097L333.961 115.424C336.071 114.021 338.976 112.067 342.273 110.031C345.071 108.265 347.981 106.648 350.988 105.188C352.141 104.637 353.109 104.242 353.789 103.983L354.562 103.692C354.792 103.619 354.792 103.588 354.85 103.598Z" fill="white"/>
<path d="M409.826 110.362C409.754 110.326 409.688 110.281 409.63 110.227L409.111 109.822C408.469 109.333 407.795 108.879 407.094 108.461C404.754 107.116 402.271 105.984 399.682 105.084C397.1 104.162 394.464 103.371 391.785 102.714C390.747 102.454 389.917 102.267 389.33 102.143L388.672 101.987C388.592 101.972 388.515 101.947 388.442 101.914H388.684L389.353 102.028C389.941 102.132 390.782 102.299 391.82 102.538C394.524 103.153 397.181 103.927 399.774 104.855C402.378 105.756 404.864 106.913 407.186 108.305C408.153 108.895 409.039 109.585 409.826 110.362Z" fill="white"/>
<path d="M355.173 189.682C355.016 189.657 354.865 189.611 354.723 189.547C354.322 189.388 353.937 189.2 353.57 188.985C352.949 188.65 352.408 188.208 351.976 187.683C351.545 187.159 351.233 186.563 351.057 185.93C350.741 184.652 350.899 183.316 351.507 182.127C351.682 181.758 351.907 181.409 352.175 181.088C352.36 180.87 352.487 180.766 352.498 180.776C352.184 181.219 351.903 181.681 351.657 182.158C351.121 183.326 350.996 184.614 351.299 185.847C351.629 187.065 352.451 188.129 353.605 188.83C354.562 189.453 355.196 189.64 355.173 189.682Z" fill="white"/>
<path d="M351.507 178.428C351.752 178.84 351.934 179.281 352.049 179.737C352.229 180.174 352.338 180.633 352.371 181.098C352.109 180.696 351.922 180.257 351.818 179.799C351.629 179.361 351.524 178.898 351.507 178.428Z" fill="white"/>
<path d="M367.092 411.418L402.252 411.262L401.618 301.683L401.284 190.212L353.639 189.661L345.074 204.209C341.57 210.058 339.336 216.456 338.492 223.06C337.915 228.11 342.112 244.529 343.564 248.685L356.671 286.158L367.092 411.418Z" fill="#263238"/>
<path d="M411.601 190.347L450.243 285.295C452.532 291.413 453.292 297.911 452.469 304.324C451.646 310.738 449.26 316.908 445.482 322.393L400.615 401.369L375.392 372.917L412.927 302.254L379.842 253.881L385.41 190.492L400.996 190.264L411.601 190.347Z" fill="#263238"/>
<path d="M398.079 222.156C398.079 222.156 398.079 222.323 398.079 222.645C398.079 222.967 398.137 223.466 398.183 224.079C398.264 225.357 398.367 227.196 398.506 229.576C398.771 234.387 399.14 241.298 399.659 249.829C400.177 258.361 400.615 268.534 401.192 279.861C401.468 285.514 401.768 291.447 402.068 297.599C402.287 300.717 402.195 303.834 402.229 306.952C402.264 310.069 402.229 313.353 402.229 316.616C402.229 342.73 402.321 366.371 402.356 383.507C402.356 392.049 402.356 398.969 402.356 403.781C402.356 406.16 402.356 408.01 402.356 409.299C402.356 409.901 402.356 410.338 402.356 410.733C402.356 411.128 402.356 411.221 402.356 411.221C402.356 411.221 402.356 411.055 402.356 410.733V409.299C402.356 408.01 402.356 406.181 402.287 403.781C402.287 398.969 402.195 392.059 402.125 383.517C402.045 366.381 401.941 342.74 401.826 316.626C401.826 313.363 401.826 310.142 401.826 306.962C401.826 303.782 401.895 300.644 401.676 297.61C401.388 291.468 401.099 285.535 400.834 279.882C400.304 268.576 399.82 258.402 399.428 249.839C399.036 241.277 398.748 234.398 398.529 229.586C398.437 227.217 398.367 225.367 398.321 224.079C398.321 223.466 398.321 223.04 398.321 222.645C398.321 222.25 398.079 222.156 398.079 222.156Z" fill="#455A64"/>
<path d="M397.192 192.217C397.326 192.552 397.408 192.901 397.434 193.256C397.56 193.922 397.699 194.888 397.86 196.093C398.16 198.494 398.483 201.83 398.667 205.519C398.852 209.208 398.863 212.554 398.805 214.975C398.805 216.18 398.725 217.168 398.667 217.843C398.679 218.194 398.632 218.544 398.529 218.882C398.384 217.584 398.334 216.279 398.379 214.975C398.379 212.554 398.252 209.228 398.068 205.539C397.883 201.85 397.63 198.535 397.434 196.187C397.27 194.869 397.189 193.544 397.192 192.217Z" fill="#455A64"/>
<path d="M389.445 194.358C389.502 194.43 388.845 194.7 388.661 195.542C388.609 195.77 388.623 196.007 388.702 196.229C388.781 196.451 388.921 196.651 389.11 196.81C389.339 197.001 389.623 197.129 389.929 197.179C390.236 197.229 390.552 197.198 390.84 197.091C391.116 196.962 391.347 196.767 391.506 196.526C391.664 196.285 391.745 196.009 391.739 195.729C391.728 195.497 391.652 195.27 391.516 195.072C391.381 194.874 391.192 194.71 390.966 194.597C390.498 194.392 389.975 194.309 389.456 194.358C389.456 194.358 389.572 194.222 389.871 194.139C390.304 194.044 390.759 194.084 391.162 194.254C391.484 194.374 391.763 194.573 391.966 194.828C392.17 195.083 392.291 195.385 392.315 195.698C392.361 196.085 392.271 196.475 392.058 196.813C391.845 197.152 391.519 197.421 391.127 197.584C390.735 197.747 390.297 197.795 389.873 197.721C389.449 197.648 389.061 197.456 388.765 197.174C388.52 196.954 388.346 196.678 388.263 196.376C388.179 196.074 388.189 195.756 388.292 195.459C388.408 195.07 388.668 194.729 389.03 194.493C389.26 194.347 389.433 194.326 389.445 194.358Z" fill="#455A64"/>
<path d="M371 192.478C371.17 192.805 371.275 193.157 371.312 193.517C371.497 194.449 371.532 195.401 371.415 196.343C371.25 197.745 370.8 199.108 370.09 200.365C369.231 201.927 367.96 203.276 366.388 204.293C364.817 205.309 362.992 205.962 361.075 206.194C359.54 206.401 357.977 206.348 356.464 206.039C355.44 205.838 354.454 205.506 353.536 205.051C353.189 204.903 352.87 204.707 352.59 204.469C353.865 204.986 355.193 205.387 356.556 205.664C358.195 205.972 359.888 205.969 361.526 205.657C363.165 205.345 364.714 204.73 366.075 203.852C367.437 202.973 368.582 201.849 369.437 200.551C370.293 199.254 370.841 197.81 371.046 196.312C371.182 195.036 371.166 193.751 371 192.478Z" fill="#455A64"/>
<path d="M416.236 201.581C415.483 201.659 414.721 201.577 414.011 201.342C412.269 200.847 410.705 199.943 409.48 198.723C408.244 197.508 407.396 196.014 407.025 194.4C406.843 193.742 406.843 193.053 407.025 192.395C407.129 192.395 407.14 193.153 407.486 194.317C407.953 195.821 408.803 197.206 409.967 198.362C411.132 199.518 412.579 200.414 414.195 200.978C415.394 201.404 416.247 201.477 416.236 201.581Z" fill="#455A64"/>
<path d="M429.965 303.937C429.387 304.531 428.696 305.027 427.925 305.402C427.115 305.865 426.233 306.216 425.308 306.442C424.144 306.72 422.915 306.691 421.769 306.358C419.755 305.674 418.03 304.438 416.835 302.825C416.286 302.219 415.832 301.548 415.486 300.83C416.108 301.365 416.672 301.954 417.169 302.586C418.393 304.05 420.046 305.176 421.942 305.839C422.909 306.072 423.919 306.124 424.91 305.994C425.901 305.864 426.852 305.553 427.706 305.08C428.434 304.661 429.188 304.279 429.965 303.937Z" fill="#455A64"/>
<path d="M421.158 309.996C419.795 308.724 418.579 307.331 417.527 305.839C416.315 304.45 415.257 302.956 414.368 301.381C415.74 302.648 416.961 304.041 418.011 305.538C419.233 306.918 420.288 308.413 421.158 309.996Z" fill="#455A64"/>
<path d="M362.089 225.824C361.928 225.876 361.524 225.283 361.167 224.483C360.81 223.683 360.66 223.008 360.81 222.945C360.96 222.883 361.375 223.486 361.72 224.286C362.066 225.086 362.239 225.824 362.089 225.824Z" fill="#FAFAFA"/>
<path d="M384.407 228.713C384.234 228.713 384.107 228.204 384.107 227.57C384.107 226.936 384.234 226.417 384.407 226.417C384.58 226.417 384.707 226.936 384.707 227.57C384.707 228.204 384.569 228.713 384.407 228.713Z" fill="#FAFAFA"/>
<path d="M375.231 239.645C375.07 239.645 374.885 239.022 374.828 238.222C374.77 237.421 374.828 236.777 375.012 236.767C375.196 236.756 375.369 237.39 375.427 238.19C375.485 238.991 375.392 239.635 375.231 239.645Z" fill="#FAFAFA"/>
<path d="M358.47 247.647C358.331 247.74 357.859 247.356 357.236 246.961C356.614 246.566 356.083 246.265 356.083 246.119C356.083 245.974 356.844 246.057 357.547 246.514C358.251 246.971 358.608 247.647 358.47 247.647Z" fill="#FAFAFA"/>
<path d="M388.015 257.841C387.877 257.757 388.015 257.311 388.407 256.801C388.799 256.292 389.157 256.001 389.295 256.084C389.433 256.168 389.295 256.625 388.903 257.124C388.511 257.622 388.154 257.924 388.015 257.841Z" fill="#FAFAFA"/>
<path d="M369.778 260.719C369.617 260.719 369.479 259.856 369.479 258.807C369.479 257.757 369.617 256.884 369.778 256.884C369.94 256.884 370.078 257.747 370.078 258.807C370.078 259.867 369.905 260.719 369.778 260.719Z" fill="#FAFAFA"/>
<path d="M363.807 272.378C363.715 272.493 363.115 272.253 362.47 271.827C361.824 271.401 361.317 270.965 361.467 270.84C361.617 270.716 362.17 270.965 362.816 271.391C363.461 271.817 363.911 272.253 363.807 272.378Z" fill="#FAFAFA"/>
<path d="M382.275 276.432C382.344 276.567 381.975 276.847 381.444 277.065C380.914 277.284 380.43 277.336 380.361 277.201C380.292 277.065 380.672 276.785 381.202 276.567C381.733 276.348 382.217 276.297 382.275 276.432Z" fill="#FAFAFA"/>
<path d="M369.778 295.448C369.64 295.51 369.041 294.71 368.453 293.65C367.865 292.59 367.507 291.676 367.657 291.572C367.807 291.468 368.407 292.309 368.983 293.369C369.559 294.429 369.882 295.333 369.778 295.448Z" fill="#FAFAFA"/>
<path d="M390.148 293.68C389.998 293.608 390.263 292.912 390.724 292.111C391.186 291.311 391.704 290.729 391.877 290.802C392.05 290.875 391.762 291.571 391.289 292.371C390.817 293.171 390.286 293.753 390.148 293.68Z" fill="#FAFAFA"/>
<path d="M381.214 309.778C381.041 309.778 381.064 308.937 380.88 307.96C380.695 306.983 380.419 306.204 380.58 306.131C380.741 306.058 381.295 306.796 381.479 307.877C381.664 308.957 381.375 309.81 381.214 309.778Z" fill="#FAFAFA"/>
<path d="M371.646 318.974C371.531 319.078 370.954 318.683 370.366 318.101C369.778 317.519 369.398 316.969 369.525 316.865C369.652 316.761 370.216 317.156 370.804 317.738C371.392 318.32 371.773 318.87 371.646 318.974Z" fill="#FAFAFA"/>
<path d="M394.863 322.466C394.748 322.362 395.174 321.801 395.82 321.208C396.465 320.616 397.065 320.231 397.192 320.335C397.318 320.439 396.88 321.011 396.246 321.593C395.612 322.175 394.99 322.569 394.863 322.466Z" fill="#FAFAFA"/>
<path d="M381.514 336.235C381.352 336.235 381.352 335.414 381.514 334.458C381.675 333.502 381.929 332.754 382.102 332.774C382.274 332.795 382.263 333.585 382.102 334.541C381.94 335.497 381.675 336.256 381.514 336.235Z" fill="#FAFAFA"/>
<path d="M372.534 342.917C372.384 342.989 371.876 342.449 371.381 341.711C370.885 340.973 370.631 340.319 370.77 340.246C370.908 340.173 371.415 340.703 371.923 341.441C372.43 342.179 372.672 342.833 372.534 342.917Z" fill="#FAFAFA"/>
<path d="M394.171 351.344C394.275 351.468 393.687 351.998 392.857 352.528C392.027 353.058 391.301 353.391 391.197 353.266C391.093 353.142 391.693 352.612 392.511 352.082C393.33 351.552 394.079 351.229 394.171 351.344Z" fill="#FAFAFA"/>
<path d="M376.142 362.287C375.98 362.235 376.142 361.403 376.292 360.364C376.441 359.325 376.349 358.473 376.522 358.452C376.695 358.431 376.995 359.304 376.879 360.416C376.764 361.528 376.292 362.349 376.142 362.287Z" fill="#FAFAFA"/>
<path d="M383.347 377.998C383.208 378.092 382.724 377.739 382.251 377.209C381.779 376.679 381.514 376.17 381.64 376.076C381.767 375.983 382.251 376.336 382.724 376.866C383.197 377.396 383.473 377.905 383.347 377.998Z" fill="#FAFAFA"/>
<path d="M375.473 388.535C375.335 388.619 374.701 388.005 374.055 387.153C373.41 386.301 373.006 385.553 373.133 385.47C373.26 385.387 373.905 386 374.551 386.852C375.196 387.704 375.611 388.452 375.473 388.535Z" fill="#FAFAFA"/>
<path d="M397.157 375.307C397.007 375.255 397.019 374.871 397.157 374.455C397.295 374.039 397.607 373.728 397.768 373.78C397.929 373.832 397.906 374.216 397.768 374.642C397.63 375.068 397.318 375.37 397.157 375.307Z" fill="#FAFAFA"/>
<path d="M387.589 400.403C387.439 400.33 387.727 399.593 387.958 398.668C388.188 397.743 388.269 396.964 388.442 396.953C388.615 396.943 388.788 397.785 388.546 398.782C388.304 399.78 387.727 400.486 387.589 400.403Z" fill="#FAFAFA"/>
<path d="M393.814 239.811C393.664 239.873 393.295 239.458 392.995 238.876C392.696 238.294 392.569 237.774 392.719 237.712C392.869 237.649 393.237 238.065 393.537 238.647C393.837 239.229 393.987 239.748 393.814 239.811Z" fill="#FAFAFA"/>
<path d="M377.848 207.452C377.94 207.577 377.133 208.159 376.269 208.99C375.404 209.821 374.816 210.59 374.666 210.518C374.516 210.445 374.908 209.478 375.819 208.626C376.73 207.774 377.733 207.317 377.848 207.452Z" fill="#FAFAFA"/>
<path d="M392.062 207.12C391.889 207.12 391.624 206.527 391.22 205.821C390.817 205.114 390.448 204.532 390.575 204.428C390.701 204.324 391.324 204.781 391.727 205.571C392.131 206.361 392.211 207.036 392.062 207.12Z" fill="#FAFAFA"/>
<path d="M347.679 217.625C347.53 217.563 347.679 216.877 348.037 216.087C348.394 215.297 348.786 214.684 348.947 214.747C349.109 214.809 348.947 215.484 348.59 216.285C348.233 217.085 347.875 217.677 347.679 217.625Z" fill="#FAFAFA"/>
<path d="M349.12 233.316C349.005 233.43 348.348 233.098 347.645 232.568C346.942 232.038 346.492 231.529 346.561 231.404C346.63 231.279 347.334 231.622 348.037 232.152C348.74 232.682 349.224 233.202 349.12 233.316Z" fill="#FAFAFA"/>
<path d="M378.24 194.992C378.09 194.992 377.767 194.659 377.537 194.129C377.306 193.6 377.237 193.09 377.387 193.09C377.537 193.09 377.859 193.423 378.09 193.953C378.32 194.483 378.39 194.94 378.24 194.992Z" fill="#FAFAFA"/>
<path d="M406.126 202.661C405.964 202.661 405.976 202.007 406.126 201.269C406.275 200.531 406.575 199.949 406.737 199.98C406.898 200.011 406.886 200.645 406.737 201.383C406.587 202.121 406.287 202.692 406.126 202.661Z" fill="#FAFAFA"/>
<path d="M412.673 214.539C412.524 214.476 412.731 213.707 413.146 212.803C413.561 211.899 414.011 211.224 414.161 211.276C414.31 211.328 414.161 212.107 413.699 213.011C413.238 213.915 412.835 214.591 412.673 214.539Z" fill="#FAFAFA"/>
<path d="M408.005 224.119C407.855 224.182 407.301 223.465 406.771 222.519C406.241 221.573 405.941 220.732 406.091 220.669C406.241 220.607 406.783 221.324 407.313 222.27C407.843 223.215 408.154 224.047 408.005 224.119Z" fill="#FAFAFA"/>
<path d="M417.988 233.701C417.838 233.649 417.988 233.046 418.241 232.36C418.495 231.674 418.898 231.155 419.06 231.207C419.221 231.259 419.06 231.861 418.806 232.547C418.553 233.233 418.195 233.753 417.988 233.701Z" fill="#FAFAFA"/>
<path d="M409.065 243.084C408.927 243.167 408.57 242.887 408.281 242.471C407.993 242.055 407.855 241.64 408.005 241.557C408.155 241.473 408.489 241.754 408.789 242.18C409.088 242.606 409.204 243.011 409.065 243.084Z" fill="#FAFAFA"/>
<path d="M410.967 262.454C410.852 262.548 410.126 262.039 409.365 261.29C408.604 260.542 408.085 259.867 408.212 259.763C408.339 259.659 409.054 260.178 409.815 260.927C410.575 261.675 411.094 262.35 410.967 262.454Z" fill="#FAFAFA"/>
<path d="M422.668 251.325C422.541 251.419 421.907 250.899 421.262 250.151C420.616 249.403 420.201 248.738 420.328 248.644C420.455 248.55 421.089 249.08 421.734 249.818C422.38 250.556 422.806 251.242 422.668 251.325Z" fill="#FAFAFA"/>
<path d="M429.089 266.674C428.939 266.611 429.204 265.832 429.677 264.938C430.15 264.044 430.645 263.359 430.83 263.421C431.014 263.483 430.726 264.273 430.253 265.167C429.781 266.06 429.239 266.746 429.089 266.674Z" fill="#FAFAFA"/>
<path d="M415.44 279.309C415.29 279.382 414.76 278.811 414.022 278.197C413.284 277.584 412.604 277.158 412.673 277.002C412.743 276.847 413.619 277.127 414.426 277.803C415.233 278.478 415.578 279.237 415.44 279.309Z" fill="#FAFAFA"/>
<path d="M416.293 292.331C416.293 292.476 415.717 292.601 415.014 292.601C414.31 292.601 413.746 292.476 413.746 292.331C413.746 292.185 414.31 292.061 415.014 292.061C415.717 292.061 416.293 292.185 416.293 292.331Z" fill="#FAFAFA"/>
<path d="M430.323 288.693C430.173 288.62 430.472 287.965 430.691 287.155C430.91 286.344 431.003 285.637 431.176 285.627C431.349 285.617 431.533 286.375 431.279 287.279C431.026 288.183 430.449 288.776 430.323 288.693Z" fill="#FAFAFA"/>
<path d="M444.26 293.068C444.11 293.12 443.683 292.382 443.314 291.437C442.946 290.491 442.773 289.68 442.922 289.639C443.072 289.597 443.51 290.314 443.879 291.26C444.248 292.206 444.421 293.016 444.26 293.068Z" fill="#FAFAFA"/>
<path d="M442.035 310.942C441.896 310.869 442.254 309.996 442.83 308.988C443.407 307.98 443.983 307.222 444.156 307.294C444.329 307.367 443.948 308.24 443.36 309.238C442.773 310.235 442.185 311.035 442.035 310.942Z" fill="#FAFAFA"/>
<path d="M429.32 321.426C429.17 321.478 428.697 320.761 428.259 319.815C427.821 318.87 427.602 318.059 427.763 317.997C427.925 317.935 428.386 318.662 428.812 319.608C429.239 320.553 429.469 321.426 429.32 321.426Z" fill="#FAFAFA"/>
<path d="M415.233 325.49C415.233 325.635 414.748 325.76 414.16 325.76C413.573 325.76 413.1 325.635 413.1 325.49C413.1 325.344 413.584 325.22 414.16 325.22C414.737 325.22 415.233 325.344 415.233 325.49Z" fill="#FAFAFA"/>
<path d="M423.302 342.21C423.152 342.21 422.829 341.638 422.587 340.848C422.345 340.059 422.299 339.373 422.461 339.341C422.622 339.31 422.933 339.913 423.175 340.703C423.417 341.493 423.463 342.126 423.302 342.21Z" fill="#FAFAFA"/>
<path d="M413.1 336.598C412.962 336.525 413.1 336.037 413.48 335.507C413.861 334.977 414.241 334.613 414.38 334.686C414.518 334.759 414.38 335.258 413.999 335.788C413.619 336.317 413.25 336.681 413.1 336.598Z" fill="#FAFAFA"/>
<path d="M412.892 355.002C412.731 355.002 412.5 354.305 412.385 353.401C412.27 352.497 412.305 351.76 412.466 351.739C412.627 351.718 412.858 352.435 412.973 353.339C413.088 354.243 413.054 354.981 412.892 355.002Z" fill="#FAFAFA"/>
</svg>
