<svg width="783" height="406" viewBox="0 0 783 406" fill="none" xmlns="http://www.w3.org/2000/svg">
<path d="M683.068 31.1914H598.088V142.013L683.068 144.137V31.1914Z" fill="#E0E0E0"/>
<path d="M677.477 35.1299H603.12V135.639L677.477 138.149V35.1299Z" fill="#FAFAFA"/>
<path d="M664.457 53.3926L615.109 51.5166V121.774H664.457V53.3926Z" fill="#E0E0E0"/>
<path d="M615.109 121.774L664.457 85.6824L615.109 51.5166V121.774Z" fill="#EBEBEB"/>
<path d="M127.644 82.0176H22.3386V404.605H127.644V82.0176Z" fill="#EBEBEB"/>
<path d="M210.549 83.0488H127.321V404.605H210.549V83.0488Z" fill="#F5F5F5"/>
<path d="M117.319 133.651H27.9915V158.797H117.319V133.651Z" fill="#E0E0E0"/>
<path d="M35.4831 136.807H30.4763V156.051H35.4831V136.807Z" fill="#F5F5F5"/>
<path d="M41.372 140.858C41.372 141.172 41.2788 141.48 41.104 141.741C40.9293 142.003 40.6809 142.207 40.3903 142.327C40.0997 142.447 39.78 142.479 39.4715 142.418C39.163 142.356 38.8797 142.205 38.6573 141.982C38.4349 141.76 38.2834 141.477 38.2221 141.168C38.1607 140.86 38.1922 140.54 38.3125 140.249C38.4329 139.959 38.6367 139.71 38.8983 139.536C39.1598 139.361 39.4672 139.268 39.7818 139.268C40.2035 139.268 40.608 139.435 40.9062 139.733C41.2045 140.032 41.372 140.436 41.372 140.858Z" fill="#FAFAFA"/>
<path d="M41.372 147.653C41.372 148.075 41.2045 148.479 40.9062 148.777C40.608 149.075 40.2035 149.243 39.7818 149.243C39.36 149.243 38.9555 149.075 38.6573 148.777C38.359 148.479 38.1915 148.075 38.1915 147.653C38.1915 147.231 38.359 146.827 38.6573 146.528C38.9555 146.23 39.36 146.062 39.7818 146.062C40.2035 146.062 40.608 146.23 40.9062 146.528C41.2045 146.827 41.372 147.231 41.372 147.653Z" fill="#FAFAFA"/>
<path d="M52.653 139.268H47.7331V154.052H52.653V139.268Z" fill="#F5F5F5"/>
<path d="M59.747 139.268H54.8271V154.052H59.747V139.268Z" fill="#F5F5F5"/>
<path d="M66.8535 139.268H61.9336V154.052H66.8535V139.268Z" fill="#F5F5F5"/>
<path d="M73.9476 139.268H69.0277V154.052H73.9476V139.268Z" fill="#F5F5F5"/>
<path d="M81.054 139.268H76.1342V154.052H81.054V139.268Z" fill="#F5F5F5"/>
<path d="M88.1481 139.268H83.2282V154.052H88.1481V139.268Z" fill="#F5F5F5"/>
<path d="M95.2546 139.268H90.3347V154.052H95.2546V139.268Z" fill="#F5F5F5"/>
<path d="M102.349 139.268H97.4288V154.052H102.349V139.268Z" fill="#F5F5F5"/>
<path d="M109.455 139.268H104.535V154.052H109.455V139.268Z" fill="#F5F5F5"/>
<path d="M116.549 139.268H111.629V154.052H116.549V139.268Z" fill="#F5F5F5"/>
<path d="M117.319 173.93H27.9915V199.076H117.319V173.93Z" fill="#E0E0E0"/>
<path d="M35.4831 177.086H30.4763V196.331H35.4831V177.086Z" fill="#F5F5F5"/>
<path d="M41.372 181.135C41.372 181.557 41.2045 181.961 40.9062 182.26C40.608 182.558 40.2035 182.725 39.7818 182.725C39.36 182.725 38.9555 182.558 38.6573 182.26C38.359 181.961 38.1915 181.557 38.1915 181.135C38.1915 180.713 38.359 180.309 38.6573 180.011C38.9555 179.712 39.36 179.545 39.7818 179.545C40.2035 179.545 40.608 179.712 40.9062 180.011C41.2045 180.309 41.372 180.713 41.372 181.135Z" fill="#FAFAFA"/>
<path d="M41.372 187.944C41.372 188.258 41.2788 188.566 41.104 188.827C40.9293 189.089 40.6809 189.293 40.3903 189.413C40.0997 189.533 39.78 189.565 39.4715 189.503C39.163 189.442 38.8797 189.291 38.6573 189.068C38.4349 188.846 38.2834 188.562 38.2221 188.254C38.1607 187.946 38.1922 187.626 38.3125 187.335C38.4329 187.045 38.6367 186.796 38.8983 186.622C39.1598 186.447 39.4672 186.354 39.7818 186.354C40.2035 186.354 40.608 186.521 40.9062 186.819C41.2045 187.118 41.372 187.522 41.372 187.944Z" fill="#FAFAFA"/>
<path d="M52.653 179.545H47.7331V194.329H52.653V179.545Z" fill="#F5F5F5"/>
<path d="M59.747 179.545H54.8271V194.329H59.747V179.545Z" fill="#F5F5F5"/>
<path d="M66.8535 179.545H61.9336V194.329H66.8535V179.545Z" fill="#F5F5F5"/>
<path d="M73.9476 179.545H69.0277V194.329H73.9476V179.545Z" fill="#F5F5F5"/>
<path d="M81.054 179.545H76.1342V194.329H81.054V179.545Z" fill="#F5F5F5"/>
<path d="M88.1481 179.545H83.2282V194.329H88.1481V179.545Z" fill="#F5F5F5"/>
<path d="M95.2546 179.545H90.3347V194.329H95.2546V179.545Z" fill="#F5F5F5"/>
<path d="M102.349 179.545H97.4288V194.329H102.349V179.545Z" fill="#F5F5F5"/>
<path d="M109.455 179.545H104.535V194.329H109.455V179.545Z" fill="#F5F5F5"/>
<path d="M116.549 179.545H111.629V194.329H116.549V179.545Z" fill="#F5F5F5"/>
<path d="M117.319 214.208H27.9915V239.354H117.319V214.208Z" fill="#E0E0E0"/>
<path d="M35.4831 217.376H30.4763V236.621H35.4831V217.376Z" fill="#F5F5F5"/>
<path d="M41.372 221.389C41.372 221.704 41.2788 222.011 41.104 222.273C40.9293 222.534 40.6809 222.738 40.3903 222.858C40.0997 222.979 39.78 223.01 39.4715 222.949C39.163 222.887 38.8797 222.736 38.6573 222.514C38.4349 222.291 38.2834 222.008 38.2221 221.699C38.1607 221.391 38.1922 221.071 38.3125 220.781C38.4329 220.49 38.6367 220.242 38.8983 220.067C39.1598 219.892 39.4672 219.799 39.7818 219.799C40.2035 219.799 40.608 219.966 40.9062 220.265C41.2045 220.563 41.372 220.967 41.372 221.389Z" fill="#FAFAFA"/>
<path d="M41.372 228.222C41.372 228.537 41.2788 228.844 41.104 229.106C40.9293 229.367 40.6809 229.571 40.3903 229.691C40.0997 229.812 39.78 229.843 39.4715 229.782C39.163 229.72 38.8797 229.569 38.6573 229.347C38.4349 229.124 38.2834 228.841 38.2221 228.532C38.1607 228.224 38.1922 227.904 38.3125 227.614C38.4329 227.323 38.6367 227.075 38.8983 226.9C39.1598 226.725 39.4672 226.632 39.7818 226.632C40.2035 226.632 40.608 226.799 40.9062 227.098C41.2045 227.396 41.372 227.8 41.372 228.222Z" fill="#FAFAFA"/>
<path d="M52.653 219.836H47.7331V234.62H52.653V219.836Z" fill="#F5F5F5"/>
<path d="M59.747 219.836H54.8271V234.62H59.747V219.836Z" fill="#F5F5F5"/>
<path d="M66.8535 219.836H61.9336V234.62H66.8535V219.836Z" fill="#F5F5F5"/>
<path d="M73.9476 219.836H69.0277V234.62H73.9476V219.836Z" fill="#F5F5F5"/>
<path d="M81.054 219.836H76.1342V234.62H81.054V219.836Z" fill="#F5F5F5"/>
<path d="M88.1481 219.836H83.2282V234.62H88.1481V219.836Z" fill="#F5F5F5"/>
<path d="M95.2546 219.836H90.3347V234.62H95.2546V219.836Z" fill="#F5F5F5"/>
<path d="M102.349 219.836H97.4288V234.62H102.349V219.836Z" fill="#F5F5F5"/>
<path d="M109.455 219.836H104.535V234.62H109.455V219.836Z" fill="#F5F5F5"/>
<path d="M116.549 219.836H111.629V234.62H116.549V219.836Z" fill="#F5F5F5"/>
<path d="M117.319 254.499H27.9915V279.645H117.319V254.499Z" fill="#E0E0E0"/>
<path d="M35.4831 257.654H30.4763V276.899H35.4831V257.654Z" fill="#F5F5F5"/>
<path d="M41.372 261.705C41.372 262.019 41.2788 262.326 41.104 262.588C40.9293 262.85 40.6809 263.053 40.3903 263.174C40.0997 263.294 39.78 263.326 39.4715 263.264C39.163 263.203 38.8797 263.051 38.6573 262.829C38.4349 262.607 38.2834 262.323 38.2221 262.015C38.1607 261.706 38.1922 261.387 38.3125 261.096C38.4329 260.805 38.6367 260.557 38.8983 260.382C39.1598 260.207 39.4672 260.114 39.7818 260.114C40.2035 260.114 40.608 260.282 40.9062 260.58C41.2045 260.878 41.372 261.283 41.372 261.705Z" fill="#FAFAFA"/>
<path d="M41.372 268.5C41.372 268.922 41.2045 269.327 40.9062 269.625C40.608 269.923 40.2035 270.091 39.7818 270.091C39.36 270.091 38.9555 269.923 38.6573 269.625C38.359 269.327 38.1915 268.922 38.1915 268.5C38.1915 268.079 38.359 267.674 38.6573 267.376C38.9555 267.078 39.36 266.91 39.7818 266.91C40.2035 266.91 40.608 267.078 40.9062 267.376C41.2045 267.674 41.372 268.079 41.372 268.5Z" fill="#FAFAFA"/>
<path d="M52.653 260.114H47.7331V274.899H52.653V260.114Z" fill="#F5F5F5"/>
<path d="M59.747 260.114H54.8271V274.899H59.747V260.114Z" fill="#F5F5F5"/>
<path d="M66.8535 260.114H61.9336V274.899H66.8535V260.114Z" fill="#F5F5F5"/>
<path d="M73.9476 260.114H69.0277V274.899H73.9476V260.114Z" fill="#F5F5F5"/>
<path d="M81.054 260.114H76.1342V274.899H81.054V260.114Z" fill="#F5F5F5"/>
<path d="M88.1481 260.114H83.2282V274.899H88.1481V260.114Z" fill="#F5F5F5"/>
<path d="M95.2546 260.114H90.3347V274.899H95.2546V260.114Z" fill="#F5F5F5"/>
<path d="M102.349 260.114H97.4288V274.899H102.349V260.114Z" fill="#F5F5F5"/>
<path d="M109.455 260.114H104.535V274.899H109.455V260.114Z" fill="#F5F5F5"/>
<path d="M116.549 260.114H111.629V274.899H116.549V260.114Z" fill="#F5F5F5"/>
<path d="M117.319 294.777H27.9915V319.923H117.319V294.777Z" fill="#E0E0E0"/>
<path d="M35.4831 297.933H30.4763V317.177H35.4831V297.933Z" fill="#F5F5F5"/>
<path d="M41.372 301.983C41.372 302.405 41.2045 302.809 40.9062 303.107C40.608 303.406 40.2035 303.573 39.7818 303.573C39.36 303.573 38.9555 303.406 38.6573 303.107C38.359 302.809 38.1915 302.405 38.1915 301.983C38.1915 301.561 38.359 301.157 38.6573 300.858C38.9555 300.56 39.36 300.393 39.7818 300.393C40.2035 300.393 40.608 300.56 40.9062 300.858C41.2045 301.157 41.372 301.561 41.372 301.983Z" fill="#FAFAFA"/>
<path d="M41.372 308.791C41.372 309.106 41.2788 309.413 41.104 309.675C40.9293 309.936 40.6809 310.14 40.3903 310.261C40.0997 310.381 39.78 310.412 39.4715 310.351C39.163 310.29 38.8797 310.138 38.6573 309.916C38.4349 309.694 38.2834 309.41 38.2221 309.102C38.1607 308.793 38.1922 308.473 38.3125 308.183C38.4329 307.892 38.6367 307.644 38.8983 307.469C39.1598 307.294 39.4672 307.201 39.7818 307.201C40.2035 307.201 40.608 307.369 40.9062 307.667C41.2045 307.965 41.372 308.37 41.372 308.791Z" fill="#FAFAFA"/>
<path d="M52.653 300.393H47.7331V315.177H52.653V300.393Z" fill="#F5F5F5"/>
<path d="M59.747 300.393H54.8271V315.177H59.747V300.393Z" fill="#F5F5F5"/>
<path d="M66.8535 300.393H61.9336V315.177H66.8535V300.393Z" fill="#F5F5F5"/>
<path d="M73.9476 300.393H69.0277V315.177H73.9476V300.393Z" fill="#F5F5F5"/>
<path d="M81.054 300.393H76.1342V315.177H81.054V300.393Z" fill="#F5F5F5"/>
<path d="M88.1481 300.393H83.2282V315.177H88.1481V300.393Z" fill="#F5F5F5"/>
<path d="M95.2546 300.393H90.3347V315.177H95.2546V300.393Z" fill="#F5F5F5"/>
<path d="M102.349 300.393H97.4288V315.177H102.349V300.393Z" fill="#F5F5F5"/>
<path d="M109.455 300.393H104.535V315.177H109.455V300.393Z" fill="#F5F5F5"/>
<path d="M116.549 300.393H111.629V315.177H116.549V300.393Z" fill="#F5F5F5"/>
<path d="M117.319 335.056H27.9915V360.202H117.319V335.056Z" fill="#E0E0E0"/>
<path d="M35.4831 338.224H30.4763V357.468H35.4831V338.224Z" fill="#F5F5F5"/>
<path d="M41.372 342.274C41.3671 342.588 41.2697 342.893 41.092 343.151C40.9144 343.409 40.6643 343.609 40.3733 343.726C40.0824 343.842 39.7634 343.87 39.4566 343.806C39.1498 343.742 38.8687 343.589 38.6488 343.365C38.4289 343.142 38.2799 342.858 38.2205 342.551C38.1611 342.243 38.194 341.924 38.3151 341.635C38.4362 341.346 38.64 341.099 38.9009 340.926C39.1619 340.752 39.4683 340.659 39.7818 340.659C39.9927 340.659 40.2016 340.701 40.3961 340.783C40.5907 340.864 40.7671 340.983 40.9151 341.134C41.0631 341.284 41.1798 341.462 41.2582 341.658C41.3366 341.854 41.3753 342.063 41.372 342.274Z" fill="#FAFAFA"/>
<path d="M41.372 349.07C41.372 349.384 41.2788 349.692 41.104 349.953C40.9293 350.215 40.6809 350.419 40.3903 350.539C40.0997 350.659 39.78 350.691 39.4715 350.629C39.163 350.568 38.8797 350.417 38.6573 350.194C38.4349 349.972 38.2834 349.688 38.2221 349.38C38.1607 349.072 38.1922 348.752 38.3125 348.461C38.4329 348.171 38.6367 347.922 38.8983 347.748C39.1598 347.573 39.4672 347.479 39.7818 347.479C40.2035 347.479 40.608 347.647 40.9062 347.945C41.2045 348.244 41.372 348.648 41.372 349.07Z" fill="#FAFAFA"/>
<path d="M52.653 340.684H47.7331V355.468H52.653V340.684Z" fill="#F5F5F5"/>
<path d="M59.747 340.684H54.8271V355.468H59.747V340.684Z" fill="#F5F5F5"/>
<path d="M66.8535 340.684H61.9336V355.468H66.8535V340.684Z" fill="#F5F5F5"/>
<path d="M73.9476 340.684H69.0277V355.468H73.9476V340.684Z" fill="#F5F5F5"/>
<path d="M81.054 340.684H76.1342V355.468H81.054V340.684Z" fill="#F5F5F5"/>
<path d="M88.1481 340.684H83.2282V355.468H88.1481V340.684Z" fill="#F5F5F5"/>
<path d="M95.2546 340.684H90.3347V355.468H95.2546V340.684Z" fill="#F5F5F5"/>
<path d="M102.349 340.684H97.4288V355.468H102.349V340.684Z" fill="#F5F5F5"/>
<path d="M109.455 340.684H104.535V355.468H109.455V340.684Z" fill="#F5F5F5"/>
<path d="M116.549 340.684H111.629V355.468H116.549V340.684Z" fill="#F5F5F5"/>
<path d="M117.319 375.347H27.9915V400.493H117.319V375.347Z" fill="#E0E0E0"/>
<path d="M35.4831 378.502H30.4763V397.747H35.4831V378.502Z" fill="#F5F5F5"/>
<path d="M41.372 382.552C41.372 382.867 41.2788 383.174 41.104 383.436C40.9293 383.697 40.6809 383.901 40.3903 384.021C40.0997 384.142 39.78 384.173 39.4715 384.112C39.163 384.051 38.8797 383.899 38.6573 383.677C38.4349 383.454 38.2834 383.171 38.2221 382.862C38.1607 382.554 38.1922 382.234 38.3125 381.944C38.4329 381.653 38.6367 381.405 38.8983 381.23C39.1598 381.055 39.4672 380.962 39.7818 380.962C40.2035 380.962 40.608 381.129 40.9062 381.428C41.2045 381.726 41.372 382.13 41.372 382.552Z" fill="#FAFAFA"/>
<path d="M41.372 389.361C41.372 389.675 41.2788 389.983 41.104 390.244C40.9293 390.506 40.6809 390.71 40.3903 390.83C40.0997 390.95 39.78 390.982 39.4715 390.921C39.163 390.859 38.8797 390.708 38.6573 390.485C38.4349 390.263 38.2834 389.98 38.2221 389.671C38.1607 389.363 38.1922 389.043 38.3125 388.752C38.4329 388.462 38.6367 388.213 38.8983 388.039C39.1598 387.864 39.4672 387.771 39.7818 387.771C39.9911 387.769 40.1986 387.809 40.3923 387.888C40.586 387.968 40.7619 388.085 40.9099 388.233C41.0579 388.381 41.175 388.557 41.2543 388.75C41.3337 388.944 41.3737 389.152 41.372 389.361Z" fill="#FAFAFA"/>
<path d="M52.653 380.962H47.7331V395.746H52.653V380.962Z" fill="#F5F5F5"/>
<path d="M59.747 380.962H54.8271V395.746H59.747V380.962Z" fill="#F5F5F5"/>
<path d="M66.8535 380.962H61.9336V395.746H66.8535V380.962Z" fill="#F5F5F5"/>
<path d="M73.9476 380.962H69.0277V395.746H73.9476V380.962Z" fill="#F5F5F5"/>
<path d="M81.054 380.962H76.1342V395.746H81.054V380.962Z" fill="#F5F5F5"/>
<path d="M88.1481 380.962H83.2282V395.746H88.1481V380.962Z" fill="#F5F5F5"/>
<path d="M95.2546 380.962H90.3347V395.746H95.2546V380.962Z" fill="#F5F5F5"/>
<path d="M102.349 380.962H97.4288V395.746H102.349V380.962Z" fill="#F5F5F5"/>
<path d="M109.455 380.962H104.535V395.746H109.455V380.962Z" fill="#F5F5F5"/>
<path d="M116.549 380.962H111.629V395.746H116.549V380.962Z" fill="#F5F5F5"/>
<path d="M83.2282 133.651C83.1786 133.393 83.1495 133.131 83.1413 132.868C83.1413 132.359 83.0667 131.626 83.0419 130.632C83.017 129.638 83.0419 128.483 82.93 127.104C82.882 125.558 82.6738 124.022 82.3088 122.519C81.7985 120.741 80.9921 119.061 79.9235 117.55C78.7062 115.803 77.0109 114.444 75.0409 113.636C72.8143 112.819 70.4772 112.341 68.1083 112.22L60.4179 111.561C49.87 110.642 40.3036 110.058 33.3834 109.921C29.9172 109.847 27.1715 109.859 25.1712 109.921H22.9349C22.675 109.953 22.4122 109.953 22.1522 109.921C22.4104 109.872 22.6721 109.843 22.9349 109.835L25.1588 109.698C27.1094 109.611 29.9172 109.524 33.3834 109.536C40.3284 109.536 49.9197 110.071 60.4676 110.99L68.1704 111.673C70.5971 111.798 72.99 112.297 75.2645 113.152C77.3291 114.017 79.0984 115.463 80.3583 117.314C81.4523 118.902 82.2635 120.667 82.7561 122.532C83.0994 124.07 83.2784 125.64 83.2903 127.216C83.2903 128.595 83.2903 129.787 83.2903 130.756C83.2903 131.725 83.2903 132.409 83.2903 132.993C83.2918 133.214 83.271 133.434 83.2282 133.651Z" fill="#E0E0E0"/>
<path d="M56.1317 133.652C56.1059 133.408 56.1059 133.162 56.1317 132.919C56.1317 132.36 56.1317 131.676 56.1317 130.807C56.1317 129.937 56.1317 128.782 56.0198 127.502C55.9493 126.06 55.5724 124.65 54.9141 123.365C53.9485 121.922 52.5334 120.839 50.8888 120.284C49.0248 119.555 46.9972 119.349 45.0247 119.687C43.9677 119.86 42.9472 120.208 42.0057 120.719C41.0281 121.217 40.2133 121.984 39.6575 122.93C39.3826 123.404 39.2378 123.942 39.2378 124.489C39.2378 125.037 39.3826 125.575 39.6575 126.048C39.9379 126.545 40.3176 126.979 40.7728 127.324C41.228 127.668 41.7492 127.914 42.3038 128.049C42.855 128.172 43.4284 128.155 43.9712 127.998C44.514 127.842 45.0087 127.552 45.4098 127.154C46.2136 126.367 46.7075 125.318 46.8013 124.197C46.8737 123.107 46.542 122.027 45.8695 121.166C45.2622 120.298 44.4574 119.587 43.5214 119.091C42.5729 118.637 41.55 118.36 40.5024 118.271C39.496 118.122 38.5145 117.998 37.5703 117.886C35.6694 117.675 33.8431 117.55 32.2653 117.476C29.0102 117.352 26.3764 117.401 24.55 117.389H22.4504C22.207 117.419 21.9608 117.419 21.7174 117.389C21.9533 117.331 22.1952 117.302 22.438 117.302L24.5376 117.19C26.3639 117.116 29.0102 117.004 32.2777 117.078C33.9177 117.078 35.7067 117.215 37.62 117.401C38.5891 117.501 39.5706 117.625 40.5893 117.762C41.0987 117.849 41.6081 117.911 42.1423 118.01C42.6924 118.113 43.2241 118.298 43.7202 118.557C44.744 119.074 45.6299 119.828 46.3043 120.756C47.0595 121.733 47.4347 122.952 47.3604 124.185C47.2689 125.47 46.7019 126.675 45.7701 127.564C45.289 128.042 44.6952 128.39 44.0436 128.577C43.3921 128.763 42.7039 128.783 42.0429 128.633C41.4124 128.477 40.8194 128.197 40.2988 127.808C39.7782 127.42 39.3405 126.931 39.0115 126.371C38.6926 125.802 38.5252 125.16 38.5252 124.508C38.5252 123.855 38.6926 123.214 39.0115 122.644C39.6201 121.579 40.527 120.715 41.6205 120.159C42.627 119.629 43.7142 119.268 44.8383 119.091C46.9322 118.737 49.0833 118.974 51.0503 119.774C52.7958 120.385 54.2842 121.567 55.2744 123.129C55.9426 124.479 56.3073 125.959 56.3429 127.465C56.3429 128.769 56.3429 129.949 56.3429 130.807C56.3429 131.664 56.3429 132.347 56.2559 132.906C56.2468 133.159 56.205 133.41 56.1317 133.652Z" fill="#E0E0E0"/>
<path d="M90.5211 133.652C90.437 133.38 90.3746 133.102 90.3347 132.82C90.2353 132.273 90.0862 131.465 89.8626 130.434C89.2535 127.516 88.3674 124.662 87.2163 121.911C85.5968 117.814 82.9169 114.221 79.4514 111.5C77.3573 109.988 74.902 109.054 72.3324 108.792C69.5558 108.488 66.7644 108.339 63.9711 108.344C52.4169 108.133 41.9559 108.17 34.3898 107.872C30.6626 107.736 27.5442 107.549 25.4321 107.4L22.9474 107.189C22.6624 107.175 22.3794 107.133 22.1025 107.065C22.3879 107.044 22.6744 107.044 22.9598 107.065L25.4446 107.164C27.5566 107.239 30.6129 107.351 34.4022 107.425C41.9684 107.611 52.4169 107.487 63.9836 107.711C66.8065 107.703 69.6274 107.86 72.4318 108.183C75.1018 108.463 77.649 109.45 79.8116 111.04C81.7335 112.501 83.4109 114.259 84.7812 116.246C85.9363 117.976 86.9105 119.82 87.6884 121.75C88.8214 124.553 89.6543 127.468 90.1732 130.447C90.3595 131.49 90.4714 132.298 90.5335 132.857C90.5532 133.122 90.549 133.388 90.5211 133.652Z" fill="#E0E0E0"/>
<path d="M116.089 86.0303H29.2214V98.6405H116.089V86.0303Z" fill="#E0E0E0"/>
<path d="M95.6149 92.3291H48.317V98.6405H95.6149V92.3291Z" fill="#F5F5F5"/>
<path d="M781.217 403.611H779.204H773.278L750.517 403.76L666.805 404.17L390.608 405.115C282.719 405.338 185.067 405.375 114.375 405.115C79.029 405.003 50.4291 404.816 30.6626 404.568C20.7235 404.431 13.1076 404.282 7.90199 404.121C2.69637 403.959 -0.0368956 403.723 0.000376151 403.574C0.163312 403.617 0.329546 403.646 0.497335 403.661C0.832781 403.661 1.32974 403.748 2.00063 403.785C3.32999 403.86 5.30539 403.922 7.91442 403.984C13.1076 404.108 20.7856 404.22 30.6626 404.307C50.4291 404.493 79.029 404.605 114.375 404.655C185.067 404.767 282.719 404.655 390.608 404.431L666.805 403.76L750.517 403.562H773.278H779.204C780.533 403.586 781.217 403.611 781.217 403.611Z" fill="#263238"/>
<path d="M597.02 125.962C596.56 124.475 595.56 123.215 594.217 122.431C592.873 121.646 591.284 121.394 589.764 121.725C588.68 122.183 587.532 122.472 586.36 122.582C585.343 122.407 584.364 122.058 583.465 121.551C581.212 120.703 578.717 120.767 576.51 121.73C574.304 122.692 572.56 124.478 571.65 126.707C570.19 125.894 568.523 125.531 566.857 125.663C565.192 125.796 563.602 126.417 562.289 127.45C560.976 128.483 559.998 129.882 559.477 131.469C558.956 133.057 558.916 134.763 559.363 136.373C557.789 136.675 556.355 137.475 555.273 138.656C554.19 139.837 553.516 141.335 553.352 142.928C553.187 144.522 553.541 146.126 554.359 147.503C555.178 148.88 556.418 149.957 557.897 150.573C557.232 151.764 556.869 153.1 556.839 154.463C556.81 155.827 557.115 157.177 557.728 158.395C558.341 159.614 559.243 160.664 560.355 161.453C561.467 162.242 562.756 162.747 564.109 162.923C563.893 164.393 564.112 165.894 564.74 167.241C565.367 168.588 566.376 169.721 567.641 170.501C568.906 171.281 570.372 171.673 571.857 171.629C573.342 171.585 574.782 171.106 575.998 170.253C576.34 171.676 577.087 172.969 578.15 173.976C579.213 174.982 580.545 175.658 581.985 175.921C583.425 176.184 584.91 176.023 586.26 175.458C587.61 174.893 588.767 173.948 589.59 172.738C592.162 175.359 596.833 174.974 599.529 172.489C602.225 170.004 603.145 166.016 602.735 162.376C604.325 162.857 606.026 162.822 607.595 162.275C609.164 161.728 610.519 160.698 611.465 159.332C612.41 157.966 612.899 156.335 612.859 154.675C612.82 153.014 612.255 151.408 611.245 150.089C612.596 149.949 613.875 149.415 614.924 148.554C615.974 147.692 616.747 146.541 617.146 145.244C617.515 143.936 617.572 142.561 617.313 141.227C617.054 139.894 616.486 138.64 615.655 137.566C613.953 135.427 611.551 133.958 608.872 133.416C608.658 132.189 608.189 131.021 607.495 129.988C606.801 128.954 605.898 128.077 604.844 127.414C603.791 126.751 602.609 126.317 601.377 126.14C600.145 125.962 598.889 126.046 597.69 126.384" fill="#263238"/>
<path d="M587.056 301.847L583.987 400.045H579.315L580.222 302.108L587.056 301.847Z" fill="#455A64"/>
<path d="M603.927 300.667L626.986 404.307L631.993 404.071L612.947 300.667H603.927Z" fill="#455A64"/>
<path d="M561.326 301.847L534.453 404.307L528.526 404.071L553.797 301.412L561.326 301.847Z" fill="#455A64"/>
<path d="M626.725 200.269C626.725 200.269 651.821 198.841 649.312 227.875C646.802 256.91 645.361 286.268 636.043 296.344C626.725 306.419 532.813 306.73 524.924 298.493C517.034 290.256 539.981 290.604 544.28 290.604C548.579 290.604 575.104 293.088 583.714 270.527C592.323 247.965 590.162 198.803 626.725 200.269Z" fill="#455A64"/>
<path d="M628.328 200.27C628.328 200.27 647.51 204.195 645.721 224.273C643.932 244.35 638.913 279.472 629.57 288.442C620.227 297.412 583.726 299.35 563.972 298.12C541.025 296.679 526.539 292.318 526.539 292.318C526.539 292.318 522.352 295.014 523.631 296.741C524.911 298.468 536.055 305.438 590.311 304.295C644.566 303.152 640.764 295.126 643.013 286.392C645.262 277.658 649.983 231.056 649.324 220.806C648.666 210.557 643.535 202.046 628.328 200.27Z" fill="#455A64"/>
<path d="M512.798 398.083L512.736 386.628L534.13 386.367L534.403 403.077L533.074 403.177C527.185 403.574 503.045 404.792 499.082 403.649C494.671 402.394 512.798 398.083 512.798 398.083Z" fill="#FF725E"/>
<g opacity="0.4">
<path d="M526.65 403.04C526.946 401.232 527.896 399.595 529.322 398.443C530.717 397.301 532.491 396.725 534.291 396.828L534.366 402.804L526.65 403.04Z" fill="black"/>
</g>
<path opacity="0.4" d="M503.94 400.505C503.94 400.505 497.591 402.419 498.399 403.462C499.206 404.506 523.644 404.195 534.428 403.114V402.63L505.927 403.239C505.927 403.239 505.194 400.543 503.94 400.505Z" fill="black"/>
<path d="M534.726 402.618H534.353L533.297 402.692L529.421 402.903C526.129 403.065 521.594 403.226 516.575 403.301C511.555 403.376 507.021 403.301 503.728 403.301L499.84 403.189H498.784H498.411H499.84H503.741C507.021 403.189 511.555 403.189 516.575 403.189C521.594 403.189 526.129 402.99 529.409 402.879L533.297 402.742H534.353L534.726 402.618Z" fill="#263238"/>
<path d="M505.878 403.574C505.703 402.93 505.452 402.309 505.132 401.723C504.737 401.201 504.287 400.722 503.79 400.294C504.437 400.566 504.984 401.031 505.357 401.624C505.73 402.217 505.912 402.911 505.878 403.612V403.574Z" fill="#263238"/>
<path d="M512.152 400.294C512.09 400.294 511.791 399.971 511.468 399.474C511.238 399.197 511.077 398.869 510.996 398.518C511.058 398.518 511.369 398.853 511.692 399.338C512.015 399.822 512.214 400.294 512.152 400.294Z" fill="#263238"/>
<path d="M513.879 399.35C513.879 399.35 513.481 399.188 513.108 398.853C512.736 398.517 512.475 398.219 512.525 398.169C512.574 398.12 512.91 398.331 513.282 398.666C513.655 399.002 513.916 399.3 513.879 399.35Z" fill="#263238"/>
<path d="M514.947 397.313C514.592 397.455 514.209 397.51 513.829 397.474C513.454 397.527 513.071 397.493 512.711 397.375C513.065 397.233 513.449 397.178 513.829 397.214C514.205 397.17 514.585 397.204 514.947 397.313Z" fill="#263238"/>
<path d="M515.307 395.884C514.945 396.142 514.51 396.277 514.065 396.269C513.644 396.342 513.211 396.286 512.823 396.107C513.233 396.037 513.649 396.003 514.065 396.008C514.475 395.933 514.891 395.892 515.307 395.884Z" fill="#263238"/>
<path d="M511.406 398.431C510.95 398.507 510.484 398.507 510.027 398.431C509.53 398.374 509.039 398.27 508.561 398.12C508.266 398.048 507.981 397.935 507.716 397.785C507.552 397.692 507.428 397.541 507.369 397.362C507.348 397.26 507.357 397.155 507.395 397.058C507.432 396.961 507.496 396.877 507.58 396.816C508.098 396.546 508.695 396.469 509.266 396.596C509.836 396.723 510.343 397.047 510.698 397.511C510.918 397.78 511.075 398.094 511.158 398.431C511.185 398.549 511.185 398.672 511.158 398.791C511.009 398.372 510.791 397.981 510.512 397.636C510.199 397.275 509.79 397.012 509.332 396.878C509.063 396.792 508.779 396.759 508.498 396.783C508.217 396.806 507.943 396.885 507.692 397.014C507.468 397.176 507.567 397.437 507.803 397.573C508.051 397.712 508.313 397.82 508.586 397.896C509.048 398.052 509.521 398.168 510.002 398.244C510.885 398.393 511.406 398.393 511.406 398.431Z" fill="#263238"/>
<path d="M511.046 398.505C510.881 398.215 510.824 397.876 510.884 397.548C510.916 397.187 511.04 396.841 511.245 396.542C511.357 396.336 511.52 396.162 511.718 396.036C511.915 395.91 512.141 395.836 512.375 395.821C512.517 395.848 512.642 395.93 512.723 396.049C512.804 396.167 512.836 396.313 512.81 396.455C512.781 396.676 512.705 396.888 512.587 397.076C512.409 397.381 512.192 397.661 511.941 397.908C511.735 398.16 511.471 398.357 511.17 398.48C511.17 398.48 511.431 398.232 511.804 397.797C512.021 397.539 512.213 397.26 512.375 396.964C512.562 396.666 512.686 396.144 512.375 396.082C512.065 396.02 511.68 396.405 511.481 396.679C511.285 396.943 511.153 397.249 511.096 397.573C511.053 397.882 511.036 398.193 511.046 398.505Z" fill="#263238"/>
<path d="M534.192 396.766C534.192 396.766 533.571 396.766 532.614 396.841C531.359 397.009 530.174 397.516 529.185 398.307C528.207 399.119 527.472 400.185 527.06 401.388C526.75 402.307 526.725 402.916 526.675 402.916C526.65 402.772 526.65 402.625 526.675 402.481C526.703 402.089 526.774 401.702 526.887 401.326C527.253 400.063 527.994 398.94 529.012 398.108C530.031 397.276 531.278 396.774 532.589 396.667C533.002 396.616 533.419 396.616 533.831 396.667C533.955 396.685 534.076 396.719 534.192 396.766Z" fill="#263238"/>
<path d="M531.856 387.87C532.113 390.791 532.188 393.724 532.08 396.654C531.84 393.733 531.765 390.8 531.856 387.87Z" fill="#263238"/>
<path d="M523.93 400.99C521.883 401.402 519.78 401.449 517.718 401.127C517.718 401.052 519.122 401.127 520.848 401.127C522.575 401.127 523.917 400.916 523.93 400.99Z" fill="#263238"/>
<path d="M528.117 400.928C528.117 400.928 528.005 401.226 527.868 401.549C527.731 401.872 527.657 402.158 527.582 402.158C527.508 402.158 527.47 401.81 527.582 401.45C527.694 401.09 528.067 400.878 528.117 400.928Z" fill="#263238"/>
<path d="M529.67 398.94C529.732 398.94 529.595 399.214 529.371 399.437C529.148 399.661 528.936 399.81 528.887 399.76C528.837 399.711 528.961 399.487 529.185 399.263C529.409 399.04 529.62 398.891 529.67 398.94Z" fill="#263238"/>
<path d="M531.931 398.008C531.931 398.082 531.62 398.082 531.309 398.207C530.999 398.331 530.775 398.492 530.726 398.443C530.676 398.393 530.837 398.095 531.222 397.958C531.608 397.821 531.943 397.946 531.931 398.008Z" fill="#263238"/>
<path d="M533.484 397.573C533.484 397.636 533.384 397.747 533.21 397.822C533.036 397.897 532.862 397.897 532.838 397.822C532.813 397.747 532.937 397.648 533.111 397.573C533.285 397.499 533.484 397.499 533.484 397.573Z" fill="#263238"/>
<path d="M561.425 398.083L561.351 386.665L582.757 386.404L583.03 403.114L581.701 403.214C575.8 403.611 551.672 404.829 547.709 403.686C543.286 402.394 561.425 398.083 561.425 398.083Z" fill="#FF725E"/>
<g opacity="0.4">
<path d="M575.265 403.04C575.56 401.231 576.511 399.595 577.936 398.443C579.333 397.303 581.106 396.727 582.906 396.828L582.993 402.804L575.265 403.04Z" fill="black"/>
</g>
<path opacity="0.4" d="M552.567 400.505C552.567 400.505 546.218 402.419 547.026 403.462C547.833 404.506 572.259 404.195 583.055 403.114V402.63L554.567 403.239C554.567 403.239 553.809 400.543 552.567 400.505Z" fill="black"/>
<path d="M583.316 402.618H582.956L581.937 402.779L578.048 402.99C574.768 403.152 570.221 403.313 565.214 403.388C560.207 403.462 555.648 403.388 552.368 403.388L548.479 403.276H547.411H547.051H548.392H552.281C555.561 403.276 560.108 403.276 565.115 403.276C570.122 403.276 574.669 403.077 577.949 402.966L581.838 402.829H582.906L583.316 402.618Z" fill="#263238"/>
<path d="M554.505 403.574C554.322 402.931 554.068 402.31 553.747 401.723C553.358 401.184 552.908 400.692 552.405 400.257C553.074 400.491 553.632 400.964 553.971 401.586C554.381 402.163 554.571 402.869 554.505 403.574Z" fill="#263238"/>
<path d="M560.816 400.295C560.754 400.295 560.444 399.972 560.121 399.475C559.798 398.978 559.599 398.568 559.661 398.518C559.723 398.468 560.021 398.853 560.344 399.338C560.572 399.617 560.734 399.944 560.816 400.295Z" fill="#263238"/>
<path d="M562.493 399.35C562.493 399.35 562.108 399.188 561.736 398.853C561.363 398.517 561.102 398.219 561.139 398.169C561.177 398.12 561.537 398.331 561.91 398.666C562.282 399.002 562.543 399.3 562.493 399.35Z" fill="#263238"/>
<path d="M563.562 397.313C563.211 397.453 562.832 397.509 562.456 397.474C562.077 397.525 561.69 397.491 561.326 397.375C561.68 397.233 562.064 397.178 562.444 397.213C562.819 397.169 563.2 397.203 563.562 397.313Z" fill="#263238"/>
<path d="M563.922 395.884C563.56 396.142 563.125 396.277 562.68 396.269C562.259 396.34 561.826 396.284 561.437 396.107C561.848 396.038 562.264 396.004 562.68 396.008C563.09 395.934 563.505 395.892 563.922 395.884Z" fill="#263238"/>
<path d="M560.021 398.431C559.569 398.507 559.107 398.507 558.655 398.431C558.153 398.376 557.658 398.272 557.176 398.12C556.884 398.048 556.604 397.935 556.344 397.785C556.261 397.741 556.187 397.681 556.127 397.609C556.068 397.536 556.023 397.453 555.996 397.363C555.973 397.262 555.979 397.157 556.014 397.06C556.05 396.963 556.112 396.878 556.195 396.816C556.53 396.636 556.902 396.536 557.282 396.523C557.662 396.51 558.04 396.584 558.387 396.74C558.734 396.896 559.041 397.13 559.283 397.423C559.525 397.716 559.697 398.061 559.785 398.431C559.81 398.55 559.81 398.673 559.785 398.791C559.637 398.372 559.418 397.982 559.139 397.636C558.829 397.272 558.419 397.008 557.959 396.878C557.69 396.792 557.407 396.76 557.125 396.783C556.844 396.807 556.57 396.885 556.319 397.015C556.108 397.176 556.195 397.437 556.443 397.574C556.686 397.712 556.945 397.82 557.213 397.897C557.679 398.054 558.157 398.17 558.642 398.245C559.499 398.394 560.021 398.394 560.021 398.431Z" fill="#263238"/>
<path d="M559.673 398.505C559.581 398.365 559.519 398.209 559.489 398.044C559.459 397.88 559.462 397.711 559.499 397.548C559.537 397.189 559.66 396.844 559.86 396.542C559.973 396.335 560.138 396.16 560.338 396.034C560.538 395.907 560.767 395.834 561.003 395.821C561.142 395.851 561.263 395.934 561.342 396.052C561.421 396.171 561.451 396.315 561.425 396.455C561.402 396.677 561.325 396.89 561.201 397.076C561.028 397.381 560.815 397.66 560.568 397.908C560.357 398.16 560.088 398.356 559.785 398.48C559.785 398.48 560.058 398.232 560.431 397.797C560.644 397.538 560.832 397.259 560.99 396.964C561.177 396.666 561.301 396.144 560.99 396.082C560.68 396.02 560.307 396.405 560.096 396.679C559.908 396.946 559.781 397.251 559.723 397.573C559.672 397.881 559.655 398.193 559.673 398.505Z" fill="#263238"/>
<path d="M582.807 396.766C582.807 396.766 582.198 396.766 581.229 396.84C579.974 397.009 578.789 397.516 577.8 398.306C576.825 399.118 576.094 400.185 575.688 401.387C575.365 402.307 575.34 402.915 575.29 402.915C575.265 402.772 575.265 402.625 575.29 402.481C575.317 402.088 575.392 401.7 575.514 401.325C575.884 400.064 576.624 398.943 577.638 398.107C578.662 397.284 579.907 396.782 581.216 396.666C581.604 396.62 581.996 396.62 582.384 396.666C582.529 396.68 582.671 396.713 582.807 396.766Z" fill="#263238"/>
<path d="M580.483 387.87C580.724 390.791 580.798 393.724 580.707 396.654C580.45 393.733 580.376 390.8 580.483 387.87Z" fill="#263238"/>
<path d="M572.544 400.99C570.498 401.404 568.395 401.45 566.333 401.127C566.333 401.052 567.736 401.127 569.463 401.127C571.19 401.127 572.532 400.916 572.544 400.99Z" fill="#263238"/>
<path d="M576.744 400.928C576.744 400.928 576.632 401.226 576.495 401.549C576.359 401.872 576.272 402.158 576.21 402.158C576.147 402.158 576.085 401.81 576.21 401.45C576.334 401.09 576.694 400.878 576.744 400.928Z" fill="#263238"/>
<path d="M578.297 398.94C578.297 398.94 578.21 399.214 577.999 399.437C577.787 399.661 577.551 399.81 577.502 399.76C577.452 399.711 577.589 399.487 577.8 399.263C578.011 399.04 578.21 398.891 578.297 398.94Z" fill="#263238"/>
<path d="M580.545 398.008C580.545 398.082 580.247 398.082 579.937 398.207C579.626 398.331 579.402 398.492 579.34 398.443C579.278 398.393 579.452 398.095 579.85 397.958C580.247 397.821 580.57 397.946 580.545 398.008Z" fill="#263238"/>
<path d="M582.148 397.573C582.148 397.636 582.049 397.747 581.875 397.822C581.701 397.897 581.539 397.897 581.514 397.822C581.49 397.747 581.601 397.648 581.775 397.573C581.949 397.499 582.123 397.499 582.148 397.573Z" fill="#263238"/>
<path d="M520.004 163.084C518.513 177.993 514.574 223.216 535.235 221.638C559.624 219.787 565.239 200.518 565.239 200.518L560.493 183.124C560.493 183.124 536.428 204.108 535.807 201.511C532.428 187.659 533.322 168.663 533.869 161.892" fill="#FFBE9D"/>
<path d="M627.905 216.42L623.731 195.499C620.662 178.366 596.647 177.186 596.647 177.186L577.8 176.875C577.8 176.875 565.239 176.478 555.201 184.727C545.162 192.977 538.453 199.288 538.453 199.288L554.232 217.526L563.562 211.314C563.562 211.314 560.207 217.377 560.767 222.496C561.288 227.465 566.506 231.279 566.506 231.279L567.749 263.333L623.656 263.942L616.165 216.42H627.905Z" fill="#CD5954"/>
<path d="M601.579 194.206C601.732 194.637 601.841 195.082 601.902 195.535L602.635 199.263C603.256 202.518 604.076 206.717 604.983 211.376C605.89 216.035 606.648 220.421 607.145 223.539C607.394 225.104 607.568 226.372 607.667 227.266C607.748 227.721 607.778 228.184 607.754 228.645C607.586 228.214 607.473 227.763 607.418 227.303L606.698 223.638C606.064 220.383 605.244 216.184 604.35 211.513C603.455 206.841 602.672 202.48 602.175 199.35C601.939 197.784 601.753 196.517 601.654 195.622C601.567 195.156 601.542 194.679 601.579 194.206Z" fill="#263238"/>
<path d="M628.303 216.619C624.524 216.965 620.728 217.089 616.935 216.992C613.139 217.104 609.34 217.009 605.555 216.706C609.334 216.361 613.129 216.237 616.923 216.334C620.718 216.221 624.518 216.317 628.303 216.619Z" fill="#263238"/>
<path d="M554.194 217.526C551.427 214.643 548.814 211.616 546.367 208.456C543.757 205.433 541.31 202.273 539.037 198.989C541.807 201.866 544.419 204.889 546.864 208.046C549.476 211.072 551.923 214.236 554.194 217.526Z" fill="#263238"/>
<path d="M560.816 216.755C561.089 215.89 561.455 215.056 561.91 214.27L563.239 211.612C563.918 210.673 564.248 209.526 564.171 208.369C563.711 205.884 563.276 203.524 563.015 201.859C562.804 200.959 562.7 200.038 562.705 199.113C563.059 199.967 563.314 200.859 563.463 201.772C563.835 203.437 564.345 205.698 564.817 208.282C564.946 208.957 564.864 209.656 564.581 210.282C564.342 210.831 564.072 211.366 563.773 211.885L562.307 214.494C561.902 215.304 561.401 216.063 560.816 216.755Z" fill="#263238"/>
<path opacity="0.2" d="M567.587 259.271L566.78 247.344H620.662L622.712 257.693L567.587 259.271Z" fill="black"/>
<path opacity="0.2" d="M602.089 196.095C602.337 203.392 602.577 210.685 602.809 217.973C603.093 220.32 602.763 222.7 601.853 224.881C599.977 228.447 595.541 229.614 591.603 230.422L567.587 235.392L612.077 233.217L602.089 196.095Z" fill="black"/>
<path d="M630.477 233.192C629.235 223.142 627.918 216.656 627.918 216.656L606.027 216.992C606.027 216.992 607.99 228.049 607.394 231.006C606.859 233.578 564.63 235.28 553.635 235.454C552.977 234.969 552.02 235.789 551.15 235.056C550.403 234.397 549.773 233.615 549.287 232.745C548.628 231.681 548.118 230.532 547.771 229.329C547.754 229.089 547.66 228.862 547.504 228.68C547.347 228.498 547.137 228.372 546.903 228.319C546.669 228.266 546.424 228.289 546.204 228.386C545.985 228.483 545.803 228.648 545.684 228.857C545.249 229.801 545.746 232.932 547.833 235.963C549.92 238.994 544.442 237.417 542.441 236.882C540.441 236.348 534.142 234.982 533.496 235.491C532.539 236.224 533.136 237.404 535.161 237.901C537.186 238.398 543.125 240.287 542.802 241.355C542.479 242.423 532.291 239.541 532.291 239.541C532.291 239.541 530.216 238.56 529.806 239.79C529.061 242.001 540.093 244.25 541.162 244.436C541.895 244.56 541.572 245.741 540.801 245.567C540.031 245.393 530.701 242.448 529.918 244.697C529.309 246.424 538.987 246.623 540.59 248.337C542.193 250.052 533.272 247.405 532.751 249.083C532.564 249.704 536.279 249.99 541.609 250.747C547.088 251.271 552.593 251.466 558.095 251.331C570.519 252.002 614.189 252.909 623.52 252.251C634.416 251.48 630.9 236.646 630.477 233.192Z" fill="#FFBE9D"/>
<path d="M630.179 205.102H630.502C630.726 205.102 631.049 205.201 631.459 205.313C632.66 205.696 633.808 206.231 634.875 206.903C636.557 207.963 638.13 209.187 639.572 210.556C640.416 211.351 641.286 212.233 642.156 213.227C643.086 214.266 643.918 215.389 644.64 216.581C644.84 216.912 645.007 217.261 645.137 217.625C645.224 217.985 645.311 218.358 645.411 218.731C645.585 219.476 645.796 220.221 645.957 221.004C646.256 222.57 646.566 224.197 646.765 225.912C647.21 229.542 647.356 233.203 647.2 236.857C646.717 245.219 645.313 253.502 643.013 261.556C641.975 265.779 640.659 269.93 639.075 273.98C637.553 277.747 635.521 281.288 633.037 284.503C631.882 286.005 630.575 287.383 629.135 288.615C627.719 289.716 626.181 290.65 624.551 291.398C621.622 292.662 618.592 293.68 615.494 294.442C609.841 295.883 605.219 296.778 602.039 297.461L598.312 298.231L597.355 298.418H597.02L597.343 298.306L598.274 298.057C599.107 297.846 600.337 297.536 601.927 297.163C605.083 296.405 609.704 295.448 615.32 293.957C618.379 293.165 621.37 292.13 624.265 290.864C625.844 290.119 627.335 289.202 628.713 288.131C630.113 286.912 631.387 285.555 632.515 284.08C634.945 280.901 636.934 277.407 638.428 273.694C639.995 269.68 641.294 265.567 642.317 261.382C644.613 253.372 646.029 245.136 646.541 236.82C646.711 233.196 646.586 229.565 646.169 225.961C645.982 224.272 645.697 222.644 645.398 221.091C645.249 220.321 645.05 219.575 644.876 218.83L644.616 217.737C644.509 217.405 644.363 217.088 644.181 216.792C643.451 215.62 642.62 214.514 641.696 213.488C640.851 212.494 639.994 211.599 639.211 210.804C637.8 209.424 636.266 208.177 634.627 207.077C633.591 206.389 632.477 205.826 631.31 205.4C630.927 205.321 630.55 205.222 630.179 205.102Z" fill="#263238"/>
<path d="M533.049 165.482C533.049 165.482 533.384 163.879 533.943 159.27L539.074 149.244C539.074 149.244 537.931 147.144 535.347 151.592C535.082 152.197 534.587 152.671 533.972 152.911C533.357 153.151 532.672 153.137 532.067 152.872C531.463 152.607 530.988 152.112 530.748 151.497C530.508 150.882 530.522 150.197 530.788 149.592C530.952 148.814 531.34 148.101 531.904 147.54C532.468 146.98 533.184 146.597 533.963 146.439C534.742 146.28 535.551 146.353 536.289 146.649C537.027 146.944 537.663 147.449 538.118 148.101C538.118 148.101 539.758 148.263 539.944 146.995C540.13 145.728 536.428 142.548 533.285 143.467C532 143.874 530.814 144.547 529.806 145.442C529.806 145.442 530.489 134.894 529.632 134.795C528.775 134.696 527.582 135.354 526.936 146.908C526.936 146.908 526.576 137.789 526.402 136.621C526.228 135.454 524.65 134.671 524.451 137.59C524.451 137.926 523.855 146.884 523.855 146.884C523.855 146.884 522.836 140.957 522.725 140.485C522.426 139.243 521.196 139.367 521.085 141.019C520.985 142.262 520.588 147.641 520.588 147.641L519.817 164.165H519.718" fill="#FFBE9D"/>
<path d="M576.21 182.353C576.085 176.961 575.874 171.321 575.874 171.321C575.874 171.321 567.923 170.327 567.575 162.202C567.227 154.077 568.047 135.379 568.047 135.379L582.682 128.347L595.467 142.92L595.653 182.08C595.659 183.362 595.413 184.632 594.927 185.818C594.441 187.004 593.725 188.082 592.821 188.991C591.917 189.9 590.843 190.621 589.659 191.113C588.476 191.605 587.207 191.858 585.925 191.858C583.385 191.858 580.945 190.864 579.129 189.087C577.313 187.311 576.265 184.893 576.21 182.353Z" fill="#FFBE9D"/>
<path d="M570.097 149.045C570.097 149.246 570.156 149.443 570.268 149.61C570.379 149.777 570.538 149.908 570.723 149.985C570.908 150.063 571.113 150.083 571.31 150.045C571.507 150.007 571.689 149.911 571.832 149.77C571.975 149.629 572.073 149.448 572.113 149.251C572.154 149.055 572.136 148.85 572.06 148.664C571.985 148.477 571.857 148.317 571.691 148.204C571.525 148.091 571.329 148.029 571.128 148.026C570.857 148.026 570.596 148.133 570.403 148.324C570.21 148.515 570.1 148.774 570.097 149.045Z" fill="#263238"/>
<path d="M568.432 147.902C568.556 148.039 569.314 147.393 570.407 147.355C571.501 147.318 572.308 147.865 572.42 147.716C572.532 147.567 572.346 147.405 571.998 147.144C571.525 146.814 570.958 146.649 570.383 146.672C569.802 146.697 569.246 146.916 568.805 147.293C568.482 147.579 568.37 147.84 568.432 147.902Z" fill="#263238"/>
<path d="M581.937 149.045C581.937 149.246 581.996 149.443 582.108 149.61C582.219 149.777 582.378 149.908 582.563 149.985C582.748 150.063 582.953 150.083 583.15 150.045C583.347 150.007 583.529 149.911 583.672 149.77C583.815 149.629 583.913 149.448 583.953 149.251C583.994 149.055 583.976 148.85 583.9 148.664C583.825 148.477 583.697 148.317 583.531 148.204C583.365 148.091 583.169 148.029 582.968 148.026C582.697 148.026 582.436 148.133 582.243 148.324C582.05 148.515 581.94 148.774 581.937 149.045Z" fill="#263238"/>
<path d="M580.508 148.089C580.632 148.213 581.39 147.579 582.484 147.542C583.577 147.505 584.384 148.051 584.496 147.902C584.608 147.753 584.422 147.592 584.074 147.331C583.602 147.001 583.034 146.835 582.459 146.859C581.881 146.885 581.327 147.099 580.881 147.467C580.558 147.79 580.446 148.089 580.508 148.089Z" fill="#263238"/>
<path d="M576.408 157.481C575.83 157.314 575.233 157.223 574.632 157.208C574.358 157.208 574.097 157.146 574.035 156.935C574.014 156.63 574.074 156.326 574.209 156.053C574.47 155.32 574.731 154.549 575.004 153.742C575.741 151.785 576.326 149.775 576.756 147.729C575.879 149.626 575.144 151.586 574.557 153.593C574.296 154.4 574.048 155.17 573.799 155.903C573.616 156.291 573.572 156.73 573.675 157.146C573.716 157.246 573.78 157.336 573.862 157.407C573.944 157.478 574.042 157.529 574.147 157.556C574.301 157.599 574.46 157.619 574.619 157.618C575.219 157.649 575.82 157.603 576.408 157.481Z" fill="#263238"/>
<path d="M575.874 171.321C579.647 171.228 583.309 170.031 586.409 167.88C586.409 167.88 583.925 173.794 576.011 173.322L575.874 171.321Z" fill="#EB996E"/>
<path d="M576.806 160.338C576.872 159.998 577.019 159.679 577.235 159.408C577.452 159.138 577.731 158.924 578.048 158.785C578.27 158.683 578.512 158.631 578.756 158.631C579.001 158.631 579.242 158.683 579.465 158.785C579.685 158.903 579.864 159.085 579.979 159.307C580.095 159.528 580.14 159.78 580.111 160.028C580.047 160.294 579.906 160.536 579.704 160.722C579.503 160.908 579.251 161.029 578.98 161.071C578.441 161.157 577.89 161.123 577.365 160.972C577.215 160.944 577.072 160.89 576.943 160.81C576.878 160.771 576.827 160.714 576.796 160.645C576.765 160.576 576.755 160.499 576.769 160.425" fill="#EB996E"/>
<path d="M579.452 157.432C579.539 157.432 579.676 157.73 579.639 158.264C579.578 158.97 579.259 159.629 578.743 160.114C578.228 160.6 577.551 160.879 576.843 160.898C576.309 160.898 576.011 160.749 576.023 160.674C576.036 160.6 577.266 160.587 578.297 159.643C579.328 158.699 579.328 157.432 579.452 157.432Z" fill="#263238"/>
<path d="M556.12 195.884C556.269 194.717 556.622 193.586 557.164 192.542C557.518 191.416 558.074 190.363 558.804 189.436C558.661 190.607 558.307 191.744 557.76 192.79C557.415 193.916 556.859 194.966 556.12 195.884Z" fill="#263238"/>
<path d="M574.681 198.592C572.139 197.755 569.906 196.176 568.271 194.058C570.467 195.507 572.622 197.019 574.731 198.592H574.681Z" fill="#263238"/>
<path d="M572.37 182.553C570.67 183.595 568.762 184.252 566.78 184.478C567.58 183.878 568.499 183.454 569.476 183.236C570.38 182.801 571.367 182.568 572.37 182.553Z" fill="#263238"/>
<path d="M571.128 215.178C572.416 212.586 574.091 210.207 576.098 208.121C575.534 209.464 574.781 210.719 573.861 211.848C573.114 213.083 572.194 214.204 571.128 215.178Z" fill="#263238"/>
<path d="M572.184 228.533C570.882 227.822 569.69 226.926 568.643 225.875C567.462 224.977 566.413 223.919 565.525 222.731C568.014 224.332 570.258 226.287 572.184 228.533Z" fill="#263238"/>
<path d="M581.564 227.278C581.096 225.955 580.719 224.602 580.434 223.228C579.933 221.91 579.518 220.562 579.191 219.19C580.102 220.313 580.729 221.638 581.018 223.054C581.522 224.402 581.709 225.847 581.564 227.278Z" fill="#263238"/>
<path d="M598.784 227.502C596.5 228.654 594.039 229.414 591.503 229.751C593.781 228.584 596.245 227.823 598.784 227.502Z" fill="#263238"/>
<path d="M599.604 213.762C597.257 215.517 594.666 216.919 591.913 217.924C594.252 216.157 596.845 214.753 599.604 213.762Z" fill="#263238"/>
<path d="M590.534 208.332C588.679 206.439 587.143 204.257 585.987 201.872C587.842 203.765 589.378 205.947 590.534 208.332Z" fill="#263238"/>
<path d="M597.318 193.821C597.318 193.821 597.156 193.821 596.957 193.684L597.169 193.597C597.14 194.882 596.973 196.161 596.672 197.411C596.46 198.813 595.984 200.163 595.268 201.387C595.371 199.992 595.63 198.612 596.038 197.274C596.411 195.61 596.709 194.181 596.92 193.547L596.995 193.299L597.131 193.473C597.28 193.672 597.343 193.796 597.318 193.821Z" fill="#263238"/>
<path d="M612.077 184.118C609.109 183.948 606.181 183.354 603.381 182.354C604.87 182.327 606.355 182.516 607.791 182.913C609.269 183.114 610.711 183.52 612.077 184.118Z" fill="#263238"/>
<path d="M608.549 198.195C608.361 197.077 608.39 195.934 608.636 194.828C608.676 193.699 608.924 192.587 609.369 191.548C609.557 192.665 609.528 193.809 609.282 194.915C609.242 196.044 608.994 197.156 608.549 198.195Z" fill="#263238"/>
<path d="M616.388 202.331C616.465 201.306 616.752 200.308 617.233 199.399C617.529 198.417 618.019 197.505 618.674 196.716C618.598 197.741 618.31 198.739 617.83 199.648C617.539 200.632 617.048 201.546 616.388 202.331Z" fill="#263238"/>
<path d="M616.451 210.208C615.032 209.568 613.71 208.732 612.525 207.724C611.205 206.913 610.008 205.918 608.971 204.767C610.39 205.406 611.712 206.243 612.897 207.251C614.212 208.069 615.408 209.064 616.451 210.208Z" fill="#263238"/>
<path d="M578.806 260.152C577.683 259.779 576.639 259.202 575.725 258.45C574.685 257.873 573.758 257.111 572.992 256.201C574.114 256.59 575.161 257.17 576.085 257.916C577.118 258.493 578.039 259.251 578.806 260.152Z" fill="#263238"/>
<path d="M592.994 255.158C592.31 256.517 591.435 257.772 590.398 258.885C589.531 260.126 588.489 261.235 587.304 262.178C587.989 260.819 588.863 259.564 589.901 258.451C590.768 257.21 591.81 256.101 592.994 255.158Z" fill="#263238"/>
<path d="M607.729 261.991C607.938 260.901 608.36 259.862 608.971 258.935C609.405 257.909 610.034 256.976 610.823 256.189C610.171 258.311 609.107 260.282 607.692 261.991H607.729Z" fill="#263238"/>
<path d="M603.791 262.798C602.968 262.021 602.302 261.093 601.828 260.065C601.177 259.14 600.702 258.105 600.424 257.009C601.251 257.782 601.918 258.711 602.387 259.742C603.047 260.661 603.524 261.699 603.791 262.798Z" fill="#263238"/>
<path d="M567.475 133.466C566.739 133.886 566.117 134.48 565.663 135.196C565.21 135.912 564.938 136.728 564.872 137.573C564.806 138.418 564.948 139.266 565.286 140.044C565.623 140.821 566.146 141.504 566.808 142.033C567.47 142.563 568.252 142.921 569.084 143.079C569.917 143.237 570.776 143.188 571.586 142.937C572.395 142.686 573.131 142.241 573.729 141.641C574.328 141.04 574.769 140.302 575.017 139.491C574.599 140.348 574.472 141.318 574.656 142.253C574.84 143.188 575.324 144.038 576.036 144.672C576.77 145.278 577.657 145.67 578.599 145.806C579.541 145.942 580.502 145.816 581.378 145.443C582.247 145.052 583.019 144.473 583.636 143.746C584.253 143.02 584.699 142.165 584.943 141.243C584.957 142.146 585.18 143.033 585.595 143.835C586.009 144.637 586.604 145.332 587.332 145.865C588.061 146.399 588.903 146.756 589.793 146.909C590.682 147.062 591.595 147.006 592.46 146.747C591.574 147.305 590.862 148.099 590.404 149.041C589.945 149.982 589.759 151.033 589.867 152.074C589.974 153.115 590.37 154.106 591.01 154.934C591.651 155.762 592.51 156.395 593.491 156.761C592.432 157.425 591.652 158.454 591.297 159.653C590.943 160.852 591.038 162.14 591.566 163.273C592.094 164.407 593.018 165.309 594.164 165.81C595.31 166.31 596.599 166.375 597.79 165.992C600.275 165.221 601.753 162.762 602.759 160.364C605.419 153.836 605.393 146.521 602.685 140.013C601.288 136.813 599.178 133.974 596.517 131.713C593.856 129.452 590.713 127.829 587.329 126.968C583.94 126.162 580.4 126.254 577.058 127.235C573.716 128.215 570.687 130.05 568.271 132.559" fill="#263238"/>
<path d="M608.723 134.212C608.723 134.212 608.723 134.299 608.785 134.485C608.817 134.749 608.817 135.016 608.785 135.28C608.653 136.28 608.219 137.216 607.543 137.964C607.013 138.557 606.338 139.002 605.585 139.255C604.831 139.507 604.024 139.559 603.244 139.405C602.237 139.188 601.319 138.672 600.609 137.925C599.9 137.178 599.433 136.235 599.268 135.218H599.865C599.729 136.049 599.416 136.841 598.946 137.54C598.477 138.239 597.862 138.828 597.144 139.268C596.374 139.766 595.49 140.06 594.575 140.123C593.66 140.186 592.744 140.016 591.913 139.628C591.124 139.271 590.423 138.746 589.859 138.089C589.294 137.432 588.88 136.66 588.646 135.827C588.512 135.419 588.462 134.988 588.501 134.561C588.539 134.134 588.665 133.719 588.869 133.342C589.112 132.961 589.482 132.68 589.913 132.547C590.135 132.478 590.369 132.462 590.598 132.501C590.827 132.54 591.043 132.632 591.23 132.77C591.547 133.045 591.765 133.417 591.85 133.827C591.936 134.238 591.884 134.666 591.702 135.044C591.385 135.694 590.895 136.244 590.286 136.634C589.238 137.344 587.983 137.685 586.72 137.603C585.688 137.542 584.697 137.174 583.875 136.547C583.26 136.091 582.751 135.506 582.384 134.833C582.139 134.416 581.963 133.963 581.862 133.491C581.835 133.331 581.835 133.167 581.862 133.006C582.074 133.595 582.336 134.165 582.645 134.708C583.082 135.429 583.689 136.032 584.412 136.465C585.135 136.898 585.953 137.148 586.795 137.193C587.947 137.237 589.082 136.901 590.025 136.237C590.555 135.902 590.985 135.43 591.267 134.87C591.395 134.609 591.434 134.314 591.378 134.029C591.322 133.744 591.174 133.485 590.957 133.292C590.831 133.222 590.693 133.178 590.551 133.163C590.408 133.147 590.264 133.159 590.126 133.2C589.989 133.24 589.861 133.308 589.749 133.398C589.638 133.489 589.546 133.601 589.478 133.727C589.324 134.035 589.233 134.371 589.212 134.714C589.191 135.058 589.239 135.403 589.354 135.727C589.564 136.468 589.935 137.154 590.439 137.735C590.944 138.317 591.57 138.781 592.274 139.094C593.006 139.439 593.815 139.592 594.623 139.54C595.431 139.488 596.213 139.232 596.895 138.796C597.54 138.405 598.095 137.882 598.524 137.261C598.952 136.64 599.244 135.935 599.38 135.193L599.691 133.093L599.964 135.205C600.115 136.101 600.527 136.932 601.148 137.595C601.769 138.258 602.571 138.723 603.455 138.933C604.161 139.079 604.893 139.041 605.58 138.824C606.268 138.606 606.888 138.216 607.381 137.69C608.064 137.011 608.534 136.147 608.735 135.205C608.723 134.584 608.686 134.212 608.723 134.212Z" fill="#455A64"/>
<path d="M615.27 142.66C615.335 143.009 615.305 143.369 615.183 143.703C614.93 144.652 614.418 145.512 613.705 146.188C613.181 146.703 612.553 147.099 611.862 147.349C611.172 147.6 610.436 147.7 609.704 147.642C608.805 147.565 607.937 147.274 607.172 146.795C606.407 146.315 605.767 145.66 605.306 144.884C605.196 144.701 605.101 144.51 605.021 144.312H605.629C605.299 145.187 604.651 145.905 603.815 146.325C603.077 146.726 602.245 146.924 601.405 146.896C599.987 146.832 598.65 146.217 597.678 145.182C597.036 144.536 596.518 143.778 596.15 142.945C595.985 142.659 595.88 142.342 595.839 142.014C596.446 143.04 597.167 143.995 597.989 144.859C598.898 145.75 600.108 146.269 601.38 146.312C602.136 146.345 602.884 146.15 603.529 145.754C604.173 145.358 604.684 144.778 604.996 144.088L605.244 143.393L605.592 144.076C605.679 144.238 605.741 144.411 605.841 144.573C606.255 145.258 606.821 145.838 607.495 146.269C608.17 146.7 608.934 146.97 609.729 147.058C610.389 147.111 611.052 147.028 611.678 146.814C612.304 146.601 612.88 146.261 613.369 145.815C614.059 145.22 614.592 144.465 614.922 143.616C615.022 143.292 615.138 142.972 615.27 142.66Z" fill="#455A64"/>
<path d="M607.083 158.028C606.726 158.278 606.32 158.45 605.891 158.531C605.463 158.612 605.022 158.602 604.598 158.5C603.654 158.378 602.778 157.94 602.113 157.258C601.297 156.392 600.851 155.242 600.871 154.053L601.356 154.338L601.169 154.425C600.083 154.986 598.819 155.093 597.653 154.723C596.714 154.423 595.904 153.815 595.355 152.997C595.073 152.654 594.869 152.254 594.755 151.826C594.642 151.397 594.622 150.949 594.696 150.512C594.908 151.303 595.257 152.052 595.727 152.723C596.26 153.408 596.994 153.908 597.827 154.152C598.843 154.435 599.929 154.329 600.871 153.854L601.032 153.779L601.517 153.506V154.053C601.514 154.993 601.833 155.906 602.421 156.64C603.008 157.375 603.829 157.886 604.747 158.09C605.524 158.193 606.312 158.172 607.083 158.028Z" fill="#455A64"/>
<path d="M561.363 138.349C562.276 139.175 563.357 139.793 564.531 140.162C565.804 140.51 567.156 140.418 568.37 139.902C569.841 139.249 570.996 138.044 571.588 136.547C571.716 136.2 571.816 135.842 571.886 135.479L572.085 134.51L572.495 135.404C572.662 135.69 572.916 135.914 573.22 136.044C573.525 136.174 573.863 136.202 574.184 136.125C574.845 135.962 575.444 135.613 575.911 135.118C576.759 134.27 577.357 133.204 577.638 132.037C577.861 130.949 577.89 129.831 577.725 128.732C577.894 128.996 578.004 129.292 578.048 129.602C578.216 130.422 578.216 131.267 578.048 132.087C577.81 133.362 577.206 134.541 576.309 135.479C575.775 136.088 575.069 136.521 574.284 136.721C573.824 136.828 573.342 136.781 572.911 136.588C572.481 136.395 572.125 136.067 571.898 135.653L572.507 135.566C572.439 135.99 572.327 136.407 572.172 136.808C571.856 137.637 571.376 138.395 570.761 139.035C570.146 139.675 569.409 140.185 568.594 140.535C567.252 141.067 565.768 141.115 564.394 140.672C563.486 140.392 562.656 139.903 561.972 139.243C561.701 138.997 561.492 138.691 561.363 138.349Z" fill="#455A64"/>
<path d="M564.966 148.536C565.04 148.536 565.04 149.132 564.444 149.778C564.035 150.174 563.53 150.457 562.979 150.598C562.428 150.74 561.85 150.736 561.301 150.586C560.249 150.307 559.291 149.749 558.53 148.971C557.946 148.412 557.648 148.014 557.698 147.952C557.748 147.89 558.182 148.163 558.816 148.623C559.601 149.23 560.495 149.681 561.45 149.952C561.907 150.075 562.387 150.092 562.852 150.001C563.317 149.911 563.755 149.716 564.133 149.431C564.705 148.996 564.867 148.511 564.966 148.536Z" fill="#455A64"/>
<path d="M575.004 150.176C575.004 150.176 575.004 149.741 574.731 149.02C574.417 148.021 573.79 147.15 572.942 146.535C572.414 146.138 571.806 145.859 571.161 145.718C570.515 145.576 569.847 145.575 569.201 145.714C568.555 145.853 567.946 146.13 567.416 146.525C566.887 146.92 566.448 147.425 566.13 148.004C565.813 148.584 565.623 149.225 565.575 149.884C565.527 150.543 565.621 151.205 565.851 151.824C566.081 152.444 566.442 153.007 566.909 153.475C567.375 153.943 567.937 154.305 568.556 154.536C569.282 154.8 570.06 154.883 570.825 154.776C571.589 154.67 572.316 154.379 572.942 153.928C573.785 153.308 574.411 152.439 574.731 151.443C574.942 150.71 574.942 150.275 575.004 150.275C575.104 150.683 575.104 151.109 575.004 151.517C574.76 152.623 574.136 153.608 573.24 154.3C572.564 154.834 571.764 155.187 570.915 155.328C570.066 155.47 569.195 155.394 568.382 155.108C567.375 154.754 566.503 154.096 565.886 153.224C565.268 152.353 564.937 151.312 564.937 150.244C564.937 149.176 565.268 148.135 565.886 147.264C566.503 146.392 567.375 145.734 568.382 145.38C569.193 145.091 570.064 145.013 570.914 145.152C571.763 145.291 572.564 145.643 573.24 146.175C574.144 146.885 574.765 147.894 574.992 149.02C575.084 149.399 575.088 149.795 575.004 150.176Z" fill="#455A64"/>
<path d="M588.807 150.176C588.807 150.176 588.807 149.741 588.534 149.021C588.225 148.019 587.597 147.147 586.745 146.536C586.217 146.136 585.608 145.855 584.961 145.711C584.314 145.568 583.644 145.565 582.996 145.704C582.348 145.843 581.738 146.121 581.207 146.517C580.676 146.913 580.236 147.419 579.919 148.001C579.601 148.582 579.412 149.225 579.365 149.886C579.319 150.547 579.415 151.21 579.648 151.831C579.881 152.451 580.244 153.014 580.715 153.481C581.185 153.948 581.75 154.308 582.372 154.537C583.095 154.801 583.872 154.883 584.634 154.777C585.397 154.671 586.121 154.379 586.745 153.928C587.592 153.313 588.219 152.442 588.534 151.443C588.745 150.71 588.758 150.276 588.807 150.276C588.921 150.682 588.921 151.112 588.807 151.518C588.571 152.641 587.946 153.644 587.043 154.351C586.37 154.884 585.572 155.238 584.725 155.379C583.877 155.52 583.008 155.444 582.198 155.158C581.191 154.804 580.318 154.146 579.701 153.275C579.084 152.403 578.752 151.362 578.752 150.294C578.752 149.227 579.084 148.185 579.701 147.314C580.318 146.443 581.191 145.785 582.198 145.43C583.007 145.143 583.876 145.065 584.723 145.204C585.57 145.343 586.368 145.694 587.043 146.225C587.95 146.935 588.575 147.943 588.807 149.071C588.898 149.433 588.898 149.813 588.807 150.176Z" fill="#455A64"/>
<path d="M579.303 149.94C579.303 150.127 578.322 150.263 577.104 150.263C575.886 150.263 574.917 150.127 574.917 149.94C574.917 149.754 575.899 149.617 577.104 149.617C578.309 149.617 579.303 149.766 579.303 149.94Z" fill="#455A64"/>
<path d="M530.626 262.749C549.463 260.87 568.427 260.633 587.304 262.041L563.301 296.43L541.683 296.517L537.087 395.325H508.512L511.245 284.354C511.371 279.042 513.39 273.95 516.939 269.995C520.488 266.04 525.334 263.484 530.601 262.786L530.626 262.749Z" fill="#263238"/>
<path d="M583.254 299.151C583.254 299.151 626.079 302.059 625.011 263.594C625.011 263.594 556.406 252.003 551.946 271.943C550.504 278.354 554.43 396.083 554.43 396.083H584.422" fill="#263238"/>
<path d="M583.676 290.628C583.93 293.91 583.742 297.211 583.117 300.443C582.881 297.161 583.069 293.862 583.676 290.628Z" fill="#455A64"/>
<path d="M582.31 260.053C582.12 260.16 581.921 260.248 581.713 260.314C581.328 260.463 580.744 260.662 579.974 260.886C577.795 261.47 575.584 261.926 573.352 262.252C570.061 262.678 566.812 263.376 563.637 264.339C561.796 264.936 560.042 265.772 558.418 266.824C556.699 267.993 555.244 269.508 554.145 271.272C552.01 274.711 550.942 278.706 551.076 282.752C551.275 286.479 551.449 289.846 551.598 292.691C551.747 295.536 551.834 297.747 551.908 299.437C551.908 300.17 551.908 300.766 551.908 301.263C551.942 301.477 551.942 301.695 551.908 301.909C551.858 301.697 551.824 301.481 551.809 301.263C551.809 300.779 551.71 300.17 551.635 299.449C551.511 297.76 551.324 295.486 551.113 292.728C550.902 289.97 550.654 286.516 550.455 282.789C550.282 278.617 551.374 274.49 553.586 270.949C554.723 269.11 556.239 267.534 558.033 266.327C559.708 265.234 561.522 264.369 563.425 263.756C566.641 262.812 569.934 262.151 573.265 261.78C576.073 261.395 578.346 260.997 579.887 260.625C581.428 260.252 582.285 260.003 582.31 260.053Z" fill="#455A64"/>
<path d="M491.342 191.833L507.604 242.598L597.516 244.238L596.92 241.529L564.084 240.523L548.964 191.809L491.342 191.833Z" fill="#455A64"/>
<path d="M527.856 217.203C528.39 219.352 527.47 221.464 525.806 221.911C524.141 222.359 522.339 220.98 521.805 218.83C521.271 216.681 522.19 214.581 523.867 214.134C525.545 213.687 527.272 215.066 527.856 217.203Z" fill="white"/>
<path d="M691.491 228.061C690.041 226.981 688.249 226.464 686.447 226.607C686.447 225.638 686.447 225.029 686.447 225.029H658.965C658.965 225.029 658.095 243.181 671.998 243.827C678.21 244.112 681.775 241.342 683.813 237.814C684.834 238.062 685.88 238.191 686.931 238.199C688.472 238.256 689.991 237.821 691.267 236.956C691.963 236.407 692.514 235.698 692.873 234.888C693.232 234.078 693.389 233.193 693.33 232.31C693.365 231.508 693.218 230.71 692.9 229.974C692.581 229.237 692.099 228.583 691.491 228.061ZM689.602 234.795C688.435 235.677 686.335 235.54 684.956 235.291C685.661 233.371 686.112 231.366 686.298 229.328C687.502 229.187 688.719 229.468 689.739 230.123C690.039 230.401 690.271 230.743 690.417 231.124C690.564 231.506 690.621 231.915 690.584 232.322C690.634 232.783 690.571 233.249 690.4 233.68C690.229 234.111 689.955 234.494 689.602 234.795Z" fill="#CD5954"/>
<path d="M682.384 219.178C682.183 219 682.007 218.796 681.862 218.569C681.415 217.923 681.106 217.191 680.956 216.42C680.678 215.174 680.79 213.873 681.279 212.693C682.045 211.253 683.098 209.984 684.372 208.966C685.804 207.647 686.778 205.906 687.155 203.996C687.482 202.325 687.311 200.595 686.664 199.021C686.017 197.446 684.922 196.096 683.515 195.138C682.459 194.468 681.313 193.953 680.111 193.61C678.806 193.246 677.586 192.63 676.52 191.796C676 191.324 675.577 190.754 675.278 190.119C674.956 189.446 674.865 188.687 675.017 187.957C675.017 187.845 675.079 187.746 675.104 187.659L675.427 187.982C674.853 188.239 674.363 188.651 674.009 189.17C673.656 189.69 673.454 190.298 673.427 190.926C673.352 192.191 673.631 193.452 674.234 194.566C674.781 195.722 675.477 196.79 675.949 197.958C676.496 199.094 676.736 200.353 676.644 201.611C676.487 202.82 675.906 203.934 675.004 204.754C674.189 205.511 673.258 206.131 672.246 206.593C670.424 207.258 668.64 208.026 666.904 208.891C665.525 209.677 664.432 210.883 663.786 212.333C663.29 213.425 663.036 214.612 663.04 215.811C663.072 216.837 663.265 217.852 663.612 218.818C663.574 218.763 663.541 218.705 663.512 218.644C663.512 218.52 663.363 218.346 663.276 218.085C663.014 217.354 662.867 216.587 662.841 215.811C662.8 214.579 663.034 213.352 663.525 212.221C664.169 210.699 665.284 209.423 666.705 208.581C668.446 207.69 670.233 206.893 672.06 206.195C673.03 205.753 673.92 205.152 674.694 204.419C675.507 203.669 676.03 202.658 676.172 201.561C676.248 200.387 676.017 199.214 675.501 198.157C675.017 197.039 674.346 195.97 673.787 194.79C673.129 193.59 672.823 192.23 672.905 190.864C672.985 190.16 673.218 189.481 673.588 188.876C673.971 188.237 674.564 187.75 675.265 187.497L675.725 187.323L675.588 187.82L675.526 188.069C675.44 188.697 675.521 189.336 675.761 189.923C676.001 190.51 676.391 191.023 676.893 191.411C677.912 192.203 679.077 192.785 680.322 193.125C681.565 193.487 682.749 194.027 683.838 194.728C684.871 195.441 685.746 196.358 686.41 197.424C687.679 199.395 688.126 201.786 687.652 204.083C687.236 206.061 686.2 207.854 684.695 209.202C683.438 210.196 682.391 211.429 681.614 212.83C681.142 213.938 681.008 215.161 681.229 216.346C681.392 217.366 681.788 218.335 682.384 219.178Z" fill="#263238"/>
<path d="M715.892 242.833H433.918V251.468H449.001L440.975 404.071L445.286 404.058L453.312 251.468L700.461 250.113L706.151 403.611L710.91 403.872L704.822 251.468H715.892V242.833Z" fill="#263238"/>
<path d="M280.533 36.9189H160.505V404.605H280.533V36.9189Z" fill="#EBEBEB"/>
<path d="M375.228 38.1113H280.359V404.617H375.228V38.1113Z" fill="#E0E0E0"/>
<path d="M268.966 95.7715H167.152V124.433H268.966V95.7715Z" fill="#263238"/>
<path d="M175.687 99.374H169.984V121.315H175.687V99.374Z" fill="#CD5954"/>
<path d="M182.408 103.983C182.411 104.342 182.307 104.694 182.109 104.994C181.911 105.294 181.629 105.529 181.297 105.668C180.966 105.807 180.601 105.845 180.248 105.776C179.896 105.707 179.571 105.536 179.316 105.283C179.061 105.029 178.887 104.706 178.816 104.354C178.745 104.002 178.781 103.636 178.918 103.304C179.054 102.972 179.287 102.688 179.585 102.488C179.884 102.288 180.235 102.182 180.595 102.182C181.073 102.182 181.533 102.371 181.873 102.709C182.213 103.046 182.405 103.504 182.408 103.983Z" fill="white"/>
<path d="M182.408 111.736C182.408 112.095 182.302 112.445 182.103 112.744C181.903 113.042 181.62 113.274 181.289 113.412C180.957 113.549 180.592 113.585 180.241 113.515C179.889 113.445 179.566 113.272 179.312 113.018C179.058 112.765 178.885 112.441 178.815 112.09C178.745 111.738 178.781 111.373 178.919 111.042C179.056 110.71 179.288 110.427 179.587 110.228C179.885 110.028 180.236 109.922 180.595 109.922C181.076 109.922 181.537 110.113 181.877 110.453C182.217 110.793 182.408 111.255 182.408 111.736Z" fill="white"/>
<path d="M195.255 102.182H189.652V119.028H195.255V102.182Z" fill="#455A64"/>
<path d="M203.343 102.182H197.74V119.028H203.343V102.182Z" fill="#455A64"/>
<path d="M211.443 102.182H205.84V119.028H211.443V102.182Z" fill="#455A64"/>
<path d="M219.531 102.182H213.928V119.028H219.531V102.182Z" fill="#455A64"/>
<path d="M227.619 102.182H222.016V119.028H227.619V102.182Z" fill="#455A64"/>
<path d="M235.719 102.182H230.116V119.028H235.719V102.182Z" fill="#455A64"/>
<path d="M243.807 102.182H238.204V119.028H243.807V102.182Z" fill="#455A64"/>
<path d="M251.908 102.182H246.305V119.028H251.908V102.182Z" fill="#455A64"/>
<path d="M259.996 102.182H254.393V119.028H259.996V102.182Z" fill="#455A64"/>
<path d="M268.084 102.182H262.481V119.028H268.084V102.182Z" fill="#455A64"/>
<path d="M268.966 136.943H167.152V165.605H268.966V136.943Z" fill="#263238"/>
<path d="M175.687 140.56H169.984V162.5H175.687V140.56Z" fill="#CD5954"/>
<path d="M182.408 145.168C182.408 145.527 182.302 145.878 182.103 146.176C181.903 146.474 181.62 146.707 181.289 146.844C180.957 146.981 180.592 147.017 180.241 146.947C179.889 146.877 179.566 146.705 179.312 146.451C179.058 146.197 178.885 145.874 178.815 145.522C178.745 145.17 178.781 144.806 178.919 144.474C179.056 144.143 179.288 143.859 179.587 143.66C179.885 143.461 180.236 143.354 180.595 143.354C181.076 143.354 181.537 143.546 181.877 143.886C182.217 144.226 182.408 144.687 182.408 145.168Z" fill="white"/>
<path d="M182.408 152.921C182.408 153.28 182.302 153.631 182.103 153.929C181.903 154.227 181.62 154.46 181.289 154.597C180.957 154.734 180.592 154.77 180.241 154.7C179.889 154.63 179.566 154.458 179.312 154.204C179.058 153.95 178.885 153.627 178.815 153.275C178.745 152.923 178.781 152.559 178.919 152.227C179.056 151.896 179.288 151.612 179.587 151.413C179.885 151.214 180.236 151.107 180.595 151.107C181.076 151.107 181.537 151.299 181.877 151.639C182.217 151.979 182.408 152.44 182.408 152.921Z" fill="white"/>
<path d="M195.255 143.354H189.652V160.201H195.255V143.354Z" fill="#455A64"/>
<path d="M203.343 143.354H197.74V160.201H203.343V143.354Z" fill="#455A64"/>
<path d="M211.443 143.354H205.84V160.201H211.443V143.354Z" fill="#455A64"/>
<path d="M219.531 143.354H213.928V160.201H219.531V143.354Z" fill="#455A64"/>
<path d="M227.619 143.354H222.016V160.201H227.619V143.354Z" fill="#455A64"/>
<path d="M235.719 143.354H230.116V160.201H235.719V143.354Z" fill="#455A64"/>
<path d="M243.807 143.354H238.204V160.201H243.807V143.354Z" fill="#455A64"/>
<path d="M251.908 143.354H246.305V160.201H251.908V143.354Z" fill="#455A64"/>
<path d="M259.996 143.354H254.393V160.201H259.996V143.354Z" fill="#455A64"/>
<path d="M268.084 143.354H262.481V160.201H268.084V143.354Z" fill="#455A64"/>
<path d="M268.966 178.465H167.152V207.127H268.966V178.465Z" fill="#263238"/>
<path d="M175.687 182.067H169.984V204.008H175.687V182.067Z" fill="#CD5954"/>
<path d="M182.408 186.677C182.408 187.038 182.301 187.39 182.099 187.69C181.897 187.989 181.611 188.221 181.277 188.357C180.942 188.493 180.575 188.526 180.222 188.451C179.869 188.377 179.546 188.2 179.294 187.941C179.043 187.682 178.874 187.354 178.81 186.999C178.745 186.644 178.788 186.278 178.933 185.948C179.078 185.617 179.319 185.337 179.623 185.144C179.928 184.951 180.283 184.853 180.644 184.863C181.117 184.876 181.565 185.073 181.895 185.412C182.224 185.75 182.409 186.204 182.408 186.677Z" fill="white"/>
<path d="M182.408 194.429C182.408 194.788 182.302 195.139 182.103 195.437C181.903 195.735 181.62 195.968 181.289 196.105C180.957 196.242 180.592 196.278 180.241 196.208C179.889 196.138 179.566 195.965 179.312 195.712C179.058 195.458 178.885 195.135 178.815 194.783C178.745 194.431 178.781 194.066 178.919 193.735C179.056 193.404 179.288 193.12 179.587 192.921C179.885 192.722 180.236 192.615 180.595 192.615C181.076 192.615 181.537 192.806 181.877 193.147C182.217 193.487 182.408 193.948 182.408 194.429Z" fill="white"/>
<path d="M195.255 184.863H189.652V201.71H195.255V184.863Z" fill="#455A64"/>
<path d="M203.343 184.863H197.74V201.71H203.343V184.863Z" fill="#455A64"/>
<path d="M211.443 184.863H205.84V201.71H211.443V184.863Z" fill="#455A64"/>
<path d="M219.531 184.863H213.928V201.71H219.531V184.863Z" fill="#455A64"/>
<path d="M227.619 184.863H222.016V201.71H227.619V184.863Z" fill="#455A64"/>
<path d="M235.719 184.863H230.116V201.71H235.719V184.863Z" fill="#455A64"/>
<path d="M243.807 184.863H238.204V201.71H243.807V184.863Z" fill="#455A64"/>
<path d="M251.908 184.863H246.305V201.71H251.908V184.863Z" fill="#455A64"/>
<path d="M259.996 184.863H254.393V201.71H259.996V184.863Z" fill="#455A64"/>
<path d="M268.084 184.863H262.481V201.71H268.084V184.863Z" fill="#455A64"/>
<path d="M268.966 220.545H167.152V249.207H268.966V220.545Z" fill="#263238"/>
<path d="M175.687 224.147H169.984V246.088H175.687V224.147Z" fill="#CD5954"/>
<path d="M182.408 228.756C182.408 229.115 182.302 229.466 182.103 229.764C181.903 230.062 181.62 230.295 181.289 230.432C180.957 230.569 180.592 230.605 180.241 230.535C179.889 230.465 179.566 230.293 179.312 230.039C179.058 229.785 178.885 229.462 178.815 229.11C178.745 228.758 178.781 228.394 178.919 228.062C179.056 227.731 179.288 227.447 179.587 227.248C179.885 227.049 180.236 226.942 180.595 226.942C181.076 226.942 181.537 227.133 181.877 227.474C182.217 227.814 182.408 228.275 182.408 228.756Z" fill="white"/>
<path d="M182.408 236.509C182.408 236.868 182.302 237.219 182.103 237.517C181.903 237.815 181.62 238.048 181.289 238.185C180.957 238.322 180.592 238.358 180.241 238.288C179.889 238.218 179.566 238.045 179.312 237.792C179.058 237.538 178.885 237.215 178.815 236.863C178.745 236.511 178.781 236.146 178.919 235.815C179.056 235.484 179.288 235.2 179.587 235.001C179.885 234.802 180.236 234.695 180.595 234.695C181.076 234.695 181.537 234.886 181.877 235.227C182.217 235.567 182.408 236.028 182.408 236.509Z" fill="white"/>
<path d="M195.255 226.942H189.652V243.789H195.255V226.942Z" fill="#455A64"/>
<path d="M203.343 226.942H197.74V243.789H203.343V226.942Z" fill="#455A64"/>
<path d="M211.443 226.942H205.84V243.789H211.443V226.942Z" fill="#455A64"/>
<path d="M219.531 226.942H213.928V243.789H219.531V226.942Z" fill="#455A64"/>
<path d="M227.619 226.942H222.016V243.789H227.619V226.942Z" fill="#455A64"/>
<path d="M235.719 226.942H230.116V243.789H235.719V226.942Z" fill="#455A64"/>
<path d="M243.807 226.942H238.204V243.789H243.807V226.942Z" fill="#455A64"/>
<path d="M251.908 226.942H246.305V243.789H251.908V226.942Z" fill="#455A64"/>
<path d="M259.996 226.942H254.393V243.789H259.996V226.942Z" fill="#455A64"/>
<path d="M268.084 226.942H262.481V243.789H268.084V226.942Z" fill="#455A64"/>
<path d="M268.966 268.588H167.152V297.25H268.966V268.588Z" fill="#263238"/>
<path d="M175.687 272.19H169.984V294.131H175.687V272.19Z" fill="#CD5954"/>
<path d="M182.408 276.8C182.408 277.159 182.302 277.51 182.103 277.808C181.903 278.106 181.62 278.339 181.289 278.476C180.957 278.613 180.592 278.649 180.241 278.579C179.889 278.509 179.566 278.337 179.312 278.083C179.058 277.829 178.885 277.506 178.815 277.154C178.745 276.802 178.781 276.438 178.919 276.106C179.056 275.775 179.288 275.491 179.587 275.292C179.885 275.093 180.236 274.986 180.595 274.986C181.076 274.986 181.537 275.177 181.877 275.518C182.217 275.858 182.408 276.319 182.408 276.8Z" fill="white"/>
<path d="M182.408 284.552C182.408 284.911 182.302 285.262 182.103 285.56C181.903 285.858 181.62 286.091 181.289 286.228C180.957 286.365 180.592 286.401 180.241 286.331C179.889 286.261 179.566 286.088 179.312 285.835C179.058 285.581 178.885 285.258 178.815 284.906C178.745 284.554 178.781 284.189 178.919 283.858C179.056 283.527 179.288 283.243 179.587 283.044C179.885 282.845 180.236 282.738 180.595 282.738C181.076 282.738 181.537 282.929 181.877 283.27C182.217 283.61 182.408 284.071 182.408 284.552Z" fill="white"/>
<path d="M195.255 274.986H189.652V291.833H195.255V274.986Z" fill="#455A64"/>
<path d="M203.343 274.986H197.74V291.833H203.343V274.986Z" fill="#455A64"/>
<path d="M211.443 274.986H205.84V291.833H211.443V274.986Z" fill="#455A64"/>
<path d="M219.531 274.986H213.928V291.833H219.531V274.986Z" fill="#455A64"/>
<path d="M227.619 274.986H222.016V291.833H227.619V274.986Z" fill="#455A64"/>
<path d="M235.719 274.986H230.116V291.833H235.719V274.986Z" fill="#455A64"/>
<path d="M243.807 274.986H238.204V291.833H243.807V274.986Z" fill="#455A64"/>
<path d="M251.908 274.986H246.305V291.833H251.908V274.986Z" fill="#455A64"/>
<path d="M259.996 274.986H254.393V291.833H259.996V274.986Z" fill="#455A64"/>
<path d="M268.084 274.986H262.481V291.833H268.084V274.986Z" fill="#455A64"/>
<path d="M268.966 358.711H167.152V387.373H268.966V358.711Z" fill="#263238"/>
<path d="M175.687 362.313H169.984V384.254H175.687V362.313Z" fill="#CD5954"/>
<path d="M182.408 366.924C182.411 367.283 182.307 367.635 182.109 367.935C181.911 368.235 181.629 368.469 181.297 368.608C180.966 368.747 180.601 368.785 180.248 368.717C179.896 368.648 179.571 368.476 179.316 368.223C179.061 367.97 178.887 367.647 178.816 367.294C178.745 366.942 178.781 366.577 178.918 366.245C179.054 365.913 179.287 365.629 179.585 365.429C179.884 365.229 180.235 365.122 180.595 365.122C181.073 365.122 181.533 365.311 181.873 365.649C182.213 365.986 182.405 366.445 182.408 366.924Z" fill="white"/>
<path d="M182.408 374.675C182.408 375.034 182.302 375.385 182.103 375.683C181.903 375.981 181.62 376.214 181.289 376.351C180.957 376.488 180.592 376.524 180.241 376.454C179.889 376.384 179.566 376.212 179.312 375.958C179.058 375.704 178.885 375.381 178.815 375.029C178.745 374.677 178.781 374.313 178.919 373.981C179.056 373.65 179.288 373.366 179.587 373.167C179.885 372.968 180.236 372.861 180.595 372.861C181.076 372.861 181.537 373.052 181.877 373.393C182.217 373.733 182.408 374.194 182.408 374.675Z" fill="white"/>
<path d="M195.255 365.122H189.652V381.969H195.255V365.122Z" fill="#455A64"/>
<path d="M203.343 365.122H197.74V381.969H203.343V365.122Z" fill="#455A64"/>
<path d="M211.443 365.122H205.84V381.969H211.443V365.122Z" fill="#455A64"/>
<path d="M219.531 365.122H213.928V381.969H219.531V365.122Z" fill="#455A64"/>
<path d="M227.619 365.122H222.016V381.969H227.619V365.122Z" fill="#455A64"/>
<path d="M235.719 365.122H230.116V381.969H235.719V365.122Z" fill="#455A64"/>
<path d="M243.807 365.122H238.204V381.969H243.807V365.122Z" fill="#455A64"/>
<path d="M251.908 365.122H246.305V381.969H251.908V365.122Z" fill="#455A64"/>
<path d="M259.996 365.122H254.393V381.969H259.996V365.122Z" fill="#455A64"/>
<path d="M268.084 365.122H262.481V381.969H268.084V365.122Z" fill="#455A64"/>
<path d="M268.966 313.687H167.152V342.348H268.966V313.687Z" fill="#263238"/>
<path d="M175.687 317.289H169.984V339.23H175.687V317.289Z" fill="#CD5954"/>
<path d="M182.408 321.899C182.411 322.258 182.307 322.61 182.109 322.91C181.911 323.21 181.629 323.445 181.297 323.584C180.966 323.723 180.601 323.761 180.248 323.692C179.896 323.624 179.571 323.452 179.316 323.199C179.061 322.945 178.887 322.622 178.816 322.27C178.745 321.918 178.781 321.552 178.918 321.22C179.054 320.888 179.287 320.604 179.585 320.404C179.884 320.204 180.235 320.098 180.595 320.098C181.073 320.098 181.533 320.287 181.873 320.625C182.213 320.962 182.405 321.42 182.408 321.899Z" fill="white"/>
<path d="M182.408 329.651C182.411 330.01 182.307 330.362 182.109 330.662C181.911 330.962 181.629 331.197 181.297 331.336C180.966 331.475 180.601 331.513 180.248 331.444C179.896 331.375 179.571 331.204 179.316 330.951C179.061 330.697 178.887 330.374 178.816 330.022C178.745 329.67 178.781 329.304 178.918 328.972C179.054 328.64 179.287 328.356 179.585 328.156C179.884 327.956 180.235 327.85 180.595 327.85C181.073 327.85 181.533 328.039 181.873 328.376C182.213 328.714 182.405 329.172 182.408 329.651Z" fill="white"/>
<path d="M195.255 320.098H189.652V336.944H195.255V320.098Z" fill="#455A64"/>
<path d="M203.343 320.098H197.74V336.944H203.343V320.098Z" fill="#455A64"/>
<path d="M211.443 320.098H205.84V336.944H211.443V320.098Z" fill="#455A64"/>
<path d="M219.531 320.098H213.928V336.944H219.531V320.098Z" fill="#455A64"/>
<path d="M227.619 320.098H222.016V336.944H227.619V320.098Z" fill="#455A64"/>
<path d="M235.719 320.098H230.116V336.944H235.719V320.098Z" fill="#455A64"/>
<path d="M243.807 320.098H238.204V336.944H243.807V320.098Z" fill="#455A64"/>
<path d="M251.908 320.098H246.305V336.944H251.908V320.098Z" fill="#455A64"/>
<path d="M259.996 320.098H254.393V336.944H259.996V320.098Z" fill="#455A64"/>
<path d="M268.084 320.098H262.481V336.944H268.084V320.098Z" fill="#455A64"/>
<path d="M230.116 95.7711C230.048 95.4821 230.015 95.1859 230.017 94.889C230.017 94.305 229.942 93.4478 229.905 92.3421C229.868 91.2364 229.905 89.8573 229.793 88.3167C229.737 86.5544 229.503 84.8021 229.097 83.0862C228.519 81.0337 227.6 79.0933 226.377 77.3464C224.982 75.3455 223.042 73.7884 220.786 72.8614C218.243 71.9343 215.575 71.3941 212.872 71.2587L204.113 70.4884C192.087 69.4572 181.191 68.7863 173.289 68.6372C169.338 68.5627 166.145 68.6372 163.934 68.6372H161.387C161.094 68.67 160.798 68.67 160.505 68.6372C160.797 68.5869 161.091 68.5578 161.387 68.5503L163.934 68.3888C166.133 68.3018 169.338 68.2148 173.302 68.2397C181.216 68.2397 192.136 68.8609 204.163 69.9045L212.934 70.6748C215.697 70.8036 218.424 71.3524 221.022 72.3023C223.368 73.2823 225.379 74.9224 226.811 77.0234C228.051 78.8283 228.972 80.8329 229.532 82.9496C229.932 84.7026 230.14 86.4939 230.154 88.2919C230.154 89.8697 230.154 91.2239 230.154 92.3296C230.154 93.4354 230.154 94.2181 230.154 94.8144C230.172 95.1338 230.159 95.4541 230.116 95.7711Z" fill="#263238"/>
<path d="M199.28 95.7707C199.225 95.497 199.204 95.2173 199.218 94.9383V92.5405C199.218 91.4969 199.218 90.2297 199.094 88.8133C199.018 87.1695 198.595 85.5603 197.851 84.0923C196.748 82.4357 195.127 81.1908 193.242 80.5514C191.11 79.7176 188.79 79.4814 186.533 79.8681C185.323 80.0688 184.152 80.4631 183.067 81.036C181.957 81.5959 181.027 82.457 180.383 83.5207C180.068 84.0689 179.902 84.69 179.902 85.3222C179.902 85.9544 180.068 86.5756 180.383 87.1237C180.707 87.6942 181.144 88.1924 181.668 88.5876C182.191 88.9829 182.79 89.2669 183.427 89.4221C184.062 89.561 184.722 89.5394 185.347 89.3593C185.971 89.1793 186.541 88.8465 187.005 88.3909C187.941 87.4929 188.512 86.2804 188.608 84.9868C188.692 83.7352 188.312 82.4965 187.539 81.5081C186.849 80.5046 185.924 79.6856 184.843 79.1227C183.781 78.6372 182.641 78.3428 181.477 78.253C180.334 78.0915 179.215 77.93 178.135 77.8182C175.973 77.5697 173.935 77.433 172.084 77.3585C168.357 77.2094 165.363 77.2715 163.288 77.2715H160.89C160.613 77.301 160.334 77.301 160.058 77.2715C160.331 77.2136 160.61 77.1844 160.89 77.1845L163.288 77.0727C165.363 76.9858 168.369 76.8615 172.097 76.9485C173.96 76.9485 176.01 77.11 178.184 77.3336C179.278 77.4455 180.408 77.5821 181.564 77.7436C182.147 77.8306 182.719 77.9051 183.328 78.017C183.949 78.1433 184.551 78.3522 185.117 78.6382C186.286 79.242 187.293 80.1201 188.049 81.1975C188.923 82.3264 189.347 83.7402 189.236 85.1639C189.126 86.5876 188.49 87.9194 187.452 88.9003C186.917 89.4372 186.256 89.832 185.529 90.0489C184.802 90.2659 184.033 90.2981 183.29 90.1427C182.562 89.9682 181.877 89.6453 181.278 89.1943C180.68 88.7433 180.18 88.1738 179.812 87.5213C179.452 86.8778 179.262 86.1528 179.262 85.4154C179.262 84.678 179.452 83.953 179.812 83.3095C180.508 82.1159 181.535 81.1493 182.769 80.5266C183.909 79.9141 185.144 79.4943 186.421 79.2842C188.785 78.8957 191.209 79.1665 193.428 80.0669C195.412 80.7649 197.105 82.1078 198.236 83.8811C199.016 85.4243 199.44 87.1222 199.479 88.8506C199.566 90.3415 199.479 91.6087 199.479 92.6523C199.479 93.6959 199.404 94.429 199.379 95.0501C199.367 95.2927 199.333 95.5337 199.28 95.7707Z" fill="#263238"/>
<path d="M238.428 95.7709C238.325 95.4642 238.255 95.1478 238.217 94.8267C238.105 94.1931 237.931 93.2737 237.682 92.0934C236.998 88.7704 235.996 85.521 234.688 82.3903C232.842 77.7084 229.785 73.601 225.83 70.4882C223.439 68.7628 220.637 67.696 217.705 67.3947C214.532 67.0511 211.342 66.881 208.151 66.8853C194.994 66.6368 183.067 66.6865 174.445 66.3511C170.134 66.202 166.642 66.0032 164.232 65.8292L161.462 65.6056C161.14 65.5935 160.819 65.5519 160.505 65.4814C160.827 65.4515 161.152 65.4515 161.474 65.4814L164.245 65.5932C166.655 65.6926 170.146 65.8168 174.457 65.9038C183.079 66.1274 194.994 66.0032 208.163 66.2517C211.38 66.2448 214.595 66.4232 217.792 66.7859C220.827 67.111 223.724 68.2293 226.19 70.0285C228.359 71.6921 230.247 73.693 231.781 75.9547C233.099 77.907 234.215 79.9884 235.111 82.1667C236.395 85.3382 237.34 88.6364 237.931 92.0064C238.142 93.1867 238.279 94.1185 238.353 94.7521C238.406 95.0891 238.431 95.4298 238.428 95.7709Z" fill="#263238"/>
<path d="M267.562 41.4912H168.543V55.8657H267.562V41.4912Z" fill="#263238"/>
<path d="M244.23 48.6846H190.322V55.8656H244.23V48.6846Z" fill="#455A64"/>
<path d="M307.965 339.616C307.965 339.616 306.871 339.79 304.97 340.336C302.305 341.15 299.788 342.388 297.516 344.001C295.942 345.106 294.529 346.423 293.317 347.915C292.644 348.734 292.064 349.626 291.59 350.574C291.13 351.602 290.768 352.671 290.509 353.767C289.378 358.301 289.714 363.507 289.95 368.924C290.186 374.341 289.813 379.72 287.676 384.056C286.71 386.112 285.336 387.951 283.639 389.461C280.915 391.826 277.592 393.395 274.035 393.995C272.826 394.177 271.602 394.231 270.382 394.157C269.615 394.106 268.854 393.986 268.109 393.796C267.847 393.749 267.593 393.67 267.351 393.56C267.351 393.486 268.432 393.821 270.395 393.896C271.593 393.938 272.793 393.851 273.973 393.635C275.529 393.34 277.044 392.856 278.483 392.194C280.229 391.397 281.846 390.342 283.278 389.063C284.906 387.583 286.22 385.792 287.142 383.795C289.18 379.596 289.527 374.328 289.291 368.887C289.055 363.445 288.732 358.214 289.925 353.555C290.201 352.423 290.588 351.32 291.08 350.263C291.578 349.278 292.187 348.352 292.894 347.505C294.158 345.996 295.626 344.671 297.255 343.567C299.588 341.958 302.182 340.764 304.921 340.038C305.664 339.845 306.42 339.7 307.182 339.603C307.442 339.574 307.705 339.578 307.965 339.616Z" fill="#263238"/>
<path d="M270.444 389.112H262.319V399.002H270.444V389.112Z" fill="#263238"/>
<path d="M353.548 314.644H307.965V364.588H353.548V314.644Z" fill="#455A64"/>
<path d="M341.36 350.42C347.221 344.559 347.221 335.056 341.36 329.195C335.499 323.334 325.997 323.334 320.136 329.195C314.275 335.056 314.274 344.559 320.136 350.42C325.997 356.281 335.499 356.281 341.36 350.42Z" fill="#263238"/>
<path d="M338.254 339.802C338.254 341.276 337.817 342.718 336.998 343.943C336.179 345.169 335.014 346.125 333.652 346.689C332.29 347.253 330.791 347.401 329.345 347.113C327.899 346.825 326.571 346.116 325.529 345.073C324.486 344.031 323.776 342.702 323.489 341.256C323.201 339.81 323.349 338.311 323.913 336.949C324.477 335.587 325.432 334.423 326.658 333.604C327.884 332.785 329.325 332.348 330.8 332.348C332.777 332.348 334.673 333.133 336.071 334.531C337.469 335.929 338.254 337.825 338.254 339.802Z" fill="#455A64"/>
<path d="M314.127 323.787C314.895 323.787 315.518 323.164 315.518 322.395C315.518 321.627 314.895 321.004 314.127 321.004C313.358 321.004 312.735 321.627 312.735 322.395C312.735 323.164 313.358 323.787 314.127 323.787Z" fill="#263238"/>
<path d="M346.578 323.787C347.347 323.787 347.97 323.164 347.97 322.395C347.97 321.627 347.347 321.004 346.578 321.004C345.81 321.004 345.187 321.627 345.187 322.395C345.187 323.164 345.81 323.787 346.578 323.787Z" fill="#263238"/>
<path d="M346.864 360.662C347.632 360.662 348.255 360.039 348.255 359.27C348.255 358.502 347.632 357.879 346.864 357.879C346.095 357.879 345.472 358.502 345.472 359.27C345.472 360.039 346.095 360.662 346.864 360.662Z" fill="#263238"/>
<path d="M314.127 361.233C314.895 361.233 315.518 360.61 315.518 359.842C315.518 359.073 314.895 358.45 314.127 358.45C313.358 358.45 312.735 359.073 312.735 359.842C312.735 360.61 313.358 361.233 314.127 361.233Z" fill="#263238"/>
<path d="M357.225 314.644H353.548V364.588H357.225V314.644Z" fill="#263238"/>
<path d="M392.261 126.707C392.261 126.881 379.203 127.03 363.089 127.03C346.976 127.03 333.918 126.881 333.918 126.707C333.918 126.533 346.976 126.384 363.089 126.384C379.203 126.384 392.261 126.533 392.261 126.707Z" fill="#263238"/>
<path d="M513.32 132.906C513.133 132.917 512.947 132.917 512.76 132.906H511.046H504.374L479.377 133.005L393.093 133.179H392.857L392.795 132.955C391.847 129.716 391.677 126.298 392.3 122.981C392.923 119.663 394.321 116.539 396.379 113.864C398.438 111.189 401.099 109.038 404.147 107.587C407.194 106.135 410.541 105.424 413.916 105.511L413.593 105.921C413.063 104.039 412.837 102.085 412.922 100.131C413.03 96.807 414.003 93.5684 415.746 90.7357C417.49 87.9031 419.942 85.5745 422.861 83.9802C425.684 82.5051 428.826 81.743 432.011 81.7604C435.197 81.7777 438.329 82.5739 441.137 84.0796L440.702 84.2411C442.258 80.6241 444.549 77.3702 447.43 74.686C450.311 72.0018 453.719 69.946 457.437 68.6491C460.856 67.3536 464.504 66.7733 468.156 66.9443C471.808 67.1152 475.386 68.0338 478.669 69.643C484.574 72.7741 489.217 77.8471 491.814 84.0051C494.191 89.4172 494.758 95.4522 493.429 101.212L493.193 100.939C496.574 100.592 499.988 101.088 503.132 102.38C505.955 103.509 508.498 105.239 510.586 107.449C511.532 108.441 512.32 109.572 512.922 110.803C513.458 111.942 513.875 113.132 514.164 114.357C514.672 116.483 514.956 118.657 515.009 120.842C515.122 123.856 514.863 126.873 514.239 129.825C514.072 130.589 513.864 131.343 513.618 132.086C513.444 132.583 513.344 132.819 513.344 132.819C513.344 132.819 513.419 132.545 513.568 132.048C513.717 131.551 513.903 130.806 514.115 129.8C514.683 126.854 514.904 123.852 514.773 120.854C514.696 118.688 514.397 116.536 513.879 114.431C513.325 111.909 512.101 109.583 510.338 107.698C508.286 105.537 505.795 103.843 503.033 102.728C499.931 101.477 496.568 101.012 493.242 101.374H492.932L492.994 101.063C494.284 95.3963 493.705 89.4639 491.342 84.1542C488.784 78.1175 484.22 73.1495 478.421 70.0903C475.206 68.5242 471.704 67.6336 468.131 67.4733C464.558 67.3131 460.99 67.8866 457.648 69.1585C454.014 70.4358 450.684 72.452 447.868 75.0799C445.052 77.7078 442.811 80.8905 441.286 84.4275L441.149 84.7505L440.838 84.589C438.122 83.1341 435.091 82.3657 432.01 82.3505C428.928 82.3353 425.89 83.074 423.159 84.5021C420.358 86.0469 418.006 88.2925 416.334 91.0191C414.661 93.7457 413.725 96.8599 413.618 100.057C413.492 102.006 413.694 103.963 414.214 105.846L414.338 106.269H413.891C410.615 106.181 407.364 106.868 404.404 108.274C401.444 109.681 398.857 111.766 396.856 114.361C394.854 116.956 393.493 119.987 392.885 123.208C392.277 126.428 392.437 129.747 393.354 132.893L393.056 132.67L479.179 132.806L504.238 132.893H510.959H512.698L513.32 132.906Z" fill="#263238"/>
<path d="M496.584 206.269C496.324 206.299 496.062 206.299 495.802 206.269L493.516 206.332L485.03 206.481L455.61 206.592H455.213V206.282C455.213 201.312 455.213 195.908 455.213 190.33C455.213 174.613 455.287 160.4 455.312 150.039C455.312 144.92 455.387 140.77 455.412 137.826C455.412 136.435 455.412 135.341 455.474 134.509C455.474 134.161 455.474 133.875 455.474 133.639C455.439 133.63 455.408 133.609 455.388 133.578C455.367 133.548 455.359 133.512 455.363 133.476C455.368 133.44 455.385 133.407 455.412 133.383C455.44 133.359 455.475 133.346 455.511 133.346C455.547 133.346 455.582 133.359 455.61 133.383C455.637 133.407 455.654 133.44 455.659 133.476C455.663 133.512 455.655 133.548 455.634 133.578C455.614 133.609 455.583 133.63 455.548 133.639C455.548 133.875 455.548 134.161 455.548 134.509C455.548 135.316 455.548 136.435 455.61 137.826C455.61 140.77 455.673 144.92 455.71 150.039C455.71 160.4 455.71 174.613 455.809 190.33C455.809 195.908 455.809 201.3 455.809 206.282L455.499 205.971L484.918 206.083L493.441 206.182H495.727C496.015 206.185 496.302 206.214 496.584 206.269Z" fill="#263238"/>
<path d="M485.179 47.2302L457.449 37.291L429.98 47.1183C426.476 48.7707 423.395 49.7646 423.395 53.0321V69.295C423.344 80.714 426.476 91.9212 432.44 101.659C438.379 111.521 447.199 119.326 457.71 124.022C468.892 120.37 477.327 110.654 482.446 102.343C488.408 92.5993 491.54 81.3885 491.491 69.9659V55.2809C491.491 50.6219 489.031 48.3483 485.179 47.2302Z" fill="#CD5954"/>
<g opacity="0.3">
<path d="M457.698 114.543C449.373 110.789 442.397 104.576 437.708 96.7399C432.979 89.0131 430.505 80.1183 430.564 71.0597V59.6545C430.564 57.0703 432.117 54.6849 435.223 53.2065L457.449 44.9694V37.2666L429.98 47.0939C427.098 48.3363 423.395 49.7402 423.395 53.0077V69.2706C423.344 80.6896 426.476 91.8968 432.44 101.635C438.379 111.497 447.199 119.302 457.71 123.998L457.698 114.543Z" fill="black"/>
</g>
<g opacity="0.4">
<path d="M457.698 123.96C459.58 123.341 461.405 122.56 463.152 121.625C467.43 119.2 471.318 116.143 474.681 112.555C477.738 109.261 480.429 105.645 482.707 101.771C488.751 91.9664 491.8 80.6097 491.478 69.0963V55.666C491.478 48.9819 488.024 48.485 485.142 47.2302L457.412 37.291V44.969L479.912 53.4173C483.005 54.8709 484.558 57.2935 484.558 59.8777V71.2829C484.6 80.3174 482.121 89.1846 477.402 96.8886C472.816 104.668 465.932 110.836 457.698 114.543V123.96Z" fill="black"/>
</g>
<path opacity="0.5" d="M464.804 70.3766V68.1775C464.804 66.2664 464.045 64.4336 462.694 63.0822C461.342 61.7309 459.509 60.9717 457.598 60.9717C455.687 60.9717 453.854 61.7309 452.503 63.0822C451.152 64.4336 450.392 66.2664 450.392 68.1775V70.4014C449.436 70.5442 448.563 71.0252 447.932 71.757C447.3 72.4888 446.952 73.4229 446.951 74.3895V87.3352C446.951 87.8649 447.055 88.3894 447.259 88.8785C447.462 89.3677 447.759 89.812 448.134 90.186C448.509 90.5599 448.955 90.8562 449.444 91.0578C449.934 91.2593 450.459 91.3622 450.989 91.3606H464.419C464.949 91.3622 465.473 91.2593 465.963 91.0578C466.453 90.8562 466.898 90.5599 467.273 90.186C467.648 89.812 467.946 89.3677 468.149 88.8785C468.352 88.3894 468.457 87.8649 468.457 87.3352V74.3895C468.455 73.3864 468.08 72.4198 467.405 71.678C466.73 70.9362 465.803 70.4723 464.804 70.3766ZM459.549 84.1174H456.033L456.592 81.6327C456.281 81.443 456.024 81.1766 455.845 80.8589C455.667 80.5413 455.573 80.1831 455.573 79.8188C455.571 79.4469 455.666 79.0809 455.848 78.7565C456.029 78.4321 456.292 78.1604 456.61 77.968C456.929 77.7756 457.291 77.6691 457.663 77.6588C458.035 77.6486 458.403 77.735 458.731 77.9095C459.06 78.0841 459.337 78.3408 459.537 78.6547C459.736 78.9686 459.851 79.3289 459.869 79.7003C459.888 80.0717 459.809 80.4416 459.642 80.7737C459.475 81.1059 459.225 81.389 458.915 81.5954C459.164 82.5148 459.549 84.1174 459.549 84.1174ZM463.276 70.3642H451.983V68.1775C451.983 66.6783 452.578 65.2405 453.638 64.1804C454.698 63.1202 456.136 62.5247 457.636 62.5247C459.135 62.5247 460.573 63.1202 461.633 64.1804C462.693 65.2405 463.288 66.6783 463.288 68.1775L463.276 70.3642Z" fill="white"/>
<path d="M435.061 70.2144C434.819 69.4875 434.677 68.7309 434.639 67.9656C434.436 66.1343 434.361 64.2911 434.415 62.4494C434.415 61.3685 434.515 60.3373 434.614 59.4055C434.661 58.5452 434.871 57.7017 435.235 56.9207C435.511 56.3879 435.945 55.9538 436.478 55.6784C436.85 55.5044 437.086 55.5168 437.086 55.5417C436.418 55.852 435.881 56.3889 435.571 57.0574C435.271 57.8009 435.107 58.5919 435.086 59.3931C435.012 60.3249 434.962 61.3437 434.925 62.4121C434.925 64.549 434.925 66.4872 435.012 67.8911C435.097 68.6625 435.113 69.44 435.061 70.2144Z" fill="white"/>
<path d="M435.471 77.2715C435.335 77.2715 435.21 76.613 435.198 75.7806C435.186 74.9482 435.272 74.2773 435.409 74.2773C435.546 74.2773 435.658 74.9482 435.682 75.7682C435.707 76.5882 435.595 77.2715 435.471 77.2715Z" fill="white"/>
</svg>
